<svg xmlns="http://www.w3.org/2000/svg" viewBox="0 0 425.2 425.2"><path fill="none" stroke="#000" stroke-width=".709" stroke-miterlimit="10" d="M.3 411.8c0 .5-.1.9-.3 1.2v-2.4c.2.3.3.7.3 1.2zM2.3 60c0-1.5-1.1-2.3-2.3-2.4v4.8c1.2-.1 2.3-.9 2.3-2.4zm.2-7.5c0-1.6-1.3-2.4-2.5-2.4v4.8c1.3 0 2.5-.8 2.5-2.4zm.2-8c0-1.7-1.4-2.5-2.7-2.4V47c1.3 0 2.7-.8 2.7-2.5zm177.9 320.7c0 3.2 5 3.2 5 0s-5-3.2-5 0zm-3.6-7.5c0 3.2 5 3.2 5 0s-5-3.2-5 0zm-8.1-1c0 3.2 5 3.2 5 0s-5-3.3-5 0zm2.1-7.6c0 3.2 5 3.2 5 0s-5-3.2-5 0zm-3.8 2.4c0-3.2-5-3.2-5 0s5 3.2 5 0zm2.8-8.9c0-3.2-5-3.2-5 0s5 3.2 5 0zm-9.1-4.9c0-3.2-5-3.2-5 0s5 3.2 5 0zm2.4 7c0-3.2-5-3.2-5 0s5 3.2 5 0zm-10.8 5.2c0 3.2 5 3.2 5 0s-5-3.2-5 0zm3-7c0-3.2-5-3.2-5 0s5 3.2 5 0zm-7.3.2c0-3.2-5-3.2-5 0 0 3.3 5 3.3 5 0zm-3.2 7.3c0 3.2 5 3.2 5 0s-5-3.2-5 0zm-2.8.5c0-3.2-5-3.2-5 0 0 3.3 5 3.3 5 0zm-4.5 7.1c0 3.2 5 3.2 5 0s-5-3.3-5 0zm-2.3-1.9c0-3.2-5-3.2-5 0 0 3.3 5 3.3 5 0zm-1.8 8.6c0 3.2 5 3.2 5 0s-5-3.2-5 0zm1.8 6.8c0-3.2-5-3.2-5 0s5 3.2 5 0zm-8.3-8.3c0 3.2 5 3.2 5 0 0-3.3-5-3.3-5 0zm-2.1-5c0-3.2-5-3.2-5 0s5 3.2 5 0zm-2.1 10.7c0 3.2 5 3.2 5 0s-5-3.3-5 0zm3.6 8.8c0 3.2 5 3.2 5 0s-5-3.2-5 0zm-1.2 4.4c0-3.2-5-3.2-5 0 0 3.3 5 3.3 5 0zm-9.1-23.9c0-3.2-5-3.2-5 0s5 3.2 5 0zm-.1 6.3c0 3.2 5 3.2 5 0 0-3.3-5-3.3-5 0zm1.1 9.6c0 3.2 5 3.2 5 0 0-3.3-5-3.3-5 0zm-7-5.5c0 3.2 5 3.2 5 0s-5-3.2-5 0zm-4.1-11.2c0-3.2-5-3.2-5 0s5 3.3 5 0zm4.9 5c0-3.2-5-3.2-5 0s5 3.2 5 0zm-9.1 1.3c0-3.2-5-3.2-5 0s5 3.2 5 0zm5.7 5.4c0-3.2-5-3.2-5 0s5 3.3 5 0zm-13 2.1c0 3.2 5 3.2 5 0s-5-3.2-5 0zm-2.6 3.1c0-3.2-5-3.2-5 0 0 3.3 5 3.3 5 0zm-5 7.3c0 3.2 5 3.2 5 0s-5-3.2-5 0zm-2-6.2c0-3.2-5-3.2-5 0s5 3.2 5 0zm3.9 13.2c0-3.2-5-3.2-5 0 0 3.3 5 3.3 5 0zm-8.9-6.2c0 3.2 5 3.2 5 0s-5-3.2-5 0zm-6.7-10.7c0 3.2 5 3.2 5 0s-5-3.2-5 0zm-.6 7.6c0 3.2 5 3.2 5 0 0-3.3-5-3.3-5 0zM85 411c0-3.2-5-3.2-5 0s5 3.2 5 0zm-4.2 5.2c0-3.2-5-3.2-5 0s5 3.2 5 0zm-5.2-10.7c0 3.2 5 3.2 5 0s-5-3.2-5 0zm5.2-5.2c0 3.2 5 3.2 5 0s-5-3.2-5 0zm2.9-7.3c0-3.2-5-3.2-5 0 0 3.3 5 3.3 5 0zm-6.5 3.9c0-3.2-5-3.2-5 0s5 3.3 5 0zm1.3-8.8c0-3.2-5-3.2-5 0s5 3.2 5 0zm-7.8-15.6c0-3.2-5-3.2-5 0s5 3.2 5 0zm.5 10.7c0-3.2-5-3.2-5 0s5 3.2 5 0zm-.5 9.3c0-3.2-5-3.2-5 0 0 3.3 5 3.3 5 0zm-12-13.2c0 3.2 5 3.2 5 0 0-3.3-5-3.3-5 0zm4.2 7.8c0-3.2-5-3.2-5 0s5 3.2 5 0zm0 8.8c0-3.2-5-3.2-5 0s5 3.2 5 0zm-7.3-13.3c0-3.2-5-3.2-5 0 0 3.3 5 3.3 5 0zm.6 9.1c0-3.2-5-3.2-5 0 0 3.3 5 3.3 5 0zm-4.5 9.9c0 3.2 5 3.2 5 0s-5-3.2-5 0zm-8.9-23.4c0 3.2 5 3.2 5 0s-5-3.2-5 0zm1.3 8.6c0 3.2 5 3.2 5 0s-5-3.2-5 0zm5 8.8c0-3.2-5-3.2-5 0 0 3.3 5 3.3 5 0zm2.1 11.2c0-3.2-5-3.2-5 0s5 3.2 5 0zm-12.3-2.3c0 3.2 5 3.2 5 0s-5-3.2-5 0zm.9-8.9c0-3.2-5-3.2-5 0 0 3.3 5 3.3 5 0zm2.3-8c0-3.2-5-3.2-5 0s5 3.2 5 0zm-5.5-15.9c0 3.2 5 3.2 5 0s-5-3.2-5 0zm-.5-6.5c0-3.2-5-3.2-5 0s5 3.3 5 0zm-8-.5c0-3.2-5-3.2-5 0s5 3.2 5 0zm-7 5.2c0-3.2-5-3.2-5 0s5 3.2 5 0zm5.9 1.3c0 3.2 5 3.2 5 0s-5-3.2-5 0zm8 7.8c0 3.2 5 3.2 5 0s-5-3.2-5 0zm-3.3-.8c0-3.2-5-3.2-5 0s5 3.3 5 0zm2.9 6.8c0-3.2-5-3.2-5 0s5 3.2 5 0zm-6.8 6.7c0 3.2 5 3.2 5 0s-5-3.2-5 0zm-7.1-1.8c0 3.2 5 3.2 5 0s-5-3.2-5 0zm-6.2 3.9c0 3.2 5 3.2 5 0s-5-3.2-5 0zm2.1-17.7c0-3.2-5-3.2-5 0s5 3.3 5 0zm-4.6 5.8c0-3.2-5-3.2-5 0s5 3.2 5 0zm-6 4.9c0-3.2-5-3.2-5 0s5 3.2 5 0zm9.6 13.3c0-3.2-5-3.2-5 0s5 3.2 5 0zm-3.4 6.7c0-3.2-5-3.2-5 0s5 3.2 5 0zm8.5-24.4c0 3.2 5 3.2 5 0s-5-3.2-5 0zm-.2-8.3c0 3.2 5 3.2 5 0 0-3.3-5-3.3-5 0zm-7 9.8c0 3.2 5 3.2 5 0s-5-3.2-5 0zm-.2 6.3c0-3.2-5-3.2-5 0s5 3.2 5 0zm-4.7 7c0-3.2-5-3.2-5 0s5 3.2 5 0zm-8.6 28h1.2c-.3-.3-.7-.6-1.2-.7v.7zm5.7-6.2c0-3.2-5-3.2-5 0s5 3.3 5 0zm1.1-7.8c0-3.2-5-3.2-5 0 0 3.3 5 3.3 5 0zM4.7 404c0-2.7-3.6-3.1-4.7-1.2v2.5c1.1 1.8 4.7 1.4 4.7-1.3zm-2.1-11.2c0-1.7-1.3-2.5-2.6-2.4v4.8c1.3 0 2.6-.8 2.6-2.4zm184.3-20c0-3.2-5-3.2-5 0s5 3.2 5 0zm7 2.3c0-3.2-5-3.2-5 0s5 3.2 5 0zm-10.4 4.9c0 3.2 5 3.2 5 0s-5-3.2-5 0zm10.9.8c0 3.2 5 3.2 5 0s-5-3.2-5 0zm-6.4 6c0-3.2-5-3.2-5 0s5 3.2 5 0zm19.4 0c0-3.2-5-3.2-5 0s5 3.2 5 0zm-24.4 8.1c0 3.2 5 3.2 5 0 0-3.3-5-3.3-5 0zm8.3-7.1c0 3.2 5 3.2 5 0s-5-3.2-5 0zm6 4.5c0 3.2 5 3.2 5 0 0-3.3-5-3.3-5 0zm12.2 5.9c0-3.2-5-3.2-5 0s5 3.3 5 0zm-26.8 5.2c0 3.2 5 3.2 5 0s-5-3.2-5 0zm12.5-6.2c0-3.2-5-3.2-5 0s5 3.2 5 0zm7.3 4.2c0-3.2-5-3.2-5 0s5 3.2 5 0zm-11.4 9.6c0-3.2-5-3.2-5 0s5 3.2 5 0zm4.9-6.5c0-3.2-5-3.2-5 0s5 3.2 5 0zm3.1 9.6c0-3.2-5-3.2-5 0s5 3.2 5 0zm11.5 4.4c0-3.2-5-3.2-5 0s5 3.2 5 0zm-4.5-6.5c0-3.2-5-3.2-5 0s5 3.2 5 0zm3.4-6.5c0-3.2-5-3.2-5 0s5 3.2 5 0zm3.4 6.3c0-3.2-5-3.2-5 0s5 3.2 5 0zM156 317.9c0-3.2-5-3.2-5 0s5 3.2 5 0zm-12.9 0c0 3.2 5 3.2 5 0s-5-3.2-5 0zm-5.5 4.3c0 3.2 5 3.2 5 0s-5-3.2-5 0zm-4.6 5.1c0 3.2 5 3.2 5 0 0-3.3-5-3.3-5 0zm-1.3 4.4c0-3.2-5-3.2-5 0s5 3.2 5 0zm-6.3 4.1c0-3.2-5-3.2-5 0s5 3.2 5 0zm-5.3-5.3c0-3.2-5-3.2-5 0s5 3.2 5 0zM116 336c0-3.2-5-3.2-5 0s5 3.2 5 0zm-6.7-2.9c0-3.2-5-3.2-5 0 0 3.3 5 3.3 5 0zm-4.6 5.1c0-3.2-5-3.2-5 0s5 3.2 5 0zm-7.3.4c0-3.2-5-3.2-5 0 0 3.3 5 3.3 5 0zm-10.1 5.1c0 3.2 5 3.2 5 0s-5-3.2-5 0zm-1.9.2c0-3.2-5-3.2-5 0s5 3.2 5 0zm-5.5-5.9c0-3.2-5-3.2-5 0s5 3.2 5 0zm-6.9 2.7c0-3.2-5-3.2-5 0s5 3.2 5 0zm1.4-7.6c0-3.2-5-3.2-5 0 0 3.3 5 3.3 5 0zm-11.5-4.2c0 3.2 5 3.2 5 0s-5-3.2-5 0zm3.6 6.7c0-3.2-5-3.2-5 0s5 3.2 5 0zm-3.8 5.7c0-3.2-5-3.2-5 0s5 3.2 5 0zm-7.7-1.5c0-3.2-5-3.2-5 0 0 3.3 5 3.3 5 0zm-.2-6.5c0 3.2 5 3.2 5 0s-5-3.2-5 0zm1.6-7.1c0 3.2 5 3.2 5 0s-5-3.2-5 0zm-2.9-1.6c0-3.2-5-3.2-5 0s5 3.2 5 0zm-.2 7.3c0-3.2-5-3.2-5 0 0 3.3 5 3.3 5 0zm-6.1 4.5c0-3.2-5-3.2-5 0s5 3.2 5 0zm-5.8-13.8c0 3.2 5 3.2 5 0s-5-3.2-5 0zm-.4 6.7c0 3.2 5 3.2 5 0s-5-3.2-5 0zm-7.3-.4c0 3.2 5 3.2 5 0s-5-3.2-5 0zm2.4 5.9c0 3.2 5 3.2 5 0 0-3.3-5-3.3-5 0zm-7.5-1.5c0 3.2 5 3.2 5 0s-5-3.2-5 0zm-5.7 4.5c0 3.2 5 3.2 5 0 0-3.3-5-3.3-5 0zm162.9-4c0-3.2-5-3.2-5 0s5 3.2 5 0zm5.1 4.5c0-3.2-5-3.2-5 0s5 3.2 5 0zm6.8 1.9c0-3.2-5-3.2-5 0 0 3.3 5 3.3 5 0zm4.1 5.8c0-3.2-5-3.2-5 0 0 3.3 5 3.3 5 0zm6.8 3.5c0-3.2-5-3.2-5 0 0 3.3 5 3.3 5 0zm-49.1 74.1c0 .6.2 1.2.5 1.5h3.9c.3-.4.5-.9.5-1.5.1-3.2-4.9-3.2-4.9 0zm6.7-8.4c0-3.2-5-3.2-5 0s5 3.2 5 0zm-12.5 1.3c0 3.2 5 3.2 5 0s-5-3.2-5 0zm12.2-9.4c0-3.2-5-3.2-5 0s5 3.2 5 0zm-.9-8c0-3.2-5-3.2-5 0s5 3.2 5 0zm-10.4 10.5c0 3.2 5 3.2 5 0 0-3.3-5-3.3-5 0zm-1.2-7.5c0 3.2 5 3.2 5 0s-5-3.2-5 0zm9.1-9.5c0-3.2-5-3.2-5 0 0 3.3 5 3.3 5 0zm-11.3-3.4c0 3.2 5 3.2 5 0 0-3.3-5-3.3-5 0zm-2.7 1c0-3.2-5-3.2-5 0s5 3.2 5 0zm1.1 5.8c0 3.2 5 3.2 5 0 0-3.3-5-3.3-5 0zm-3.8 1c0-3.2-5-3.2-5 0s5 3.2 5 0zm-1.3 7.4c0-3.2-5-3.2-5 0s5 3.2 5 0zm1.9-1.5c0 3.2 5 3.2 5 0s-5-3.2-5 0zm.9 7c0 3.2 5 3.2 5 0s-5-3.2-5 0zm-9.3 1.6c0 3.2 5 3.2 5 0s-5-3.2-5 0zm1.5 6.5c0-3.2-5-3.2-5 0s5 3.2 5 0zm-5.8 4.8c0-3.2-5-3.2-5 0 0 1.4.9 2.2 2 2.4h1c1.1-.2 2-1 2-2.4zm15.1-6.6c0-3.2-5-3.2-5 0s5 3.2 5 0zm-3.7 7c0-3.2-5-3.2-5 0 0 1 .5 1.7 1.1 2h2.8c.7-.4 1.1-1.1 1.1-2zm-18.5-1.2c0-3.2-5-3.2-5 0s5 3.2 5 0zm-7-2.7c0-3.2-5-3.2-5 0 0 3.3 5 3.3 5 0zm-5.3-6.6c0-3.2-5-3.2-5 0s5 3.2 5 0zm-11 5.5c0 3.2 5 3.2 5 0s-5-3.2-5 0zm6.2 6.9c0 .1 0 .1 0 0l5 .1v-.1c0-3.2-5-3.2-5 0zm-7.9.1h4.1c-.9-1.3-3.1-1.3-4.1 0zM82.9 301.9c0-3.2-5-3.2-5 0s5 3.2 5 0zm7 .9c0-3.2-5-3.2-5 0s5 3.2 5 0zm-3.6 5.6c0-3.2-5-3.2-5 0 0 3.3 5 3.3 5 0zm6.9 0c0-3.2-5-3.2-5 0 0 3.3 5 3.3 5 0zm3 5.9c0-3.2-5-3.2-5 0 0 3.3 5 3.3 5 0zm4.2-5.4c0-3.2-5-3.2-5 0s5 3.3 5 0zm3.2 6.7c0-3.2-5-3.2-5 0 0 3.3 5 3.3 5 0zm4.9-3.8c0-3.2-5-3.2-5 0s5 3.2 5 0zm7 1c0-3.2-5-3.2-5 0s5 3.2 5 0zm1.5-2.7c0 3.2 5 3.2 5 0s-5-3.2-5 0zm11.2-4.6c0-3.2-5-3.2-5 0s5 3.2 5 0zm47.3 24.4c0 2.6 4 2.6 4 0 0-2.5-4-2.5-4 0zm-13.8-9.9c0-2.6-4-2.6-4 0s4 2.6 4 0zm4.5 2.3c0-1.9-3-1.9-3 0s3 1.9 3 0zm5.3 4.9c0 1.9 3 1.9 3 0s-3-1.9-3 0zm-3.9-2.6c0 1.3 2 1.3 2 0 0-1.2-2-1.2-2 0zm-88.3-172c0-3.2-5-3.2-5 0 0 3.3 5 3.3 5 0zm-8.6-7.5c0 3.2 5 3.2 5 0s-5-3.2-5 0zm-8.1-1c0 3.2 5 3.2 5 0 0-3.3-5-3.3-5 0zm7.1-7.6c0-3.2-5-3.2-5 0s5 3.2 5 0zm-13.8 2.4c0 3.2 5 3.2 5 0 0-3.3-5-3.3-5 0zm2.8-8.9c0 3.2 5 3.2 5 0s-5-3.2-5 0zm-4.1-4.9c0-3.2-5-3.2-5 0s5 3.2 5 0zm2.4 7c0-3.2-5-3.2-5 0s5 3.2 5 0zm-10.8 5.2c0 3.2 5 3.2 5 0s-5-3.2-5 0zm-2-7c0 3.2 5 3.2 5 0s-5-3.2-5 0zm-2.3.2c0-3.2-5-3.2-5 0 0 3.3 5 3.3 5 0zm-3.2 7.3c0 3.2 5 3.2 5 0s-5-3.2-5 0zm-2.8.5c0-3.2-5-3.2-5 0 0 3.3 5 3.3 5 0zm-4.5 7.1c0 3.2 5 3.2 5 0 0-3.3-5-3.3-5 0zm-2.3-1.9c0-3.2-5-3.2-5 0 0 3.3 5 3.3 5 0zm3.2 8.6c0-3.2-5-3.2-5 0s5 3.2 5 0zm-3.2 6.8c0-3.2-5-3.2-5 0s5 3.2 5 0zm-8.3-8.3c0 3.2 5 3.2 5 0 0-3.3-5-3.3-5 0zm-7.1-5c0 3.2 5 3.2 5 0s-5-3.2-5 0zm7.9 10.7c0-3.2-5-3.2-5 0s5 3.2 5 0zm3.6 8.8c0-3.2-5-3.2-5 0s5 3.2 5 0zm-6.2 4.4c0-3.2-5-3.2-5 0 0 3.3 5 3.3 5 0zm-9.1-23.9c0-3.2-5-3.2-5 0s5 3.2 5 0zm-.1 6.3c0 3.2 5 3.2 5 0 0-3.3-5-3.3-5 0zm6.1 9.6c0-3.2-5-3.2-5 0s5 3.2 5 0zm-7-5.5c0-3.2-5-3.2-5 0s5 3.2 5 0zm-4.2-6.2c0-2.8-3.6-3.1-4.7-1.2v2.4c1.1 1.9 4.7 1.5 4.7-1.2zm-3.4 6.7c0-1.1-.6-1.8-1.3-2.2v4.3c.8-.3 1.3-1 1.3-2.1zm74.3 3.7c0 3.2 5 3.2 5 0 0-3.3-5-3.3-5 0zm12 2.3c0-3.2-5-3.2-5 0s5 3.2 5 0zm-10.4 4.9c0 3.2 5 3.2 5 0s-5-3.2-5 0zm15.9.8c0-3.2-5-3.2-5 0 0 3.3 5 3.3 5 0zm-11.4 6c0-3.2-5-3.2-5 0s5 3.2 5 0zm14.4 0c0 3.2 5 3.2 5 0s-5-3.2-5 0zm-19.4 8.1c0 3.2 5 3.2 5 0 0-3.3-5-3.3-5 0zm8.3-7.1c0 3.2 5 3.2 5 0s-5-3.2-5 0zm5.9 4.5c0 3.2 5 3.2 5 0 0-3.3-5-3.3-5 0zm7.3 5.9c0 3.2 5 3.2 5 0s-5-3.2-5 0zm-21.8 5.2c0 3.2 5 3.2 5 0s-5-3.2-5 0zm7.5-6.2c0 3.2 5 3.2 5 0s-5-3.2-5 0zm12.3 4.2c0-3.2-5-3.2-5 0s5 3.2 5 0zm-16.4 9.6c0 3.2 5 3.2 5 0s-5-3.2-5 0zm9.9-6.5c0-3.2-5-3.2-5 0s5 3.2 5 0zm-1.9 9.6c0 3.2 5 3.2 5 0s-5-3.2-5 0zm16.5 4.4c0-3.2-5-3.2-5 0s5 3.2 5 0zm-9.5-6.5c0 3.2 5 3.2 5 0s-5-3.2-5 0zm8.4-6.5c0-3.2-5-3.2-5 0s5 3.2 5 0zm-1.6 6.3c0 3.2 5 3.2 5 0 0-3.3-5-3.3-5 0zm-56.9-93.9c0 3.2 5 3.2 5 0s-5-3.2-5 0zm-2.9 0c0-3.2-5-3.2-5 0s5 3.2 5 0zm-5.5 4.3c0-3.2-5-3.2-5 0s5 3.2 5 0zm-4.6 5.1c0-3.2-5-3.2-5 0s5 3.2 5 0zm-6.3 4.4c0-3.2-5-3.2-5 0 0 3.3 5 3.3 5 0zm-11.3 4.1c0 3.2 5 3.2 5 0s-5-3.2-5 0zm-.3-5.3c0-3.2-5-3.2-5 0s5 3.2 5 0zm-4.1 5.5c0-3.2-5-3.2-5 0s5 3.2 5 0zM3 120.5c0-1.9-1.6-2.6-3-2.4v4.7c1.4.4 3-.4 3-2.3zm76.5.7c0-3.2-5-3.2-5 0s5 3.2 5 0zm.1 4.5c0 3.2 5 3.2 5 0 0-3.3-5-3.3-5 0zm11.8 1.9c0-3.2-5-3.2-5 0 0 3.3 5 3.3 5 0zm-.9 5.9c0 3.2 5 3.2 5 0 0-3.3-5-3.3-5 0zm11.8 3.4c0-3.2-5-3.2-5 0 0 3.3 5 3.3 5 0zM38.5 322.1c0-3.2-5-3.2-5 0 0 3.3 5 3.3 5 0zm-7.3 3.4c0-3.2-5-3.2-5 0s5 3.2 5 0zm-5.1 5.3c0-3.2-5-3.2-5 0s5 3.2 5 0zm-10.5 10.6c0 3.2 5 3.2 5 0s-5-3.2-5 0zm5-6.7c0-3.2-5-3.2-5 0s5 3.3 5 0zm-7 4.7c0-3.2-5-3.2-5 0s5 3.2 5 0zm-2 6.6c0-3.2-5-3.2-5 0s5 3.2 5 0zm-7.1 3.7c0-2.6-3.3-3.1-4.5-1.5v3c1.3 1.6 4.5 1.1 4.5-1.5zm0-7.5c0-2.6-3.3-3.1-4.5-1.5v3c1.3 1.6 4.5 1.1 4.5-1.5zm73.3-46.9c0 3.2 5 3.2 5 0s-5-3.2-5 0zm-1.8 4c0-3.2-5-3.2-5 0s5 3.2 5 0zm1.3-9c0-3.2-5-3.2-5 0s5 3.2 5 0zm-7.5 5c0-3.2-5-3.2-5 0s5 3.2 5 0zm.5-8.6c0-3.2-5-3.2-5 0s5 3.2 5 0zm-6.4 4.8c0-3.2-5-3.2-5 0s5 3.2 5 0zm-10-6.2c0 3.2 5 3.2 5 0s-5-3.2-5 0zm1.2 5.7c0-3.2-5-3.2-5 0s5 3.2 5 0zm-5-6.8c0-3.2-5-3.2-5 0s5 3.2 5 0zm-10.3 4.5c0 3.2 5 3.2 5 0 0-3.3-5-3.3-5 0zm4.5-7.5c0-3.2-5-3.2-5 0s5 3.2 5 0zm-6.1 8.6c0-3.2-5-3.2-5 0s5 3.2 5 0zm-5.4-7.3c0 3.2 5 3.2 5 0s-5-3.2-5 0zm6-8.8c0-3.2-5-3.2-5 0 0 3.3 5 3.3 5 0zm-3.1-7.6c0-3.2-5-3.2-5 0s5 3.2 5 0zm-4-6.3c0-3.2-5-3.2-5 0s5 3.2 5 0zm-6.8-1.3c0-3.2-5-3.2-5 0s5 3.2 5 0zm-5.3 5.8c0-3.2-5-3.2-5 0s5 3.2 5 0zm8 1c0-3.2-5-3.2-5 0s5 3.2 5 0zm-.4 6.1c0 3.2 5 3.2 5 0s-5-3.2-5 0zm0 7c0 3.2 5 3.2 5 0s-5-3.3-5 0zm-.7 8.6c0 3.2 5 3.2 5 0s-5-3.2-5 0zm-4.6 6c0 3.2 5 3.2 5 0s-5-3.3-5 0zm-5.8-21.9c0-3.2-5-3.2-5 0s5 3.2 5 0zm8.1.6c0-3.2-5-3.2-5 0 0 3.3 5 3.3 5 0zm-3 10.8c0 3.2 5 3.2 5 0s-5-3.2-5 0zm-8.2-4.1c0-3.2-5-3.2-5 0s5 3.2 5 0zm7.4-.9c0-3.2-5-3.2-5 0 0 3.3 5 3.3 5 0zM9.3 285c0-3.2-5-3.2-5 0s5 3.2 5 0zm8.5-1c0-3.2-5-3.2-5 0s5 3.2 5 0zm.3 4c0 3.2 5 3.2 5 0s-5-3.2-5 0zm-3.5 1.5c0-3.2-5-3.2-5 0s5 3.2 5 0zm.5 5.3c0 3.2 5 3.2 5 0s-5-3.2-5 0zm-3 6.1c0 3.2 5 3.2 5 0s-5-3.2-5 0zm.4-5.8c0-3.2-5-3.2-5 0s5 3.2 5 0zm-6.3-3.8c0-3.2-5-3.2-5 0s5 3.2 5 0zm-1.7 7.5c0-2.6-3.3-3.1-4.5-1.5v3c1.3 1.6 4.5 1.1 4.5-1.5zm6.3 4.1c0-3.2-5-3.2-5 0s5 3.2 5 0zM8 309.5c0-3.2-5-3.2-5 0s5 3.3 5 0zm-8 4.3v3.1c.3-.4.5-.9.5-1.6 0-.6-.2-1.1-.5-1.5zm2.4-6.6c0-1.6-1.2-2.3-2.4-2.4v4.8c1.2 0 2.4-.8 2.4-2.4zm87.8-49.7c0 3.2 5 3.2 5 0s-5-3.2-5 0zm-.5 7.4c0 3.2 5 3.2 5 0s-5-3.2-5 0zm12.3-4.4c0-3.2-5-3.2-5 0s5 3.2 5 0zm-.8 7.9c0-3.2-5-3.2-5 0s5 3.2 5 0zm2.4 4.2c0 3.2 5 3.2 5 0s-5-3.3-5 0zm.2-7.5c0 3.2 5 3.2 5 0s-5-3.2-5 0zm.2-8c0 3.2 5 3.2 5 0s-5-3.2-5 0zm-15.6-3.4c0-3.2-5-3.2-5 0s5 3.2 5 0zm-1.3-6.7c0 3.2 5 3.2 5 0s-5-3.2-5 0zm-.4-7.8c0 3.2 5 3.2 5 0s-5-3.2-5 0zm-1.9 8.7c0-3.2-5-3.2-5 0s5 3.2 5 0zm6.1-17.8c0-3.2-5-3.2-5 0s5 3.2 5 0zm-10.1 4.8c0 3.2 5 3.2 5 0s-5-3.2-5 0zm2.8 6.7c0-3.2-5-3.2-5 0s5 3.2 5 0zm-10.3-7.5c0 3.2 5 3.2 5 0s-5-3.2-5 0zm-1 12.9c0 3.2 5 3.2 5 0s-5-3.2-5 0zm3.7-7.1c0-3.2-5-3.2-5 0s5 3.2 5 0zM61.1 252c0-3.2-5-3.2-5 0s5 3.2 5 0zm7.4-4.6c0-3.2-5-3.2-5 0s5 3.2 5 0zm-10.8-2.2c0-3.2-5-3.2-5 0s5 3.2 5 0zm-1.3-9.3c0-3.2-5-3.2-5 0s5 3.2 5 0zm8.1 6.7c0-3.2-5-3.2-5 0s5 3.2 5 0zm.5-6.3c0 3.2 5 3.2 5 0 0-3.3-5-3.3-5 0zm-1.8-3.4c0-3.2-5-3.2-5 0 0 3.3 5 3.3 5 0zm-9-6.3c0 3.2 5 3.2 5 0s-5-3.2-5 0zm4.5-7.3c0-3.2-5-3.2-5 0 0 3.3 5 3.3 5 0zm-.5-8.2c0-3.2-5-3.2-5 0s5 3.2 5 0zm-3.3-8.5c0 3.2 5 3.2 5 0s-5-3.2-5 0zm-2.5 1.3c0-3.2-5-3.2-5 0s5 3.2 5 0zm7.2-9.4c0-3.2-5-3.2-5 0s5 3.2 5 0zm-5.9-8c0 3.2 5 3.2 5 0s-5-3.2-5 0zM48.3 197c0 3.2 5 3.2 5 0 0-3.3-5-3.3-5 0zm3.8-7.5c0-3.2-5-3.2-5 0s5 3.2 5 0zm4.2-9.5c0-3.2-5-3.2-5 0 0 3.3 5 3.3 5 0zm-6.4-3.4c0-3.2-5-3.2-5 0s5 3.2 5 0zm-7.7 1c0-3.2-5-3.2-5 0s5 3.2 5 0zm6.1 5.8c0-3.2-5-3.2-5 0s5 3.2 5 0zm-8.8 1c0-3.2-5-3.2-5 0s5 3.2 5 0zm-1.3 7.4c0-3.2-5-3.2-5 0s5 3.2 5 0zm6.9-1.5c0-3.2-5-3.2-5 0s5 3.2 5 0zm.9 7c0-3.2-5-3.2-5 0s5 3.2 5 0zm-9.3 1.6c0-3.2-5-3.2-5 0 0 3.3 5 3.3 5 0zm-8.5 6.5c0 3.2 5 3.2 5 0s-5-3.2-5 0zm-.8 4.8c0-3.2-5-3.2-5 0s5 3.2 5 0zm15.1-6.6c0-3.2-5-3.2-5 0s5 3.2 5 0zm-3.7 7c0-3.2-5-3.2-5 0s5 3.2 5 0zm-8.9 6.4c0 3.2 5 3.2 5 0s-5-3.2-5 0zm1 7.1c0-3.2-5-3.2-5 0 0 3.3 5 3.3 5 0zm-4.2-6.4c0-3.2-5-3.2-5 0s5 3.2 5 0zm-6.4-8.3c0-3.2-5-3.2-5 0s5 3.2 5 0zm-4.7 12.1c0 3.2 5 3.2 5 0s-5-3.2-5 0zm.9-6.3c0-3.2-5-3.2-5 0s5 3.2 5 0zm-3.2-8.5c0-3.2-5-3.2-5 0s5 3.3 5 0zM8 200.1c0-3.2-5-3.2-5 0s5 3.2 5 0zm-6 5.5c0-1.4-1-2.2-2-2.4v4.8c1.1-.2 2-1 2-2.4zm10.5 16.6c0-3.2-5-3.2-5 0s5 3.2 5 0zm-4.3-9.7c0-3.2-5-3.2-5 0 0 3.3 5 3.3 5 0zM5 220.7c0-3.2-5-3.2-5 0s5 3.2 5 0zm-.2 8.3c0-2.9-4-3.2-4.8-.9v1.7c.8 2.3 4.8 2.1 4.8-.8zM1 237.9c0-.9-.4-1.6-1-2v4c.6-.4 1-1 1-2zM2.2 99.2c0-1.5-1.1-2.3-2.2-2.4v4.8c1.2-.1 2.2-.9 2.2-2.4zm7 1c0-3.2-5-3.2-5 0s5 3.2 5 0zm6.5-2.7c0-3.2-5-3.2-5 0s5 3.2 5 0zm6.2-4.6c0-3.2-5-3.2-5 0s5 3.2 5 0zm51.3 24.5c0-2.6-4-2.6-4 0 0 2.5 4 2.5 4 0zm-17.8-10c0-2.6-4-2.6-4 0s4 2.6 4 0zm4.5 2.3c0-1.9-3-1.9-3 0s3 1.9 3 0zm5.3 5c0 1.9 3 1.9 3 0 0-2-3-2-3 0zm-1.9-2.7c0-1.3-2-1.3-2 0s2 1.3 2 0zM1.8 1.6C1.8.9 1.6.4 1.2 0H0v4c1-.3 1.8-1 1.8-2.4zm99.7 127.8c0-3.2-5-3.2-5 0 0 3.3 5 3.3 5 0zm43.3-19.9c0-3.2-5-3.2-5 0 0 3.3 5 3.3 5 0zm-7.3 3.4c0-3.2-5-3.2-5 0s5 3.2 5 0zm-10.1 5.3c0 3.2 5 3.2 5 0 0-3.3-5-3.3-5 0zm-5.5 10.6c0 3.2 5 3.2 5 0s-5-3.2-5 0zm0-6.7c0 3.2 5 3.2 5 0s-5-3.2-5 0zm-7 4.7c0 3.2 5 3.2 5 0s-5-3.2-5 0zm3 6.6c0-3.2-5-3.2-5 0s5 3.2 5 0zm-12.1 3.7c0 3.2 5 3.2 5 0 0-3.3-5-3.3-5 0zm0-7.5c0 3.2 5 3.2 5 0s-5-3.2-5 0zm78.3-46.9c0 3.2 5 3.2 5 0s-5-3.2-5 0zm-6.8 4c0 3.2 5 3.2 5 0 0-3.3-5-3.3-5 0zm6.3-9c0-3.2-5-3.2-5 0s5 3.2 5 0zm-7.5 5c0-3.2-5-3.2-5 0s5 3.2 5 0zm.5-8.6c0-3.2-5-3.2-5 0s5 3.2 5 0zm-6.4 4.8c0-3.2-5-3.2-5 0s5 3.2 5 0zm-10-6.2c0 3.2 5 3.2 5 0s-5-3.2-5 0zm1.2 5.7c0-3.2-5-3.2-5 0s5 3.2 5 0zm-5-6.8c0-3.2-5-3.2-5 0s5 3.2 5 0zm-10.3 4.5c0 3.2 5 3.2 5 0 0-3.3-5-3.3-5 0zm4.5-7.5c0-3.2-5-3.2-5 0s5 3.2 5 0zm-11.1 8.6c0 3.2 5 3.2 5 0s-5-3.2-5 0zm-.4-7.3c0 3.2 5 3.2 5 0s-5-3.2-5 0zm6-8.8c0-3.2-5-3.2-5 0 0 3.3 5 3.3 5 0zm-3.1-7.6c0-3.2-5-3.2-5 0s5 3.2 5 0zm-4-6.3c0-3.2-5-3.2-5 0s5 3.2 5 0zm-6.8-1.3c0-3.2-5-3.2-5 0s5 3.2 5 0zm-10.3 5.8c0 3.2 5 3.2 5 0s-5-3.2-5 0zm13 1c0-3.2-5-3.2-5 0s5 3.2 5 0zm-.4 6.1c0 3.2 5 3.2 5 0s-5-3.2-5 0zm5 7c0-3.2-5-3.2-5 0s5 3.2 5 0zm-5.7 8.6c0 3.2 5 3.2 5 0s-5-3.2-5 0zm.4 6c0-3.2-5-3.2-5 0s5 3.2 5 0zm-15.8-21.9c0 3.2 5 3.2 5 0s-5-3.2-5 0zm13.1.6c0-3.2-5-3.2-5 0 0 3.3 5 3.3 5 0zm-3 10.8c0 3.2 5 3.2 5 0s-5-3.2-5 0zm-8.2-4.1c0-3.2-5-3.2-5 0s5 3.2 5 0zm2.4-.9c0 3.2 5 3.2 5 0s-5-3.2-5 0zm-6.1 7.5c0-3.2-5-3.2-5 0s5 3.2 5 0zm8.5-1c0-3.2-5-3.2-5 0s5 3.2 5 0zm.3 4c0 3.2 5 3.2 5 0s-5-3.2-5 0zm-8.5 1.5c0 3.2 5 3.2 5 0s-5-3.2-5 0zm5.5 5.3c0 3.2 5 3.2 5 0s-5-3.2-5 0zm-3 6.1c0 3.2 5 3.2 5 0s-5-3.2-5 0zm-4.6-5.8c0 3.2 5 3.2 5 0s-5-3.2-5 0zm-1.3-3.8c0-3.2-5-3.2-5 0s5 3.2 5 0zm-6.7 7.5c0 3.2 5 3.2 5 0 0-3.3-5-3.3-5 0zm11.3 4.1c0-3.2-5-3.2-5 0s5 3.2 5 0zm-7.8 6.6c0 3.2 5 3.2 5 0s-5-3.2-5 0zm-6.6-5.8c0-3.2-5-3.2-5 0s5 3.3 5 0zm4.1 11.6c0-3.2-5-3.2-5 0 0 3.3 5 3.3 5 0zm-3.1-8.1c0 3.2 5 3.2 5 0s-5-3.2-5 0zm-3.7 4c0-3.2-5-3.2-5 0s5 3.2 5 0zm-12.1-2.5c0 3.2 5 3.2 5 0s-5-3.2-5 0zm7.2 7.1c0-3.2-5-3.2-5 0 0 3.3 5 3.3 5 0zm-8.7-3.1c0-3.2-5-3.2-5 0s5 3.2 5 0zm-7.8-1.2c0-3.2-5-3.2-5 0 0 3.3 5 3.3 5 0zm-7.7-1.1c0-3.2-5-3.2-5 0s5 3.2 5 0zm-18.4-9.6c0-3.2-5-3.2-5 0s5 3.2 5 0zM45 82c0 3.2 5 3.2 5 0s-5-3.2-5 0zm-7.2 2.2c0 3.2 5 3.2 5 0s-5-3.2-5 0zm7.2-8c0-3.2-5-3.2-5 0s5 3.2 5 0zm-7.5-1.6c0-3.2-5-3.2-5 0s5 3.2 5 0zM36 81.4c0-3.2-5-3.2-5 0s5 3.2 5 0zm-6.8.8c0-3.2-5-3.2-5 0s5 3.2 5 0zm-2.1 6.1c0-3.2-5-3.2-5 0s5 3.2 5 0zm169.4-43.4c0 3.2 5 3.2 5 0s-5-3.2-5 0zm-.5 7.4c0 3.2 5 3.2 5 0s-5-3.2-5 0zm12.3-4.4c0-3.2-5-3.2-5 0s5 3.2 5 0zm-.8 7.9c0-3.2-5-3.2-5 0s5 3.2 5 0zm2.4 4.2c0 3.2 5 3.2 5 0 0-3.3-5-3.3-5 0zm5.2-7.5c0-3.2-5-3.2-5 0s5 3.2 5 0zm-4.8-8c0 3.2 5 3.2 5 0s-5-3.2-5 0zm-15.6-3.4c0-3.2-5-3.2-5 0s5 3.2 5 0zm3.7-6.7c0-3.2-5-3.2-5 0 0 3.3 5 3.3 5 0zm-.4-7.8c0-3.2-5-3.2-5 0 0 3.3 5 3.3 5 0zm-6.9 8.7c0-3.2-5-3.2-5 0s5 3.2 5 0zm6.1-17.8c0-3.2-5-3.2-5 0s5 3.2 5 0zm-10.1 4.8c0 3.2 5 3.2 5 0s-5-3.2-5 0zm-2.2 6.7c0 3.2 5 3.2 5 0s-5-3.3-5 0zm-5.3-7.5c0 3.2 5 3.2 5 0s-5-3.2-5 0zm-1 12.9c0 3.2 5 3.2 5 0s-5-3.2-5 0zm3.7-7.1c0-3.2-5-3.2-5 0s5 3.2 5 0zm-14.9 12.1c0-3.2-5-3.2-5 0s5 3.2 5 0zm7.4-4.6c0-3.2-5-3.2-5 0s5 3.2 5 0zM164 32.6c0-3.2-5-3.2-5 0s5 3.2 5 0zm-1.3-9.3c0-3.2-5-3.2-5 0s5 3.2 5 0zm3.1 6.7c0 3.2 5 3.2 5 0 0-3.3-5-3.3-5 0zm5.5-6.3c0 3.2 5 3.2 5 0 0-3.3-5-3.3-5 0zm-6.8-3.4c0 3.2 5 3.2 5 0s-5-3.2-5 0zm-4-6.3c0 3.2 5 3.2 5 0s-5-3.2-5 0zm-.5-7.3c0 3.2 5 3.2 5 0s-5-3.2-5 0zm4-6.7h-3.9c.9 1.2 2.9 1.2 3.9 0zm-32.3 0h-1c.3.1.7.1 1 0zM144 0h-2.8c.9.5 2 .5 2.8 0zm-7.8 4.4c0 3.2 5 3.2 5 0s-5-3.2-5 0zm-4 7.2c0 3.2 5 3.2 5 0 0-3.3-5-3.3-5 0zm.8-6.5c0-3.2-5-3.2-5 0s5 3.2 5 0zm-11.1 3.8c0 3.2 5 3.2 5 0s-5-3.2-5 0zm-4.1-6.3c0 3.2 5 3.2 5 0s-5-3.2-5 0zm-4 7c0 3.2 5 3.2 5 0 0-3.3-5-3.3-5 0zm.7-9.6h-5c0 3.1 4.9 3.1 5 0zm-8.3 1.4c0-.6-.2-1.1-.4-1.4h-4.1c-.3.4-.4.9-.4 1.4-.1 3.3 4.9 3.3 4.9 0zm5.1 6.7c0-3.2-5-3.2-5 0s5 3.2 5 0zm-5.2 8.3c0 3.2 5 3.2 5 0 0-3.3-5-3.3-5 0zM99 10.7c0 3.2 5 3.2 5 0s-5-3.2-5 0zm-.6 8.5c0 3.2 5 3.2 5 0s-5-3.2-5 0zm3.9 6.1c0 3.2 5 3.2 5 0s-5-3.2-5 0zm-1.4 3.7c0-3.2-5-3.2-5 0s5 3.2 5 0zm4.1 6.6c0-3.2-5-3.2-5 0s5 3.2 5 0zm-7.4 1.7c0-3.2-5-3.2-5 0s5 3.2 5 0zm6.1 5.3c0-3.2-5-3.2-5 0s5 3.2 5 0zM97.1 45c0-3.2-5-3.2-5 0 0 3.3 5 3.3 5 0zm-2.2 7c0 3.2 5 3.2 5 0s-5-3.2-5 0zm-10.3-7.6c0 3.2 5 3.2 5 0s-5-3.2-5 0zm7.5 6.6c0-3.2-5-3.2-5 0s5 3.2 5 0zm-.5 7.1c0-3.2-5-3.2-5 0 0 3.3 5 3.3 5 0zm-15-11.7c0 3.2 5 3.2 5 0 0-3.3-5-3.3-5 0zm3.5 6.4c0 3.2 5 3.2 5 0s-5-3.2-5 0zm4.5 7.7c0-3.2-5-3.2-5 0s5 3.2 5 0zm-7.4 1.8c0-3.2-5-3.2-5 0s5 3.2 5 0zm-12.2-2c0 3.2 5 3.2 5 0s-5-3.2-5 0zm-4.3-6.8c0 3.2 5 3.2 5 0s-5-3.2-5 0zm11.6 1c0 3.2 5 3.2 5 0s-5-3.2-5 0zm.7-6.6c0-3.2-5-3.2-5 0s5 3.2 5 0zM61.2 46c0 3.2 5 3.2 5 0s-5-3.2-5 0zm-3.8-7.4c0 3.2 5 3.2 5 0s-5-3.2-5 0zm-5.1-5.3c0 3.2 5 3.2 5 0 0-3.3-5-3.3-5 0zm1.6-7.3c0 3.2 5 3.2 5 0s-5-3.2-5 0zm.4-8.1c0 3.2 5 3.2 5 0 0-3.3-5-3.3-5 0zm.9-7.7c0 3.2 5 3.2 5 0s-5-3.2-5 0zm1-7.1c0 3.2 5 3.2 5 0s-5-3.2-5 0zm-2.8 10.1c0-3.2-5-3.2-5 0s5 3.2 5 0zm-.9 8.6c0-3.2-5-3.2-5 0s5 3.3 5 0zm-1.2 6.8c0-3.2-5-3.2-5 0 0 3.3 5 3.3 5 0zm-5.6 4.8c0-3.2-5-3.2-5 0 0 3.3 5 3.3 5 0zm-4.5-15.7c0 3.2 5 3.2 5 0s-5-3.2-5 0zm-.9 7.6c0 3.2 5 3.2 5 0s-5-3.2-5 0zm-6.6 5.3c0 3.2 5 3.2 5 0s-5-3.2-5 0zm.7-7.6c0 3.2 5 3.2 5 0s-5-3.2-5 0zm-1.7-7.6c0 3.2 5 3.2 5 0 0-3.3-5-3.3-5 0zm-5.5-5.5c0 3.2 5 3.2 5 0s-5-3.2-5 0zm.5-6.3c0-3.2-5-3.2-5 0s5 3.2 5 0zm-5.9 5.5c0-3.2-5-3.2-5 0s5 3.2 5 0zm5.8 17c0 3.2 5 3.2 5 0s-5-3.2-5 0zm-1.5-7.9c0 3.2 5 3.2 5 0s-5-3.2-5 0zm-.2-4.2c0-3.2-5-3.2-5 0 0 3.3 5 3.3 5 0zm-6.4 2.9c0-3.2-5-3.2-5 0s5 3.2 5 0zm6.3 5.1c0-3.2-5-3.2-5 0s5 3.2 5 0zm-2 7.3c0-3.2-5-3.2-5 0s5 3.2 5 0zm-5.5-4.6c0-3.2-5-3.2-5 0s5 3.2 5 0zM17 32.1c0-3.2-5-3.2-5 0s5 3.2 5 0zm.3 8c0-3.2-5-3.2-5 0s5 3.2 5 0zM11 36.9c0-3.2-5-3.2-5 0s5 3.2 5 0zm-2.2 6.2c0-3.2-5-3.2-5 0s5 3.2 5 0zm1.8 3.4c0 3.2 5 3.2 5 0s-5-3.2-5 0zm-1.9 8.3c0 3.2 5 3.2 5 0s-5-3.2-5 0zm1 6.7c0-3.2-5-3.2-5 0s5 3.2 5 0zm-1-12c0-3.2-5-3.2-5 0s5 3.2 5 0zm-1 6.5c0-3.2-5-3.2-5 0s5 3.2 5 0zM54 92.8c0 2.6 4 2.6 4 0s-4-2.6-4 0zm9.6 3c0-2.6-4-2.6-4 0 0 2.5 4 2.5 4 0zm329.6 269.4c0 3.2 5 3.2 5 0s-5-3.2-5 0zm-3.6-7.5c0 3.2 5 3.2 5 0s-5-3.2-5 0zm-8.1-1c0 3.2 5 3.2 5 0s-5-3.3-5 0zm7.1-7.6c0-3.2-5-3.2-5 0s5 3.2 5 0zm-13.8 2.4c0 3.2 5 3.2 5 0 0-3.3-5-3.3-5 0zm7.8-8.9c0-3.2-5-3.2-5 0s5 3.2 5 0zm-9.1-4.9c0-3.2-5-3.2-5 0s5 3.2 5 0zm2.4 7c0-3.2-5-3.2-5 0s5 3.2 5 0zm-5.8 5.2c0-3.2-5-3.2-5 0s5 3.2 5 0zm-2-7c0-3.2-5-3.2-5 0s5 3.2 5 0zm-12.3.2c0 3.2 5 3.2 5 0s-5-3.2-5 0zm6.8 7.3c0-3.2-5-3.2-5 0s5 3.2 5 0zm-7.8.5c0-3.2-5-3.2-5 0 0 3.3 5 3.3 5 0zm.5 7.1c0-3.2-5-3.2-5 0s5 3.2 5 0zm-12.3-1.9c0 3.2 5 3.2 5 0s-5-3.2-5 0zm3.2 8.6c0 3.2 5 3.2 5 0s-5-3.2-5 0zm-3.2 6.8c0 3.2 5 3.2 5 0 0-3.3-5-3.3-5 0zm-3.3-8.3c0 3.2 5 3.2 5 0 0-3.3-5-3.3-5 0zm-2.1-5c0-3.2-5-3.2-5 0s5 3.2 5 0zm-2.1 10.7c0 3.2 5 3.2 5 0s-5-3.3-5 0zm8.6 8.8c0-3.2-5-3.2-5 0s5 3.2 5 0zm-11.2 4.4c0 3.2 5 3.2 5 0s-5-3.2-5 0zm-4.1-23.9c0-3.2-5-3.2-5 0s5 3.2 5 0zm4.9 6.3c0-3.2-5-3.2-5 0s5 3.2 5 0zm-3.9 9.6c0 3.2 5 3.2 5 0 0-3.3-5-3.3-5 0zm-2-5.5c0-3.2-5-3.2-5 0s5 3.2 5 0zm-9.1-11.2c0-3.2-5-3.2-5 0s5 3.3 5 0zm4.9 5c0-3.2-5-3.2-5 0s5 3.2 5 0zm-9.1 1.3c0-3.2-5-3.2-5 0s5 3.2 5 0zm5.7 5.4c0-3.2-5-3.2-5 0s5 3.3 5 0zm-13 2.1c0 3.2 5 3.2 5 0s-5-3.2-5 0zm-2.6 3.1c0-3.2-5-3.2-5 0 0 3.3 5 3.3 5 0zm0 7.3c0-3.2-5-3.2-5 0s5 3.2 5 0zm-7-6.2c0-3.2-5-3.2-5 0s5 3.2 5 0zm-1.1 13.2c0 3.2 5 3.2 5 0s-5-3.2-5 0zm1.1-6.2c0-3.2-5-3.2-5 0s5 3.2 5 0zm-11.8-10.7c0 3.2 5 3.2 5 0s-5-3.2-5 0zm4.5 7.6c0-3.2-5-3.2-5 0s5 3.2 5 0zm7.3 31.7c0-3.2-5-3.2-5 0s5 3.2 5 0zm-9.2 5.2c0 3.2 5 3.2 5 0s-5-3.2-5 0zm4.8-10.7c0-3.2-5-3.2-5 0s5 3.2 5 0zm.2-5.2c0 3.2 5 3.2 5 0s-5-3.2-5 0zm-2.1-7.3c0 3.2 5 3.2 5 0s-5-3.2-5 0zm-1.5 3.9c0-3.2-5-3.2-5 0s5 3.3 5 0zm-3.7-8.8c0 3.2 5 3.2 5 0s-5-3.2-5 0zm-2.8-15.6c0-3.2-5-3.2-5 0s5 3.2 5 0zm.5 10.7c0-3.2-5-3.2-5 0s5 3.2 5 0zm-5.5 9.3c0 3.2 5 3.2 5 0s-5-3.2-5 0zm-2-13.2c0-3.2-5-3.2-5 0s5 3.2 5 0zm-5.8 7.8c0 3.2 5 3.2 5 0s-5-3.3-5 0zm0 8.8c0 3.2 5 3.2 5 0s-5-3.2-5 0zm-2.3-13.3c0-3.2-5-3.2-5 0 0 3.3 5 3.3 5 0zm-4.4 9.1c0 3.2 5 3.2 5 0s-5-3.2-5 0zm5.5 9.9c0-3.2-5-3.2-5 0s5 3.2 5 0zm-8.9-23.4c0-3.2-5-3.2-5 0s5 3.3 5 0zm1.3 8.6c0-3.2-5-3.2-5 0s5 3.2 5 0zm-5 8.8c0 3.2 5 3.2 5 0s-5-3.2-5 0zm2.1 11.2c0 3.2 5 3.2 5 0s-5-3.2-5 0zm-2.3-2.3c0-3.2-5-3.2-5 0s5 3.2 5 0zm-9.1-8.9c0 3.2 5 3.2 5 0s-5-3.2-5 0zm2.3-8c0 3.2 5 3.2 5 0s-5-3.2-5 0zm-.5-15.9c0 3.2 5 3.2 5 0s-5-3.2-5 0zm-.5-6.5c0-3.2-5-3.2-5 0s5 3.3 5 0zm-8-.5c0-3.2-5-3.2-5 0s5 3.2 5 0zm-12 5.2c0 3.2 5 3.2 5 0s-5-3.2-5 0zm10.9 1.3c0 3.2 5 3.2 5 0s-5-3.2-5 0zm13 7.8c0-3.2-5-3.2-5 0s5 3.2 5 0zm-13.3-.8c0 3.2 5 3.2 5 0s-5-3.2-5 0zm7.9 6.8c0-3.2-5-3.2-5 0s5 3.2 5 0zm-6.8 6.7c0 3.2 5 3.2 5 0s-5-3.2-5 0zm-7.1-1.8c0 3.2 5 3.2 5 0s-5-3.2-5 0zm-1.2 3.9c0-3.2-5-3.2-5 0s5 3.3 5 0zm-2.9-17.7c0-3.2-5-3.2-5 0s5 3.3 5 0zm-4.6 5.8c0-3.2-5-3.2-5 0s5 3.2 5 0zm-11 4.9c0 3.2 5 3.2 5 0s-5-3.2-5 0zm14.6 13.3c0-3.2-5-3.2-5 0s5 3.2 5 0zm-3.4 6.7c0-3.2-5-3.2-5 0s5 3.2 5 0zm8.5-24.4c0 3.2 5 3.2 5 0s-5-3.2-5 0zm-.2-8.3c0 3.2 5 3.2 5 0 0-3.3-5-3.3-5 0zm-2 9.8c0-3.2-5-3.2-5 0 0 3.3 5 3.3 5 0zm-10.2 6.3c0 3.2 5 3.2 5 0s-5-3.2-5 0zm-4.7 7c0 3.2 5 3.2 5 0s-5-3.2-5 0zm-6.2 28h3.8c-1-1-2.8-1-3.8 0zm8.3-6.2c0-3.2-5-3.2-5 0s5 3.3 5 0zm1.1-7.8c0-3.2-5-3.2-5 0 0 3.3 5 3.3 5 0zm-7.1-7.2c0 3.2 5 3.2 5 0 0-3.3-5-3.3-5 0zm2.9-11.2c0-3.2-5-3.2-5 0s5 3.2 5 0zm179.3-20c0 3.2 5 3.2 5 0 0-3.3-5-3.3-5 0zm7 2.3c0 3.2 5 3.2 5 0s-5-3.2-5 0zm-5.4 4.9c0 3.2 5 3.2 5 0s-5-3.2-5 0zm10.9.8c0 3.2 5 3.2 5 0s-5-3.2-5 0zm-11.5 6c0 3.2 5 3.2 5 0s-5-3.2-5 0zm19.5 0c0 3.2 5 3.2 5 0s-5-3.2-5 0zm-14.5 8.1c0-3.2-5-3.2-5 0s5 3.2 5 0zm3.4-7.1c0 3.2 5 3.2 5 0s-5-3.2-5 0zm5.9 4.5c0 3.2 5 3.2 5 0 0-3.3-5-3.3-5 0zm7.3 5.9c0 3.2 5 3.2 5 0s-5-3.2-5 0zm-21.8 5.2c0 3.2 5 3.2 5 0s-5-3.2-5 0zm7.5-6.2c0 3.2 5 3.2 5 0s-5-3.2-5 0zm7.3 4.2c0 3.2 5 3.2 5 0 0-3.3-5-3.3-5 0zm-11.4 9.6c0 3.2 5 3.2 5 0s-5-3.2-5 0zm9.9-6.5c0-3.2-5-3.2-5 0s5 3.2 5 0zm-1.9 9.6c0 3.2 5 3.2 5 0s-5-3.2-5 0zm11.5 4.4c0 3.2 5 3.2 5 0s-5-3.2-5 0zm.5-6.5c0-3.2-5-3.2-5 0s5 3.2 5 0zm-1.6-6.5c0 3.2 5 3.2 5 0s-5-3.2-5 0zm3.4 6.3c0 2.7 3.6 3.1 4.7 1.2v-2.4c-1.1-2-4.7-1.6-4.7 1.2zm-56.9-93.9c0 3.2 5 3.2 5 0s-5-3.2-5 0zm-7.9 0c0 3.2 5 3.2 5 0s-5-3.2-5 0zm-.5 4.3c0-3.2-5-3.2-5 0s5 3.2 5 0zm-4.6 5.1c0-3.2-5-3.2-5 0s5 3.2 5 0zm-6.3 4.4c0-3.2-5-3.2-5 0s5 3.2 5 0zm-11.3 4.1c0 3.2 5 3.2 5 0s-5-3.2-5 0zm-.3-5.3c0-3.2-5-3.2-5 0s5 3.2 5 0zm-4.1 5.5c0-3.2-5-3.2-5 0s5 3.2 5 0zm-11.7-2.9c0 3.2 5 3.2 5 0s-5-3.2-5 0zm.4 5.1c0-3.2-5-3.2-5 0s5 3.2 5 0zm-7.3.4c0-3.2-5-3.2-5 0 0 3.3 5 3.3 5 0zm-5.1 5.1c0-3.2-5-3.2-5 0s5 3.2 5 0zm-6.9.2c0-3.2-5-3.2-5 0s5 3.2 5 0zm-10.5-5.9c0 3.2 5 3.2 5 0s-5-3.2-5 0zm-1.9 2.7c0-3.2-5-3.2-5 0s5 3.2 5 0zm1.4-7.6c0-3.2-5-3.2-5 0 0 3.3 5 3.3 5 0zm-11.5-4.2c0 3.2 5 3.2 5 0s-5-3.2-5 0zm3.6 6.7c0-3.2-5-3.2-5 0s5 3.2 5 0zm-3.8 5.7c0-3.2-5-3.2-5 0s5 3.2 5 0zm-12.8-1.5c0 3.2 5 3.2 5 0s-5-3.2-5 0zm4.9-6.5c0 3.2 5 3.2 5 0s-5-3.2-5 0zm1.6-7.1c0 3.2 5 3.2 5 0s-5-3.2-5 0zm-2.9-1.6c0-3.2-5-3.2-5 0s5 3.2 5 0zm-5.2 7.3c0 3.2 5 3.2 5 0s-5-3.2-5 0zm-1.1 4.5c0-3.2-5-3.2-5 0s5 3.2 5 0zm-5.8-13.8c0 3.2 5 3.2 5 0s-5-3.2-5 0zm-.4 6.7c0 3.2 5 3.2 5 0s-5-3.2-5 0zm-2.3-.4c0-3.2-5-3.2-5 0s5 3.2 5 0zm-2.6 5.9c0 3.2 5 3.2 5 0 0-3.3-5-3.3-5 0zm-7.5-1.5c0 3.2 5 3.2 5 0s-5-3.2-5 0zm-5.7 4.5c0 3.2 5 3.2 5 0 0-3.3-5-3.3-5 0zm157.9-4c0 3.2 5 3.2 5 0s-5-3.2-5 0zm5.1 4.5c0 3.2 5 3.2 5 0 0-3.3-5-3.3-5 0zm6.8 1.9c0 3.2 5 3.2 5 0s-5-3.2-5 0zm4.1 5.8c0 3.2 5 3.2 5 0s-5-3.2-5 0zm6.8 3.5c0 3.2 5 3.2 5 0s-5-3.2-5 0zm-44.1 74.1c0 .6.2 1.2.5 1.5h3.9c.3-.4.5-.9.5-1.5.1-3.2-4.9-3.2-4.9 0zm6.7-8.4c0-3.2-5-3.2-5 0s5 3.2 5 0zm-7.5 1.3c0-3.2-5-3.2-5 0s5 3.2 5 0zm7.2-9.4c0-3.2-5-3.2-5 0s5 3.2 5 0zm-.9-8c0-3.2-5-3.2-5 0s5 3.2 5 0zm-5.4 10.5c0-3.2-5-3.2-5 0s5 3.2 5 0zm-1.2-7.5c0-3.2-5-3.2-5 0s5 3.2 5 0zm-.9-9.5c0 3.2 5 3.2 5 0s-5-3.2-5 0zm-6.3-3.4c0 3.2 5 3.2 5 0 0-3.3-5-3.3-5 0zm-2.7 1c0-3.2-5-3.2-5 0s5 3.2 5 0zm6.1 5.8c0-3.2-5-3.2-5 0s5 3.2 5 0zm-8.8 1c0-3.2-5-3.2-5 0s5 3.2 5 0zm-1.3 7.4c0-3.2-5-3.2-5 0s5 3.2 5 0zm6.9-1.5c0-3.2-5-3.2-5 0s5 3.2 5 0zm.9 7c0-3.2-5-3.2-5 0s5 3.2 5 0zm-14.3 1.6c0 3.2 5 3.2 5 0s-5-3.2-5 0zm1.5 6.5c0-3.2-5-3.2-5 0s5 3.2 5 0zm-5.8 4.8c0-3.2-5-3.2-5 0 0 1.4.9 2.2 2 2.4h1c1-.2 2-1 2-2.4zm15.1-6.6c0-3.2-5-3.2-5 0s5 3.2 5 0zm-3.7 7c0-3.2-5-3.2-5 0 0 1 .5 1.7 1.1 2h2.8c.7-.4 1.1-1.1 1.1-2zm-18.5-1.2c0-3.2-5-3.2-5 0s5 3.2 5 0zm-7-2.7c0-3.2-5-3.2-5 0 0 3.3 5 3.3 5 0zm-5.3-6.6c0-3.2-5-3.2-5 0s5 3.2 5 0zm-11 5.5c0 3.2 5 3.2 5 0s-5-3.2-5 0zm6.2 6.9c0 .1 0 .1 0 0l5 .1v-.1c0-3.2-5-3.2-5 0zm-7.9.1h4.1c-.9-1.3-3.1-1.3-4.1 0zm-23.7-123.3c0 3.2 5 3.2 5 0s-5-3.3-5 0zm12 .9c0-3.2-5-3.2-5 0s5 3.2 5 0zm-8.6 5.6c0 3.2 5 3.2 5 0s-5-3.2-5 0zm6.9 0c0 3.2 5 3.2 5 0s-5-3.2-5 0zm3 5.9c0 3.2 5 3.2 5 0s-5-3.2-5 0zm4.2-5.4c0 3.2 5 3.2 5 0s-5-3.2-5 0zm3.2 6.7c0 3.2 5 3.2 5 0s-5-3.2-5 0zm9.9-3.8c0-3.2-5-3.2-5 0s5 3.2 5 0zm7 1c0-3.2-5-3.2-5 0s5 3.2 5 0zm1.5-2.7c0 3.2 5 3.2 5 0s-5-3.2-5 0zm6.2-4.6c0 3.2 5 3.2 5 0 0-3.3-5-3.3-5 0zm52.3 24.4c0 2.6 4 2.6 4 0 0-2.5-4-2.5-4 0zm-17.8-9.9c0 2.6 4 2.6 4 0s-4-2.6-4 0zm5.5 2.3c0 1.9 3 1.9 3 0s-3-1.9-3 0zm8.3 4.9c0 1.9 3 1.9 3 0s-3-1.9-3 0zm-3.9-2.6c0 1.3 2 1.3 2 0 0-1.2-2-1.2-2 0zm-88.3-172c0-3.2-5-3.2-5 0 0 3.3 5 3.3 5 0zm-3.6-7.5c0-3.2-5-3.2-5 0s5 3.2 5 0zm-13.1-1c0 3.2 5 3.2 5 0 0-3.3-5-3.3-5 0zm7.1-7.6c0-3.2-5-3.2-5 0s5 3.2 5 0zm-13.8 2.4c0 3.2 5 3.2 5 0 0-3.3-5-3.3-5 0zm7.8-8.9c0-3.2-5-3.2-5 0s5 3.2 5 0zm-9.1-4.9c0-3.2-5-3.2-5 0s5 3.2 5 0zm2.4 7c0-3.2-5-3.2-5 0s5 3.2 5 0zm-5.8 5.2c0-3.2-5-3.2-5 0s5 3.2 5 0zm-2-7c0-3.2-5-3.2-5 0s5 3.2 5 0zm-7.3.2c0-3.2-5-3.2-5 0 0 3.3 5 3.3 5 0zm1.8 7.3c0-3.2-5-3.2-5 0s5 3.2 5 0zm-7.8.5c0-3.2-5-3.2-5 0 0 3.3 5 3.3 5 0zm.5 7.1c0-3.2-5-3.2-5 0s5 3.2 5 0zm-12.3-1.9c0 3.2 5 3.2 5 0s-5-3.2-5 0zm3.2 8.6c0 3.2 5 3.2 5 0s-5-3.2-5 0zm-3.2 6.8c0 3.2 5 3.2 5 0 0-3.3-5-3.3-5 0zm-3.3-8.3c0 3.2 5 3.2 5 0 0-3.3-5-3.3-5 0zm-2.1-5c0-3.2-5-3.2-5 0s5 3.2 5 0zm-2.1 10.7c0 3.2 5 3.2 5 0 0-3.3-5-3.3-5 0zm3.6 8.8c0 3.2 5 3.2 5 0s-5-3.2-5 0zm-1.2 4.4c0-3.2-5-3.2-5 0 0 3.3 5 3.3 5 0zm-9.1-23.9c0-3.2-5-3.2-5 0s5 3.2 5 0zm-.1 6.3c0 3.2 5 3.2 5 0 0-3.3-5-3.3-5 0zm1.1 9.6c0 3.2 5 3.2 5 0 0-3.3-5-3.3-5 0zm-7-5.5c0 3.2 5 3.2 5 0s-5-3.2-5 0zm-4.1-11.2c0-3.2-5-3.2-5 0 0 3.3 5 3.3 5 0zm4.9 5c0-3.2-5-3.2-5 0s5 3.2 5 0zm-9.1 1.3c0-3.2-5-3.2-5 0s5 3.2 5 0zm5.7 5.4c0-3.2-5-3.2-5 0 0 3.3 5 3.3 5 0zm-13 2.1c0 3.2 5 3.2 5 0s-5-3.2-5 0zm-2.6 3.1c0-3.2-5-3.2-5 0 0 3.3 5 3.3 5 0zm0 7.3c0-3.2-5-3.2-5 0s5 3.2 5 0zm-7-6.2c0-3.2-5-3.2-5 0s5 3.2 5 0zm-1.1 13.2c0 3.2 5 3.2 5 0s-5-3.2-5 0zm-3.9-6.2c0 3.2 5 3.2 5 0s-5-3.2-5 0zm-6.8-10.7c0 3.2 5 3.2 5 0s-5-3.2-5 0zm-.5 7.6c0 3.2 5 3.2 5 0 0-3.3-5-3.3-5 0zm7.3 31.7c0 3.2 5 3.2 5 0s-5-3.2-5 0zm.8 5.2c0-3.2-5-3.2-5 0s5 3.2 5 0zm-.2-10.7c0-3.2-5-3.2-5 0s5 3.2 5 0zm5.2-5.2c0-3.2-5-3.2-5 0 0 3.3 5 3.3 5 0zm-2.1-7.3c0-3.2-5-3.2-5 0 0 3.3 5 3.3 5 0zm-6.5 3.9c0-3.2-5-3.2-5 0 0 3.3 5 3.3 5 0zm-3.7-8.8c0 3.2 5 3.2 5 0s-5-3.2-5 0zm-2.8-15.6c0-3.2-5-3.2-5 0s5 3.2 5 0zm.5 10.7c0-3.2-5-3.2-5 0s5 3.2 5 0zm-5.5 9.3c0 3.2 5 3.2 5 0s-5-3.2-5 0zm-7-13.2c0 3.2 5 3.2 5 0 0-3.3-5-3.3-5 0zm-.8 7.8c0 3.2 5 3.2 5 0 0-3.3-5-3.3-5 0zm5 8.8c0-3.2-5-3.2-5 0s5 3.2 5 0zm-7.3-13.3c0-3.2-5-3.2-5 0s5 3.3 5 0zm-4.4 9.1c0 3.2 5 3.2 5 0s-5-3.2-5 0zm5.5 9.9c0-3.2-5-3.2-5 0 0 3.3 5 3.3 5 0zm-13.9-23.4c0 3.2 5 3.2 5 0s-5-3.2-5 0zm1.3 8.6c0 3.2 5 3.2 5 0s-5-3.2-5 0zm5 8.8c0-3.2-5-3.2-5 0 0 3.3 5 3.3 5 0zm2.1 11.2c0-3.2-5-3.2-5 0s5 3.2 5 0zm-7.3-2.3c0-3.2-5-3.2-5 0s5 3.2 5 0zm-4.1-8.9c0-3.2-5-3.2-5 0 0 3.3 5 3.3 5 0zm-2.7-8c0 3.2 5 3.2 5 0s-5-3.2-5 0zm-.5-15.9c0 3.2 5 3.2 5 0s-5-3.2-5 0zm-.5-6.5c0-3.2-5-3.2-5 0 0 3.3 5 3.3 5 0zm-8-.5c0-3.2-5-3.2-5 0s5 3.2 5 0zm-12 5.2c0 3.2 5 3.2 5 0s-5-3.2-5 0zm10.9 1.3c0 3.2 5 3.2 5 0s-5-3.2-5 0zm8 7.8c0 3.2 5 3.2 5 0s-5-3.2-5 0zm-3.3-.8c0-3.2-5-3.2-5 0 0 3.3 5 3.3 5 0zm2.9 6.8c0-3.2-5-3.2-5 0s5 3.2 5 0zm-6.8 6.7c0 3.2 5 3.2 5 0s-5-3.2-5 0zm-7.1-1.8c0 3.2 5 3.2 5 0s-5-3.2-5 0zm-6.2 3.9c0 3.2 5 3.2 5 0s-5-3.2-5 0zm2.1-17.6c0-3.2-5-3.2-5 0s5 3.2 5 0zm-4.6 5.7c0-3.2-5-3.2-5 0s5 3.2 5 0zm-11 4.9c0 3.2 5 3.2 5 0s-5-3.2-5 0zm14.6 13.3c0-3.2-5-3.2-5 0s5 3.2 5 0zm-3.4 6.7c0-3.2-5-3.2-5 0s5 3.2 5 0zm8.5-24.4c0 3.2 5 3.2 5 0s-5-3.2-5 0zm-.2-8.3c0 3.2 5 3.2 5 0 0-3.3-5-3.3-5 0zm-2 9.8c0-3.2-5-3.2-5 0 0 3.3 5 3.3 5 0zm-5.2 6.3c0-3.2-5-3.2-5 0s5 3.2 5 0zm-9.7 7c0 3.2 5 3.2 5 0s-5-3.2-5 0zm-1.8 29.6c0-3.2-5-3.2-5 0 0 3.3 5 3.3 5 0zm-1.1-7.8c0 3.2 5 3.2 5 0s-5-3.2-5 0zm1.1-7.8c0 3.2 5 3.2 5 0s-5-3.2-5 0zm2.9-7.2c0-3.2-5-3.2-5 0s5 3.2 5 0zm-7.1-11.2c0 3.2 5 3.2 5 0s-5-3.2-5 0zm184.3-20c0 3.2 5 3.2 5 0 0-3.3-5-3.3-5 0zm7 2.3c0 3.2 5 3.2 5 0s-5-3.2-5 0zm-.4 4.9c0-3.2-5-3.2-5 0 0 3.3 5 3.3 5 0zm5.9.8c0 3.2 5 3.2 5 0s-5-3.2-5 0zm-11.4 6c0 3.2 5 3.2 5 0s-5-3.2-5 0zm24.4 0c0-3.2-5-3.2-5 0s5 3.2 5 0zm-19.4 8.1c0-3.2-5-3.2-5 0s5 3.2 5 0zm3.3-7.1c0 3.2 5 3.2 5 0s-5-3.2-5 0zm10.9 4.5c0-3.2-5-3.2-5 0s5 3.2 5 0zm7.3 5.9c0-3.2-5-3.2-5 0 0 3.3 5 3.3 5 0zm-26.8 5.2c0 3.2 5 3.2 5 0s-5-3.2-5 0zm12.5-6.2c0-3.2-5-3.2-5 0s5 3.2 5 0zm2.3 4.2c0 3.2 5 3.2 5 0 0-3.3-5-3.3-5 0zm-11.4 9.6c0 3.2 5 3.2 5 0s-5-3.2-5 0zm9.9-6.5c0-3.2-5-3.2-5 0s5 3.2 5 0zm3.1 9.6c0-3.2-5-3.2-5 0s5 3.2 5 0zm11.5 4.4c0-3.2-5-3.2-5 0s5 3.2 5 0zm-4.5-6.5c0-3.2-5-3.2-5 0s5 3.2 5 0zm3.4-6.5c0-3.2-5-3.2-5 0s5 3.2 5 0zm3.4 6.3c0-3.2-5-3.2-5 0s5 3.2 5 0zm-61.9-93.9c0 3.2 5 3.2 5 0s-5-3.2-5 0zm-7.9 0c0 3.2 5 3.2 5 0s-5-3.2-5 0zm-5.5 4.3c0 3.2 5 3.2 5 0s-5-3.2-5 0zm-4.6 5.1c0 3.2 5 3.2 5 0 0-3.3-5-3.3-5 0zm-6.3 4.4c0 3.2 5 3.2 5 0s-5-3.2-5 0zm-1.3 4.1c0-3.2-5-3.2-5 0s5 3.2 5 0zm-10.3-5.3c0 3.2 5 3.2 5 0s-5-3.2-5 0zm.9 5.5c0-3.2-5-3.2-5 0s5 3.2 5 0zm-11.7-2.9c0 3.2 5 3.2 5 0s-5-3.2-5 0zm.4 5.1c0-3.2-5-3.2-5 0s5 3.2 5 0zm-7.3.4c0-3.2-5-3.2-5 0 0 3.3 5 3.3 5 0zm-10.1 5.1c0 3.2 5 3.2 5 0s-5-3.2-5 0zm-1.9.2c0-3.2-5-3.2-5 0s5 3.2 5 0zm-10.5-5.9c0 3.2 5 3.2 5 0s-5-3.2-5 0zm-1.9 2.7c0-3.2-5-3.2-5 0s5 3.2 5 0zm-3.6-7.6c0 3.2 5 3.2 5 0s-5-3.2-5 0zm-6.5-4.2c0 3.2 5 3.2 5 0s-5-3.2-5 0zm-1.4 6.7c0 3.2 5 3.2 5 0s-5-3.2-5 0zm1.2 5.7c0-3.2-5-3.2-5 0s5 3.2 5 0zm-7.7-1.5c0-3.2-5-3.2-5 0 0 3.3 5 3.3 5 0zm-.2-6.4c0 3.2 5 3.2 5 0 0-3.3-5-3.3-5 0zm1.6-7.2c0 3.2 5 3.2 5 0s-5-3.2-5 0zm-2.9-1.6c0-3.2-5-3.2-5 0s5 3.2 5 0zm-5.2 7.3c0 3.2 5 3.2 5 0s-5-3.2-5 0zm-1.1 4.5c0-3.2-5-3.2-5 0s5 3.2 5 0zm-.8-13.8c0-3.2-5-3.2-5 0s5 3.2 5 0zm-5.4 6.7c0 3.2 5 3.2 5 0s-5-3.2-5 0zm-7.3-.4c0 3.2 5 3.2 5 0s-5-3.2-5 0zm2.4 5.9c0 3.2 5 3.2 5 0s-5-3.3-5 0zm-7.5-1.4c0 3.2 5 3.2 5 0 0-3.3-5-3.3-5 0zm-5.7 4.4c0 3.2 5 3.2 5 0 0-3.3-5-3.3-5 0zm157.9-4c0 3.2 5 3.2 5 0s-5-3.2-5 0zm10.1 4.5c0-3.2-5-3.2-5 0s5 3.2 5 0zm6.8 1.9c0-3.2-5-3.2-5 0 0 3.3 5 3.3 5 0zm-.9 5.9c0 3.2 5 3.2 5 0 0-3.3-5-3.3-5 0zm11.8 3.4c0-3.2-5-3.2-5 0 0 3.3 5 3.3 5 0zM207.8 342c0-3.2-5-3.2-5 0 0 3.3 5 3.3 5 0zm38.3-19.9c0 3.2 5 3.2 5 0s-5-3.2-5 0zm-7.3 3.4c0 3.2 5 3.2 5 0 0-3.3-5-3.3-5 0zm-5.1 5.3c0 3.2 5 3.2 5 0 0-3.3-5-3.3-5 0zm-.5 10.6c0-3.2-5-3.2-5 0s5 3.2 5 0zm0-6.7c0-3.2-5-3.2-5 0s5 3.3 5 0zm-12 4.7c0 3.2 5 3.2 5 0s-5-3.2-5 0zm3 6.6c0-3.2-5-3.2-5 0s5 3.2 5 0zm-7.1 3.7c0-3.2-5-3.2-5 0s5 3.2 5 0zm0-7.5c0-3.2-5-3.2-5 0s5 3.2 5 0zm78.3-46.9c0-3.2-5-3.2-5 0s5 3.2 5 0zm-11.8 4c0 3.2 5 3.2 5 0 0-3.3-5-3.3-5 0zm6.3-9c0-3.2-5-3.2-5 0s5 3.2 5 0zm-12.5 5c0 3.2 5 3.2 5 0s-5-3.2-5 0zm.5-8.6c0 3.2 5 3.2 5 0 0-3.3-5-3.3-5 0zm-6.4 4.8c0 3.2 5 3.2 5 0 0-3.3-5-3.3-5 0zm-5-6.2c0 3.2 5 3.2 5 0s-5-3.2-5 0zm-3.8 5.7c0 3.2 5 3.2 5 0 0-3.3-5-3.3-5 0zm-5-6.8c0 3.2 5 3.2 5 0 0-3.3-5-3.3-5 0zm-5.3 4.5c0 3.2 5 3.2 5 0 0-3.3-5-3.3-5 0zm-.5-7.5c0 3.2 5 3.2 5 0s-5-3.2-5 0zm-1.1 8.6c0-3.2-5-3.2-5 0s5 3.2 5 0zm-.4-7.3c0-3.2-5-3.2-5 0s5 3.2 5 0zm1-8.8c0-3.2-5-3.2-5 0 0 3.3 5 3.3 5 0zm-3.1-7.6c0-3.2-5-3.2-5 0s5 3.2 5 0zm-4-6.3c0-3.2-5-3.2-5 0s5 3.2 5 0zm-11.8-1.3c0 3.2 5 3.2 5 0 0-3.3-5-3.3-5 0zm-5.3 5.8c0 3.2 5 3.2 5 0s-5-3.2-5 0zm8 1c0 3.2 5 3.2 5 0 0-3.3-5-3.3-5 0zm9.6 6.1c0-3.2-5-3.2-5 0s5 3.2 5 0zm-5 7c0 3.2 5 3.2 5 0s-5-3.3-5 0zm-.7 8.6c0 3.2 5 3.2 5 0s-5-3.2-5 0zm-4.6 6c0 3.2 5 3.2 5 0s-5-3.3-5 0zm-10.8-21.9c0 3.2 5 3.2 5 0s-5-3.2-5 0zm13.1.6c0-3.2-5-3.2-5 0 0 3.3 5 3.3 5 0zm-3 10.8c0 3.2 5 3.2 5 0s-5-3.2-5 0zm-13.2-4.1c0 3.2 5 3.2 5 0s-5-3.3-5 0zm12.4-.9c0-3.2-5-3.2-5 0 0 3.3 5 3.3 5 0zm-11.1 7.5c0-3.2-5-3.2-5 0s5 3.2 5 0zm3.5-1c0 3.2 5 3.2 5 0s-5-3.2-5 0zm5.3 4c0 3.2 5 3.2 5 0s-5-3.2-5 0zm-8.5 1.5c0 3.2 5 3.2 5 0s-5-3.2-5 0zm10.5 5.3c0-3.2-5-3.2-5 0s5 3.2 5 0zm-8 6.1c0 3.2 5 3.2 5 0s-5-3.2-5 0zm-4.6-5.8c0 3.2 5 3.2 5 0s-5-3.2-5 0zm-1.3-3.8c0-3.2-5-3.2-5 0s5 3.2 5 0zm-1.7 7.5c0-3.2-5-3.2-5 0s5 3.2 5 0zm6.3 4.1c0-3.2-5-3.2-5 0s5 3.2 5 0zm-2.8 6.6c0-3.2-5-3.2-5 0s5 3.3 5 0zm-11.6-5.8c0-3.2-5-3.2-5 0 0 3.3 5 3.3 5 0zm4.1 11.6c0-3.2-5-3.2-5 0 0 3.3 5 3.3 5 0zm-3.1-8.1c0 3.2 5 3.2 5 0s-5-3.2-5 0zm-3.7 4c0-3.2-5-3.2-5 0s5 3.2 5 0zm-12.1-2.5c0 3.2 5 3.2 5 0s-5-3.2-5 0zm7.2 7.1c0-3.2-5-3.2-5 0 0 3.3 5 3.3 5 0zm-8.7-3.1c0-3.2-5-3.2-5 0s5 3.2 5 0zm-7.8-1.2c0-3.2-5-3.2-5 0 0 3.3 5 3.3 5 0zm-7.7-1.1c0-3.2-5-3.2-5 0s5 3.2 5 0zm-23.4-9.6c0 3.2 5 3.2 5 0s-5-3.3-5 0zm2.5-6.2c0-3.2-5-3.2-5 0s5 3.2 5 0zm-7.2 2.2c0-3.2-5-3.2-5 0s5 3.2 5 0zm2.2-8c0-3.2-5-3.2-5 0s5 3.2 5 0zm-7.5-1.6c0-3.2-5-3.2-5 0s5 3.2 5 0zm-6.5 6.8c0 3.2 5 3.2 5 0 0-3.3-5-3.3-5 0zm-6.8.8c0 3.2 5 3.2 5 0s-5-3.2-5 0zm-2.1 6.1c0 3.2 5 3.2 5 0s-5-3.2-5 0zm179.4-43.4c0-3.2-5-3.2-5 0s5 3.2 5 0zm-.5 7.4c0-3.2-5-3.2-5 0 0 3.3 5 3.3 5 0zm7.3-4.4c0-3.2-5-3.2-5 0s5 3.2 5 0zm-5.8 7.9c0 3.2 5 3.2 5 0s-5-3.2-5 0zm7.4 4.2c0 3.2 5 3.2 5 0s-5-3.3-5 0zm5.2-7.5c0-3.2-5-3.2-5 0s5 3.2 5 0zm.2-8c0-3.2-5-3.2-5 0 0 3.3 5 3.3 5 0zm-25.6-3.4c0 3.2 5 3.2 5 0 0-3.3-5-3.3-5 0zm8.7-6.7c0-3.2-5-3.2-5 0 0 3.3 5 3.3 5 0zm-.4-7.8c0-3.2-5-3.2-5 0 0 3.3 5 3.3 5 0zm-6.9 8.7c0-3.2-5-3.2-5 0s5 3.2 5 0zm1.1-17.8c0 3.2 5 3.2 5 0s-5-3.2-5 0zm-5.1 4.8c0 3.2 5 3.2 5 0s-5-3.2-5 0zm2.8 6.7c0-3.2-5-3.2-5 0s5 3.2 5 0zm-10.3-7.5c0 3.2 5 3.2 5 0s-5-3.2-5 0zm4 12.9c0-3.2-5-3.2-5 0 0 3.3 5 3.3 5 0zm-6.3-7.1c0 3.2 5 3.2 5 0s-5-3.2-5 0zM268.7 252c0 3.2 5 3.2 5 0s-5-3.2-5 0zm12.4-4.6c0-3.2-5-3.2-5 0s5 3.2 5 0zm-10.8-2.2c0-3.2-5-3.2-5 0s5 3.2 5 0zm-6.3-9.3c0 3.2 5 3.2 5 0s-5-3.2-5 0zm13.1 6.7c0-3.2-5-3.2-5 0s5 3.2 5 0zm.5-6.3c0 3.2 5 3.2 5 0 0-3.3-5-3.3-5 0zm-6.8-3.4c0 3.2 5 3.2 5 0s-5-3.2-5 0zm-4-6.3c0 3.2 5 3.2 5 0s-5-3.2-5 0zm4.5-7.3c0-3.2-5-3.2-5 0 0 3.3 5 3.3 5 0zm-5.5-8.2c0 3.2 5 3.2 5 0 0-3.3-5-3.3-5 0zm6.7-8.5c0-3.2-5-3.2-5 0s5 3.2 5 0zm-7.5 1.3c0-3.2-5-3.2-5 0s5 3.2 5 0zm7.2-9.4c0-3.2-5-3.2-5 0s5 3.2 5 0zm-.9-8c0-3.2-5-3.2-5 0s5 3.2 5 0zm-5.4 10.5c0-3.2-5-3.2-5 0s5 3.2 5 0zm-1.2-7.5c0-3.2-5-3.2-5 0s5 3.2 5 0zm4.1-9.5c0-3.2-5-3.2-5 0 0 3.3 5 3.3 5 0zm-11.3-3.4c0 3.2 5 3.2 5 0 0-3.3-5-3.3-5 0zm-7.7 1c0 3.2 5 3.2 5 0s-5-3.3-5 0zm11.1 5.8c0-3.2-5-3.2-5 0s5 3.2 5 0zm-8.8 1c0-3.2-5-3.2-5 0s5 3.2 5 0zm-1.3 7.4c0-3.2-5-3.2-5 0s5 3.2 5 0zm6.9-1.5c0-3.2-5-3.2-5 0s5 3.2 5 0zm.9 7c0-3.2-5-3.2-5 0s5 3.2 5 0zm-14.3 1.6c0 3.2 5 3.2 5 0s-5-3.2-5 0zm1.5 6.5c0-3.2-5-3.2-5 0s5 3.2 5 0zm-10.8 4.8c0 3.2 5 3.2 5 0s-5-3.2-5 0zm20.1-6.6c0-3.2-5-3.2-5 0s5 3.2 5 0zm-3.7 7c0-3.2-5-3.2-5 0s5 3.2 5 0zm-8.9 6.4c0 3.2 5 3.2 5 0s-5-3.2-5 0zm-4 7.1c0 3.2 5 3.2 5 0s-5-3.2-5 0zm.8-6.4c0-3.2-5-3.2-5 0s5 3.2 5 0zm-6.4-8.3c0-3.2-5-3.2-5 0s5 3.2 5 0zm.3 12.1c0-3.2-5-3.2-5 0s5 3.2 5 0zm-9.1-6.3c0 3.2 5 3.2 5 0s-5-3.2-5 0zm1.8-8.5c0-3.2-5-3.2-5 0s5 3.3 5 0zm-5.3-6.6c0-3.2-5-3.2-5 0s5 3.2 5 0zm-11 5.5c0 3.2 5 3.2 5 0s-5-3.2-5 0zm15.5 16.6c0-3.2-5-3.2-5 0s5 3.2 5 0zm-9.3-9.7c0 3.2 5 3.2 5 0s-5-3.2-5 0zm-8.3 1.5c0 3.2 5 3.2 5 0s-5-3.2-5 0zm5.1 6.7c0 3.2 5 3.2 5 0 0-3.3-5-3.3-5 0zm-.2 8.3c0 3.2 5 3.2 5 0 0-3.3-5-3.3-5 0zm-7.1-5.7c0 3.2 5 3.2 5 0s-5-3.2-5 0zm-.6 8.5c0 3.2 5 3.2 5 0s-5-3.2-5 0zm3.9 6.1c0 3.2 5 3.2 5 0s-5-3.2-5 0zm-1.4 3.7c0-3.2-5-3.2-5 0s5 3.2 5 0zm4.1 6.6c0-3.2-5-3.2-5 0s5 3.2 5 0zm-7.4 1.7c0-3.2-5-3.2-5 0s5 3.2 5 0zm6.1 5.3c0-3.2-5-3.2-5 0s5 3.2 5 0zm-11.6 2.4c0 3.2 5 3.2 5 0s-5-3.2-5 0zm7.8 7c0-3.2-5-3.2-5 0s5 3.2 5 0zm-15.3-7.6c0 3.2 5 3.2 5 0s-5-3.2-5 0zm7.5 6.6c0-3.2-5-3.2-5 0s5 3.2 5 0zm-.5 7.1c0-3.2-5-3.2-5 0 0 3.3 5 3.3 5 0zm-15-11.7c0 3.2 5 3.2 5 0 0-3.3-5-3.3-5 0zm3.5 6.4c0 3.2 5 3.2 5 0s-5-3.2-5 0zm4.5 7.7c0-3.2-5-3.2-5 0s5 3.2 5 0zm-7.4 1.8c0-3.2-5-3.2-5 0s5 3.2 5 0zm-12.2-2c0 3.2 5 3.2 5 0s-5-3.2-5 0zm-4.3-6.8c0 3.2 5 3.2 5 0s-5-3.2-5 0zm11.6 1c0 3.2 5 3.2 5 0s-5-3.2-5 0zm-4.3-6.6c0 3.2 5 3.2 5 0 0-3.3-5-3.3-5 0zm-6.8-1.9c0 3.2 5 3.2 5 0s-5-3.2-5 0zm-3.8-7.4c0 3.2 5 3.2 5 0s-5-3.2-5 0zm-5.1-5.3c0 3.2 5 3.2 5 0 0-3.3-5-3.3-5 0zm6.6-7.3c0-3.2-5-3.2-5 0s5 3.2 5 0zm-4.7-8.2c0 3.2 5 3.2 5 0s-5-3.2-5 0zm1-7.6c0 3.2 5 3.2 5 0s-5-3.2-5 0zm1-7.1c0 3.2 5 3.2 5 0s-5-3.2-5 0zm-7.8 10.1c0 3.2 5 3.2 5 0s-5-3.2-5 0zm4.1 8.6c0-3.2-5-3.2-5 0 0 3.3 5 3.3 5 0zm-1.2 6.8c0-3.2-5-3.2-5 0 0 3.3 5 3.3 5 0zM152 246c0-3.2-5-3.2-5 0 0 3.3 5 3.3 5 0zm-4.6-15.7c0 3.2 5 3.2 5 0s-5-3.2-5 0zm-.8 7.6c0 3.2 5 3.2 5 0s-5-3.2-5 0zm-1.6 5.3c0-3.2-5-3.2-5 0s5 3.2 5 0zm-4.3-7.6c0 3.2 5 3.2 5 0s-5-3.2-5 0zM139 228c0 3.2 5 3.2 5 0 0-3.3-5-3.3-5 0zm-.5-5.5c0-3.2-5-3.2-5 0s5 3.2 5 0zm-9.5-6.3c0 3.2 5 3.2 5 0s-5-3.2-5 0zm-.9 5.5c0-3.2-5-3.2-5 0s5 3.2 5 0zm10.8 17c0-3.2-5-3.2-5 0 0 3.3 5 3.3 5 0zm-1.5-7.9c0-3.2-5-3.2-5 0s5 3.2 5 0zm-10.2-4.2c0 3.2 5 3.2 5 0s-5-3.2-5 0zm-6.4 2.9c0 3.2 5 3.2 5 0 0-3.3-5-3.3-5 0zm6.3 5.1c0 3.2 5 3.2 5 0s-5-3.2-5 0zm3 7.3c0-3.2-5-3.2-5 0s5 3.2 5 0zm-10.5-4.7c0 3.2 5 3.2 5 0s-5-3.2-5 0zm3.7 7.5c0-3.2-5-3.2-5 0s5 3.2 5 0zm.3 8c0-3.2-5-3.2-5 0s5 3.2 5 0zm-6.3-3.2c0-3.2-5-3.2-5 0s5 3.2 5 0zm-7.2 6.2c0 3.2 5 3.2 5 0 0-3.3-5-3.3-5 0zm6.8 3.4c0 3.2 5 3.2 5 0s-5-3.2-5 0zm-1.9 8.3c0 3.2 5 3.2 5 0s-5-3.2-5 0zm1 6.7c0-3.2-5-3.2-5 0s5 3.2 5 0zm-6-12c0 3.2 5 3.2 5 0s-5-3.2-5 0zm4 6.5c0-3.2-5-3.2-5 0s5 3.2 5 0zm75.2-179.3c0-3.2-5-3.2-5 0s5 3.2 5 0zm7 .9c0-3.2-5-3.2-5 0s5 3.2 5 0zm-8.6 5.6c0 3.2 5 3.2 5 0s-5-3.2-5 0zm6.9 0c0 3.2 5 3.2 5 0s-5-3.2-5 0zm3 6c0 3.2 5 3.2 5 0 0-3.3-5-3.3-5 0zm4.2-5.5c0 3.2 5 3.2 5 0s-5-3.2-5 0zm3.2 6.7c0 3.2 5 3.2 5 0s-5-3.2-5 0zm9.9-3.8c0-3.2-5-3.2-5 0s5 3.2 5 0zm7 1c0-3.2-5-3.2-5 0s5 3.2 5 0zm6.5-2.7c0-3.2-5-3.2-5 0s5 3.2 5 0zm6.2-4.6c0-3.2-5-3.2-5 0s5 3.2 5 0zm-74.2 212.5c0 2.6 4 2.6 4 0s-4-2.6-4 0zm9.6 3c0-2.6-4-2.6-4 0 0 2.5 4 2.5 4 0zm111.9-191c0 2.6 4 2.6 4 0s-4-2.6-4 0zm-17.8-10c0 2.6 4 2.6 4 0s-4-2.6-4 0zm5.5 2.3c0 1.9 3 1.9 3 0s-3-1.9-3 0zm8.3 5c0 1.9 3 1.9 3 0 0-2-3-2-3 0zm-1.9-2.7c0-1.3-2-1.3-2 0s2 1.3 2 0zM214.4 1.6c0-.7-.2-1.2-.6-1.6H210c-.4.4-.6.9-.6 1.6 0 3.3 5 3.3 5 0zm99.7 127.8c0-3.2-5-3.2-5 0 0 3.3 5 3.3 5 0zm38.3-19.9c0 3.2 5 3.2 5 0s-5-3.2-5 0zm-7.3 3.4c0 3.2 5 3.2 5 0 0-3.3-5-3.3-5 0zm-5.1 5.3c0 3.2 5 3.2 5 0 0-3.3-5-3.3-5 0zm-.5 10.6c0-3.2-5-3.2-5 0s5 3.2 5 0zm0-6.7c0-3.2-5-3.2-5 0 0 3.3 5 3.3 5 0zm-7 4.7c0-3.2-5-3.2-5 0s5 3.2 5 0zm-7 6.6c0 3.2 5 3.2 5 0s-5-3.2-5 0zm-7.1 3.7c0 3.2 5 3.2 5 0 0-3.3-5-3.3-5 0zm5-7.5c0-3.2-5-3.2-5 0s5 3.2 5 0zm73.3-46.9c0 3.2 5 3.2 5 0s-5-3.2-5 0zm-6.8 4c0 3.2 5 3.2 5 0 0-3.3-5-3.3-5 0zm1.3-9c0 3.2 5 3.2 5 0s-5-3.2-5 0zm-7.5 5c0 3.2 5 3.2 5 0s-5-3.2-5 0zm.5-8.6c0 3.2 5 3.2 5 0 0-3.3-5-3.3-5 0zm-6.4 4.8c0 3.2 5 3.2 5 0 0-3.3-5-3.3-5 0zm-5-6.2c0 3.2 5 3.2 5 0s-5-3.2-5 0zm-3.8 5.7c0 3.2 5 3.2 5 0 0-3.3-5-3.3-5 0zm-5-6.8c0 3.2 5 3.2 5 0s-5-3.2-5 0zm-5.3 4.5c0 3.2 5 3.2 5 0 0-3.3-5-3.3-5 0zm-.5-7.5c0 3.2 5 3.2 5 0s-5-3.2-5 0zm-1.1 8.6c0-3.2-5-3.2-5 0s5 3.2 5 0zm-.4-7.3c0-3.2-5-3.2-5 0s5 3.2 5 0zm-4-8.8c0 3.2 5 3.2 5 0s-5-3.2-5 0zm1.9-7.6c0-3.2-5-3.2-5 0s5 3.2 5 0zm-4-6.3c0-3.2-5-3.2-5 0s5 3.2 5 0zm-11.8-1.3c0 3.2 5 3.2 5 0 0-3.3-5-3.3-5 0zm-5.3 5.8c0 3.2 5 3.2 5 0s-5-3.2-5 0zm13 1c0-3.2-5-3.2-5 0s5 3.2 5 0zm4.6 6.1c0-3.2-5-3.2-5 0s5 3.2 5 0zm-5 7c0 3.2 5 3.2 5 0 0-3.3-5-3.3-5 0zm-.7 8.6c0 3.2 5 3.2 5 0s-5-3.2-5 0zm.4 6c0-3.2-5-3.2-5 0s5 3.2 5 0zM330 58.5c0 3.2 5 3.2 5 0s-5-3.2-5 0zm13.1.6c0-3.2-5-3.2-5 0 0 3.3 5 3.3 5 0zm-3 10.8c0 3.2 5 3.2 5 0s-5-3.2-5 0zm-13.2-4.1c0 3.2 5 3.2 5 0 0-3.3-5-3.3-5 0zm12.4-.9c0-3.2-5-3.2-5 0 0 3.3 5 3.3 5 0zm-11.1 7.5c0-3.2-5-3.2-5 0s5 3.2 5 0zm3.5-1c0 3.2 5 3.2 5 0s-5-3.2-5 0zm5.3 4c0 3.2 5 3.2 5 0s-5-3.2-5 0zm-3.5 1.5c0-3.2-5-3.2-5 0s5 3.2 5 0zm5.5 5.3c0-3.2-5-3.2-5 0s5 3.2 5 0zm-8 6.1c0 3.2 5 3.2 5 0s-5-3.2-5 0zm.4-5.8c0-3.2-5-3.2-5 0s5 3.2 5 0zm-6.3-3.8c0-3.2-5-3.2-5 0s5 3.2 5 0zm-6.7 7.5c0 3.2 5 3.2 5 0 0-3.3-5-3.3-5 0zm11.3 4.1c0-3.2-5-3.2-5 0s5 3.2 5 0zm-2.8 6.6c0-3.2-5-3.2-5 0 0 3.3 5 3.3 5 0zm-11.6-5.8c0-3.2-5-3.2-5 0s5 3.3 5 0zm-.9 11.6c0 3.2 5 3.2 5 0s-5-3.2-5 0zm1.9-8.1c0 3.2 5 3.2 5 0s-5-3.2-5 0zm-8.7 4c0 3.2 5 3.2 5 0s-5-3.2-5 0zm-7.1-2.5c0 3.2 5 3.2 5 0s-5-3.2-5 0zm7.2 7.1c0-3.2-5-3.2-5 0 0 3.3 5 3.3 5 0zm-8.7-3.1c0-3.2-5-3.2-5 0s5 3.2 5 0zm-7.8-1.2c0-3.2-5-3.2-5 0 0 3.3 5 3.3 5 0zm-12.7-1.1c0 3.2 5 3.2 5 0 0-3.3-5-3.3-5 0zM260 88.2c0 3.2 5 3.2 5 0 0-3.3-5-3.3-5 0zm2.6-6.2c0-3.2-5-3.2-5 0s5 3.2 5 0zm-7.2 2.2c0-3.2-5-3.2-5 0s5 3.2 5 0zm2.2-8c0-3.2-5-3.2-5 0s5 3.2 5 0zm-12.5-1.6c0 3.2 5 3.2 5 0 0-3.3-5-3.3-5 0zm-1.5 6.8c0 3.2 5 3.2 5 0 0-3.3-5-3.3-5 0zm-6.8.8c0 3.2 5 3.2 5 0s-5-3.2-5 0zm2.9 6.1c0-3.2-5-3.2-5 0s5 3.2 5 0zm174.4-43.4c0-3.2-5-3.2-5 0s5 3.2 5 0zm-.5 7.4c0-3.2-5-3.2-5 0 0 3.3 5 3.3 5 0zm2.3-4.4c0 3.2 5 3.2 5 0 0-3.3-5-3.3-5 0zm-.8 7.9c0 3.2 5 3.2 5 0s-5-3.2-5 0zm7.4 4.2c0 1.7 1.4 2.5 2.7 2.4v-4.8c-1.3-.1-2.7.7-2.7 2.4zm.2-7.5c0 1.6 1.2 2.4 2.5 2.4v-4.8c-1.2 0-2.5.8-2.5 2.4zm.2-8c0 1.5 1.1 2.3 2.3 2.4v-4.8c-1.2.1-2.3.9-2.3 2.4zm-20.6-3.4c0 3.2 5 3.2 5 0 0-3.3-5-3.3-5 0zm3.7-6.7c0 3.2 5 3.2 5 0s-5-3.2-5 0zm-.4-7.8c0 3.2 5 3.2 5 0s-5-3.2-5 0zm-6.9 8.7c0 3.2 5 3.2 5 0 0-3.3-5-3.3-5 0zm6.1-17.8c0 3.2 5 3.2 5 0s-5-3.2-5 0zm-5.1 4.8c0 3.2 5 3.2 5 0s-5-3.2-5 0zm-2.2 6.7c0 3.2 5 3.2 5 0s-5-3.3-5 0zm-.3-7.5c0-3.2-5-3.2-5 0s5 3.2 5 0zm-6 12.9c0 3.2 5 3.2 5 0s-5-3.2-5 0zm3.7-7.1c0-3.2-5-3.2-5 0s5 3.2 5 0zM380 39.4c0-3.2-5-3.2-5 0s5 3.2 5 0zm7.4-4.6c0-3.2-5-3.2-5 0s5 3.2 5 0zm-15.8-2.2c0 3.2 5 3.2 5 0s-5-3.2-5 0zm-1.3-9.3c0 3.2 5 3.2 5 0s-5-3.2-5 0zm8.1 6.7c0 3.2 5 3.2 5 0 0-3.3-5-3.3-5 0zm5.5-6.3c0 3.2 5 3.2 5 0 0-3.3-5-3.3-5 0zm-6.8-3.4c0 3.2 5 3.2 5 0s-5-3.2-5 0zm-4-6.3c0 3.2 5 3.2 5 0s-5-3.2-5 0zm-.5-7.3c0 3.2 5 3.2 5 0s-5-3.2-5 0zm4-6.7h-3.9c.9 1.2 2.9 1.2 3.9 0zm-32.3 0h-1c.3.1.7.1 1 0zm12.3 0h-2.8c.9.5 2 .5 2.8 0zm-2.8 4.4c0-3.2-5-3.2-5 0s5 3.2 5 0zm-9 7.2c0 3.2 5 3.2 5 0 0-3.3-5-3.3-5 0zm.8-6.5c0-3.2-5-3.2-5 0s5 3.2 5 0zm-6.1 3.8c0-3.2-5-3.2-5 0s5 3.2 5 0zm-9.1-6.3c0 3.2 5 3.2 5 0s-5-3.2-5 0zm1 7c0-3.2-5-3.2-5 0s5 3.2 5 0zM327.1 0h-5c0 3.1 4.9 3.1 5 0zm-8.3 1.4c0-.6-.2-1.1-.4-1.4h-4.1c-.3.4-.4.9-.4 1.4-.1 3.3 4.9 3.3 4.9 0zm5.1 6.7c0-3.2-5-3.2-5 0s5 3.2 5 0zm-5.2 8.3c0 3.2 5 3.2 5 0 0-3.3-5-3.3-5 0zm-2.1-5.7c0-3.2-5-3.2-5 0s5 3.2 5 0zm-5.6 8.5c0 3.2 5 3.2 5 0s-5-3.2-5 0zm8.9 6.1c0-3.2-5-3.2-5 0s5 3.2 5 0zM308.5 29c0 3.2 5 3.2 5 0s-5-3.3-5 0zm9.1 6.6c0-3.2-5-3.2-5 0s5 3.2 5 0zm-7.4 1.7c0-3.2-5-3.2-5 0s5 3.2 5 0zm1.1 5.3c0 3.2 5 3.2 5 0 0-3.3-5-3.3-5 0zm-1.6 2.4c0-3.2-5-3.2-5 0 0 3.3 5 3.3 5 0zm2.8 7c0-3.2-5-3.2-5 0s5 3.2 5 0zm-15.3-7.6c0 3.2 5 3.2 5 0s-5-3.2-5 0zm2.5 6.6c0 3.2 5 3.2 5 0s-5-3.2-5 0zm-.5 7.1c0 3.2 5 3.2 5 0s-5-3.2-5 0zm-5-11.7c0-3.2-5-3.2-5 0s5 3.2 5 0zm3.5 6.4c0-3.2-5-3.2-5 0 0 3.3 5 3.3 5 0zm-.5 7.7c0-3.2-5-3.2-5 0s5 3.2 5 0zm-7.4 1.8c0-3.2-5-3.2-5 0s5 3.2 5 0zm-12.2-2c0 3.2 5 3.2 5 0s-5-3.2-5 0zm-4.3-6.8c0 3.2 5 3.2 5 0s-5-3.2-5 0zm16.6 1c0-3.2-5-3.2-5 0s5 3.2 5 0zm-4.3-6.6c0-3.2-5-3.2-5 0s5 3.2 5 0zM273.8 46c0 3.2 5 3.2 5 0s-5-3.2-5 0zm1.2-7.4c0-3.2-5-3.2-5 0s5 3.2 5 0zm-10.1-5.3c0 3.2 5 3.2 5 0 0-3.3-5-3.3-5 0zm6.6-7.3c0-3.2-5-3.2-5 0s5 3.2 5 0zm-4.7-8.1c0 3.2 5 3.2 5 0 0-3.3-5-3.3-5 0zm6-7.7c0-3.2-5-3.2-5 0s5 3.2 5 0zm-4-7.1c0 3.2 5 3.2 5 0s-5-3.2-5 0zM261 13.2c0 3.2 5 3.2 5 0s-5-3.2-5 0zm-1 8.6c0 3.2 5 3.2 5 0s-5-3.2-5 0zm3.9 6.8c0-3.2-5-3.2-5 0 0 3.3 5 3.3 5 0zm-5.6 4.8c0-3.2-5-3.2-5 0 0 3.3 5 3.3 5 0zm-4.6-15.7c0 3.2 5 3.2 5 0s-5-3.2-5 0zm4.2 7.6c0-3.2-5-3.2-5 0s5 3.2 5 0zm-11.6 5.3c0 3.2 5 3.2 5 0s-5-3.2-5 0zm.7-7.6c0 3.2 5 3.2 5 0s-5-3.2-5 0zm-1.7-7.6c0 3.2 5 3.2 5 0 0-3.3-5-3.3-5 0zm-.5-5.5c0-3.2-5-3.2-5 0s5 3.2 5 0zm-9.5-6.3c0 3.2 5 3.2 5 0s-5-3.2-5 0zm-5.9 5.5c0 3.2 5 3.2 5 0 0-3.3-5-3.3-5 0zm15.8 17c0-3.2-5-3.2-5 0 0 3.3 5 3.3 5 0zm-1.5-7.9c0-3.2-5-3.2-5 0s5 3.2 5 0zM233.5 14c0 3.2 5 3.2 5 0s-5-3.2-5 0zm-6.4 2.9c0 3.2 5 3.2 5 0 0-3.3-5-3.3-5 0zm11.3 5.1c0-3.2-5-3.2-5 0s5 3.2 5 0zm-2 7.3c0-3.2-5-3.2-5 0s5 3.2 5 0zm-5.5-4.6c0-3.2-5-3.2-5 0s5 3.2 5 0zm-1.3 7.4c0-3.2-5-3.2-5 0s5 3.2 5 0zm.3 8c0-3.2-5-3.2-5 0s5 3.2 5 0zm-6.3-3.2c0-3.2-5-3.2-5 0s5 3.2 5 0zm-7.2 6.2c0 3.2 5 3.2 5 0 0-3.3-5-3.3-5 0zm11.8 3.4c0-3.2-5-3.2-5 0 0 3.3 5 3.3 5 0zm-1.9 8.3c0-3.2-5-3.2-5 0 0 3.3 5 3.3 5 0zm-4 6.7c0-3.2-5-3.2-5 0s5 3.2 5 0zm-6-12c0 3.2 5 3.2 5 0s-5-3.2-5 0zm4 6.5c0-3.2-5-3.2-5 0s5 3.2 5 0zm46.3 36.8c0 2.6 4 2.6 4 0s-4-2.6-4 0zm5.6 3c0 2.6 4 2.6 4 0s-4-2.6-4 0zm153 328.7c-.9-.2-1.9 0-2.6.7h2.6v-.7zm0-19.3v-2.5c-.2.3-.3.7-.3 1.2 0 .6.1 1 .3 1.3zm-2.4-12.4c0 1.6 1.2 2.4 2.4 2.4v-4.8c-1.2 0-2.4.8-2.4 2.4zm-2.8-248c0 3.2 5 3.2 5 0s-5-3.2-5 0zm5.2 6.2v-2.4c-.2.3-.3.7-.3 1.2 0 .4.1.8.3 1.2zm-9.4.1c0 3.2 5 3.2 5 0 0-3.3-5-3.3-5 0zm5.7 5.4c0 2.1 2.2 2.8 3.7 2.2v-4.3c-1.5-.7-3.7 0-3.7 2.1zm-8 2.1c0 3.2 5 3.2 5 0s-5-3.2-5 0zm-7.6 3.1c0 3.2 5 3.2 5 0s-5-3.2-5 0zm0 7.3c0 3.2 5 3.2 5 0s-5-3.2-5 0zm-7-6.2c0 3.2 5 3.2 5 0 0-3.3-5-3.3-5 0zm3.9 13.2c0 3.2 5 3.2 5 0s-5-3.2-5 0zm-3.9-6.2c0 3.2 5 3.2 5 0s-5-3.2-5 0zm-1.8-10.7c0-3.2-5-3.2-5 0 0 3.3 5 3.3 5 0zm-5.5 7.6c0 3.2 5 3.2 5 0 0-3.3-5-3.3-5 0zm7.3 31.7c0 3.2 5 3.2 5 0s-5-3.2-5 0zm-4.2 5.2c0 3.2 5 3.2 5 0s-5-3.2-5 0zm-.2-10.7c0 3.2 5 3.2 5 0s-5-3.2-5 0zm5.2-5.2c0 3.2 5 3.2 5 0s-5-3.2-5 0zm-2.1-7.3c0 3.2 5 3.2 5 0s-5-3.2-5 0zm-6.5 3.9c0 3.2 5 3.2 5 0s-5-3.2-5 0zm1.3-8.8c0 3.2 5 3.2 5 0s-5-3.2-5 0zm-2.8-15.6c0-3.2-5-3.2-5 0s5 3.2 5 0zm-4.5 10.7c0 3.2 5 3.2 5 0 0-3.3-5-3.3-5 0zm4.5 9.3c0-3.2-5-3.2-5 0 0 3.3 5 3.3 5 0zm-12-13.2c0 3.2 5 3.2 5 0 0-3.3-5-3.3-5 0zm4.2 7.8c0-3.2-5-3.2-5 0s5 3.2 5 0zm0 8.8c0-3.2-5-3.2-5 0s5 3.2 5 0zm-7.3-13.3c0-3.2-5-3.2-5 0s5 3.3 5 0zm-4.4 9.1c0 3.2 5 3.2 5 0s-5-3.2-5 0zm5.5 9.9c0-3.2-5-3.2-5 0 0 3.3 5 3.3 5 0zm-13.9-23.4c0 3.2 5 3.2 5 0s-5-3.2-5 0zm6.3 8.6c0-3.2-5-3.2-5 0s5 3.2 5 0zm-5 8.8c0 3.2 5 3.2 5 0s-5-3.2-5 0zm7.1 11.2c0-3.2-5-3.2-5 0s5 3.2 5 0zm-12.3-2.3c0 3.2 5 3.2 5 0s-5-3.2-5 0zm-4.1-8.9c0 3.2 5 3.2 5 0s-5-3.2-5 0zm7.3-8c0-3.2-5-3.2-5 0s5 3.2 5 0zm-5.5-15.9c0 3.2 5 3.2 5 0s-5-3.2-5 0zm-.5-6.5c0-3.2-5-3.2-5 0 0 3.3 5 3.3 5 0zm-13-.5c0 3.2 5 3.2 5 0s-5-3.2-5 0zm-7 5.2c0 3.2 5 3.2 5 0s-5-3.2-5 0zm10.9 1.3c0 3.2 5 3.2 5 0s-5-3.2-5 0zm13 7.8c0-3.2-5-3.2-5 0s5 3.2 5 0zm-13.3-.8c0 3.2 5 3.2 5 0s-5-3.2-5 0zm2.9 6.8c0 3.2 5 3.2 5 0s-5-3.2-5 0zm-1.8 6.7c0 3.2 5 3.2 5 0s-5-3.2-5 0zm-2.1-1.8c0-3.2-5-3.2-5 0 0 3.3 5 3.3 5 0zm-6.2 3.9c0-3.2-5-3.2-5 0 0 3.3 5 3.3 5 0zm-2.9-17.6c0-3.2-5-3.2-5 0s5 3.2 5 0zm-9.6 5.7c0 3.2 5 3.2 5 0s-5-3.3-5 0zm-6 4.9c0 3.2 5 3.2 5 0s-5-3.2-5 0zm9.6 13.3c0 3.2 5 3.2 5 0 0-3.3-5-3.3-5 0zm1.6 6.7c0-3.2-5-3.2-5 0s5 3.2 5 0zm8.5-24.4c0 3.2 5 3.2 5 0s-5-3.2-5 0zm-.2-8.3c0 3.2 5 3.2 5 0 0-3.3-5-3.3-5 0zm-2 9.8c0-3.2-5-3.2-5 0 0 3.3 5 3.3 5 0zm-5.2 6.3c0-3.2-5-3.2-5 0s5 3.2 5 0zm-4.7 7c0-3.2-5-3.2-5 0s5 3.2 5 0zm-6.8 29.6c0-3.2-5-3.2-5 0 0 3.3 5 3.3 5 0zm-1.1-7.8c0 3.2 5 3.2 5 0s-5-3.2-5 0zm6.1-7.8c0-3.2-5-3.2-5 0 0 3.3 5 3.3 5 0zm-2.1-7.2c0-3.2-5-3.2-5 0s5 3.2 5 0zm-2.1-11.2c0-3.2-5-3.2-5 0s5 3.2 5 0zm101.7-59.7c0 1.4.9 2.2 2 2.4v-4.7c-1 .2-2 1-2 2.3zm-4.6 5.1c0 3.2 5 3.2 5 0s-5-3.2-5 0zm-2.3.4c0-3.2-5-3.2-5 0 0 3.3 5 3.3 5 0zm-10.1 5.1c0 3.2 5 3.2 5 0s-5-3.2-5 0zm-1.9.2c0-3.2-5-3.2-5 0s5 3.2 5 0zm-10.5-5.9c0 3.2 5 3.2 5 0s-5-3.2-5 0zm-1.9 2.7c0-3.2-5-3.2-5 0s5 3.2 5 0zm-3.6-7.6c0 3.2 5 3.2 5 0s-5-3.2-5 0zm-6.5-4.2c0 3.2 5 3.2 5 0s-5-3.2-5 0zm-1.4 6.7c0 3.2 5 3.2 5 0s-5-3.2-5 0zm1.2 5.7c0-3.2-5-3.2-5 0s5 3.2 5 0zm-12.8-1.5c0 3.2 5 3.2 5 0s-5-3.2-5 0zm9.9-6.4c0-3.2-5-3.2-5 0s5 3.2 5 0zm-3.4-7.2c0 3.2 5 3.2 5 0s-5-3.2-5 0zm-7.9-1.6c0 3.2 5 3.2 5 0s-5-3.2-5 0zm-.2 7.3c0 3.2 5 3.2 5 0s-5-3.2-5 0zm-6.1 4.5c0 3.2 5 3.2 5 0s-5-3.2-5 0zm-.8-13.8c0 3.2 5 3.2 5 0s-5-3.2-5 0zm-.4 6.7c0 3.2 5 3.2 5 0s-5-3.2-5 0zm-7.3-.4c0 3.2 5 3.2 5 0s-5-3.2-5 0zm7.4 5.9c0-3.2-5-3.2-5 0s5 3.2 5 0zm-12.5-1.4c0 3.2 5 3.2 5 0 0-3.3-5-3.3-5 0zm-.7 4.4c0-3.2-5-3.2-5 0s5 3.2 5 0zM415.4 342c0 3.2 5 3.2 5 0s-5-3.2-5 0zm9.8 9.2v-3c-.3.4-.5.9-.5 1.5s.2 1.1.5 1.5zm0-7.5v-3c-.3.4-.5.9-.5 1.5s.2 1.1.5 1.5zm0-43.4v-3c-.3.4-.5.9-.5 1.5s.2 1.1.5 1.5zm-8.6 3.4c0 3.2 5 3.2 5 0s-5-3.2-5 0zm4.1 11.6c0 2.6 3.2 3.1 4.5 1.6v-3.1c-1.3-1.5-4.5-1-4.5 1.5zm1.9-8.1c0 1.7 1.3 2.5 2.6 2.4v-4.8c-1.3 0-2.6.7-2.6 2.4zm-8.7 4c0 3.2 5 3.2 5 0s-5-3.2-5 0zm-2.1-2.5c0-3.2-5-3.2-5 0s5 3.2 5 0zm2.2 7.1c0-3.2-5-3.2-5 0 0 3.3 5 3.3 5 0zm-8.7-3.1c0-3.2-5-3.2-5 0s5 3.2 5 0zm-7.8-1.2c0-3.2-5-3.2-5 0 0 3.3 5 3.3 5 0zm-12.7-1.1c0 3.2 5 3.2 5 0 0-3.3-5-3.3-5 0zm-18.5-9.6c0 3.2 5 3.2 5 0s-5-3.3-5 0zm-2.4-6.2c0 3.2 5 3.2 5 0s-5-3.2-5 0zm-2.2 2.2c0-3.2-5-3.2-5 0s5 3.2 5 0zm-2.8-8c0 3.2 5 3.2 5 0s-5-3.2-5 0zm-7.5-1.6c0 3.2 5 3.2 5 0 0-3.3-5-3.3-5 0zm-1.5 6.8c0 3.2 5 3.2 5 0 0-3.3-5-3.3-5 0zm-6.8.8c0 3.2 5 3.2 5 0s-5-3.2-5 0zm2.9 6.1c0-3.2-5-3.2-5 0s5 3.2 5 0zm76.2-95.3c0 1.8 1.6 2.6 3 2.4v-4.8c-1.4-.2-3 .6-3 2.4zm-2.1 8.4c0 3.2 5 3.2 5 0s-5-3.2-5 0zm5.1 15.8v-1.7c-.1.3-.2.5-.2.9 0 .3.1.6.2.8zm-7.3-6.5c0 3.2 5 3.2 5 0s-5-3.2-5 0zm-.6 8.5c0 3.2 5 3.2 5 0s-5-3.2-5 0zm3.9 6.1c0 2.3 2.5 2.9 4 2v-4c-1.5-.9-4-.3-4 2zm-6.4 3.7c0 3.2 5 3.2 5 0 0-3.3-5-3.3-5 0zm4.1 6.6c0 3.2 5 3.2 5 0s-5-3.2-5 0zm-7.5 1.7c0 3.2 5 3.2 5 0 0-3.3-5-3.3-5 0zm6.2 5.3c0 3.2 5 3.2 5 0s-5-3.3-5 0zm-6.6 2.4c0 3.2 5 3.2 5 0s-5-3.2-5 0zm2.8 7c0 3.2 5 3.2 5 0s-5-3.2-5 0zm-5.3-7.6c0-3.2-5-3.2-5 0s5 3.2 5 0zm-2.5 6.6c0 3.2 5 3.2 5 0s-5-3.2-5 0zm-.5 7.1c0 3.2 5 3.2 5 0s-5-3.2-5 0zm-10-11.7c0 3.2 5 3.2 5 0 0-3.3-5-3.3-5 0zm3.5 6.4c0 3.2 5 3.2 5 0s-5-3.2-5 0zm-.5 7.7c0 3.2 5 3.2 5 0 0-3.3-5-3.3-5 0zm-7.4 1.8c0 3.2 5 3.2 5 0s-5-3.2-5 0zm-2.2-2c0-3.2-5-3.2-5 0s5 3.2 5 0zm-9.3-6.8c0 3.2 5 3.2 5 0s-5-3.2-5 0zm16.6 1c0-3.2-5-3.2-5 0s5 3.2 5 0zm-4.3-6.6c0-3.2-5-3.2-5 0s5 3.2 5 0zm-11.8-1.9c0 3.2 5 3.2 5 0s-5-3.2-5 0zm1.2-7.4c0-3.2-5-3.2-5 0s5 3.2 5 0zm-10.1-5.3c0 3.2 5 3.2 5 0 0-3.3-5-3.3-5 0zm6.6-7.3c0-3.2-5-3.2-5 0s5 3.2 5 0zm-4.7-8.2c0 3.2 5 3.2 5 0s-5-3.2-5 0zm1-7.6c0 3.2 5 3.2 5 0s-5-3.2-5 0zm1-7.1c0 3.2 5 3.2 5 0s-5-3.2-5 0zm-7.8 10.1c0 3.2 5 3.2 5 0s-5-3.2-5 0zm-1 8.6c0 3.2 5 3.2 5 0s-5-3.2-5 0zm3.9 6.8c0-3.2-5-3.2-5 0 0 3.3 5 3.3 5 0zm-5.6 4.8c0-3.2-5-3.2-5 0 0 3.3 5 3.3 5 0zm.4-15.7c0-3.2-5-3.2-5 0s5 3.2 5 0zm-5.8 7.6c0 3.2 5 3.2 5 0s-5-3.2-5 0zm-1.6 5.3c0-3.2-5-3.2-5 0s5 3.2 5 0zm-4.3-7.6c0 3.2 5 3.2 5 0s-5-3.2-5 0zm-1.7-7.6c0 3.2 5 3.2 5 0 0-3.3-5-3.3-5 0zm-5.5-5.5c0 3.2 5 3.2 5 0s-5-3.2-5 0zm.5-6.3c0-3.2-5-3.2-5 0s5 3.2 5 0zm-10.9 5.5c0 3.2 5 3.2 5 0 0-3.3-5-3.3-5 0zm15.8 17c0-3.2-5-3.2-5 0 0 3.3 5 3.3 5 0zm-1.5-7.9c0-3.2-5-3.2-5 0s5 3.2 5 0zm-10.2-4.2c0 3.2 5 3.2 5 0s-5-3.2-5 0zm-1.4 2.9c0-3.2-5-3.2-5 0s5 3.2 5 0zm1.3 5.1c0 3.2 5 3.2 5 0s-5-3.2-5 0zm3 7.3c0-3.2-5-3.2-5 0s5 3.2 5 0zm-5.5-4.7c0-3.2-5-3.2-5 0 0 3.3 5 3.3 5 0zm-1.3 7.5c0-3.2-5-3.2-5 0s5 3.2 5 0zm.3 8c0-3.2-5-3.2-5 0s5 3.2 5 0zm-11.3-3.2c0 3.2 5 3.2 5 0s-5-3.2-5 0zm-2.2 6.2c0 3.2 5 3.2 5 0 0-3.3-5-3.3-5 0zm11.8 3.4c0-3.2-5-3.2-5 0 0 3.3 5 3.3 5 0zm-2 8.3c0-3.2-5-3.2-5 0 0 3.3 5 3.3 5 0zm-3.9 6.7c0-3.2-5-3.2-5 0s5 3.2 5 0zm-6-12c0 3.2 5 3.2 5 0s-5-3.2-5 0zm4 6.5c0-3.2-5-3.2-5 0s5 3.2 5 0zm70.2-179.3c0 3.2 5 3.2 5 0 0-3.3-5-3.3-5 0zm7 .9c0 3.2 5 3.2 5 0 0-3.3-5-3.3-5 0zm-3.6 5.6c0 3.2 5 3.2 5 0s-5-3.2-5 0zm6.9 0c0 3.2 5 3.2 5 0s-5-3.2-5 0zm8 6c0-3.2-5-3.2-5 0s5 3.2 5 0zm-.8-5.5c0 3.2 5 3.2 5 0s-5-3.2-5 0zm3.2 6.7c0 3.2 5 3.2 5 0s-5-3.2-5 0zm4.9-3.8c0 1.7 1.4 2.5 2.8 2.4v-4.8c-1.3-.1-2.8.6-2.8 2.4zm-49.5 206.2c0 2.6 4 2.6 4 0s-4-2.6-4 0zm5.6 3c0 2.6 4 2.6 4 0s-4-2.6-4 0zM425.2 4V0h-2.6c-.4.4-.6.9-.6 1.6 0 2 1.8 2.7 3.2 2.4z"/></svg>