<svg xmlns="http://www.w3.org/2000/svg" xmlns:xlink="http://www.w3.org/1999/xlink" viewBox="0 0 2150 2150"><pattern width="72" height="72" patternUnits="userSpaceOnUse" id="a" viewBox="5.4 -76.8 72 72" overflow="visible"><path fill="none" d="M5.4-76.8h72v72h-72z"/><path d="M54.1-48.9l-6.7-2.8 2 7.1M38.2-58.2l7.1-3.6-6.7-2m16.9 13.3l6.2-3.6-6.3-3.8m-20 9.6l-.3-7.7-5.3 4.5m35.8 19l6.5 3.2-1.6-7.2M63.6-17v-7.2l-5.8 4.6m.5-12.4l-.1 7.2 5.9-4.5m-12.2-9.8l7.2-.4-4.9-5.5m-5.4 11.9l5.8 4.3-.2-7.4M37.6-24.9l-3.4-4.5-2.1 5.2m6.6-11.3l6.7 2.8-2.8-6.8M21.7-23.2l-2.6-7.2-4.3 6.1m25.1-24.8l-.5 6.2 6.3-3.6M13.8-57.3l6.3 3.5-1.2-7.3m12.9 24.9l-5.6-4.6-.1 7.5M29.9-56l-5.8-6.1-.7 8.2m7.2 32.4l2.4 6.7 4.7-7.8m10.6-40.1l.3 8.2 5.1-5.4M23.4-39.1l-6.5-1.4 3 6.8m48.7 6.6l-2.2 6.8 6.9-2.5m-9.7-17.3l-3.3 6.2 6.6-.7M59-67.8l7.2.1-4.5-5.9m8.5.8v7.3l5.8-4.6M32-39.6l4-6-7.4.7m16.8-11.4l-7.3-.1 4.5 5.9M36.1-7.3l3.1-7.8-7.6 3.2m40.2-49.8L65.4-65l1.5 7.3M40.4-26.8l6.4 2.7-2.7-6.9m4 4.6l7 1.9-6 4.4M27-53.6l-3.6 6.3 7.1-.2m32.9 33.1L57-11l6.7 3M53.4-19.9l-.7 7.2 6.3-4M47.5-71.9l-1.8 7.7 6.8-3.4m13.1 52.7l6.7 2.8-2-7.1M17.1-51.8l-6.8-2.7 3.1 7M26.6-15l.7-9.1-6.5 4.5m-2.7-.3l-6.4-3.4 1.4 7.3m16-57.6l-1.7 6.2 7.1-2.1m-23.1 3l-.1 7.3 5.8-4.5M17-17.2l2.9 6.7 3.5-6.5m-.1-16.5l.9 7.2 5.9-5m14.3 20.7l6.5 3.3-1.3-8.2m23.5-28l-6.4-3.6.7 6.9m-2.7-15l4.2 5.9 2.1-7.1M57.9-48l2.7 5 3.1-6.7M13-75l-6 4.1 7.1 2.1M54-64.5l3.8-6.2-5.4-.1M12.3-13.6L9.3-7l7.2-1.8m14.6 1.7l-6.2-3.8 1 7.4m20.1-17l-5.9 1 5.2 5.4m7-27.4l-7.2-.5 4.2 6.1m0 32.9l-5.8-4.4.1 7.4m17-65.9l-4 6 7.4-.7m-46.6-10l3.6 6.3 2.7-6.9M11-27.6l5.9-4.1-7.1-2.2m10.1-7.5l1.6-8.5-7.3 5.5m-1.5 3.2l-5.1 4.1 7.4.8M63-5.9l5.6 4.5.6-8.9M33.1-7.1l3.3 6.5 3.1-6.7M58.8-.2l-1-7.2-5.1 5.3M21.1-1l-.6-7.2-5.4 5m28.7-64.3l-4.5-5.7-1.9 7.2m40.9 22.9L77-35.9l-4.9-5.6m.5-10.5l6.4-3.5-6.9-2.9m8 6.9l-4.9 5.3 7.3.6M79.9-3.3l-5.1-5.1-.9 7.3M77.4-59l3.3-6.5-7.3 1.5m4.5 52.4l4.2-5.9-7.4.4m6.5-9l-5.6 4.6 7.3 1.6m-5.2-6.5l-2.5-6.8 7 2.3m-46-29.3l-3.4-6.4-3 6.8m6.1 21.6l-3.5 5.3 5.1.6M6.3-43.1L5-35.9.1-41.5M.6-52L7-55.5.1-58.4m8 6.9l-4.9 5.3 7.3.6M7.9-3.3L2.8-8.4l-.9 7.3M5.4-59l3.3-6.5L1.4-64m4.5 52.4l4.2-5.9-7.4.4m6.5-9l-5.6 4.6 7.3 1.6m-5.2-6.5l-2.5-6.8 7 2.3m20.9-48.2l-6.2-3.8 1 7.4m23.4.5l-5.8-4.4.1 7.4M63-77.9l5.6 4.5.6-8.9m-36.1 3.2l3.3 6.5 3.1-6.7m19.3 7.1l-1-7.2-5.1 5.3M21.1-73l-.6-7.2-5.4 5m64.8-.1l-5.1-5.1-.9 7.3m-66-2.2l-5.1-5.1-.9 7.3" fill="none" stroke="#222221" stroke-width=".3"/></pattern><pattern id="b" xlink:href="#a" patternTransform="translate(67638.828 47521.32) scale(10.6667)"/><path fill="url(#b)" d="M0 0h2150v2150H0z"/></svg>