<svg xmlns="http://www.w3.org/2000/svg" xmlns:xlink="http://www.w3.org/1999/xlink" viewBox="0 0 2150 2150"><pattern width="72" height="72" patternUnits="userSpaceOnUse" id="a" viewBox="3 -74.1 72 72" overflow="visible"><g fill="none"><path d="M3-74.1h72v72H3z"/><path d="M71-1.3l1.1-2.9m-5.9 3.1l-.7-3.3M50.9-.3l.2-3M35.2-1.9l-1.4-2M19-1.7l1.3-2M7.9-.4L6.2-2.7M58.5-.1l2-3m17.3-47h-3m2 15.7l-2 1.5m-66-30.5l-2.8 2M7.3-7.1L5-5.4m71.3-61.7l-3.3.7m2 11l-2.5 1.8m5.3 3.5h-3m-.3 7.5l-2.7-1.8m5 10l-2 1.5m-.5 10.5l-2.8-2.2m4.8 13.2l-4.3-.7m-5.5-1l-2.2 1.7m10.5-17.7h-3M61-56.6l-1.9-2.8M31-58.1l-1.6-2.6m16.7-1.8l1.8-2.7M71-1.3l1.1-2.9m-5.9 3.1l-.7-3.3M60-26.1l-1.9-2.8m-6.4-25.6L50-57.1m.9 56.8l.2-3m-7.5-.5l1.8-2.7M35.2-1.9l-1.4-2m19.5-29.4l2.4-2.7M19-1.7l1.3-2m-8 .5l.9-4.2m-5.3 7L6.2-2.7m23.9-1.4l.1-3M10.3-68.9l3.5 1.5m-6.3 14l.3-3.2M11-30.4l1.5 3.8m-4.2-9.3l2.2-3.7m21.8-30L30-67.1m6.5-2.5l3.3 2.7m13.5-2.7l3.2 2m-1 4l-2 3.2m9-4.5l5-2.2m2.5 5.7l-2.5 1.8m-45.7-9.8v3m-3 2l-3.3.5m7.5 4l.5 3.3m.5-7.8l3.5-.7M12.3-52.6l2.7-2m-4.5 44.5l.3-4m-.5-4.3l2.2-2.5M24.3-8.4l-2.5-3.5m11-33.7l-2.5 1.7m30.5 3.5L58-41.9m-28.2 7.8l-3.8-.8m8.5 10.3l-2 1.5M32-12.6l-2.7-2.3m6 6.5l-2-1.2m-.8-9.8h-3m13.3-35.7l-2.5 1.7m5.2 3.5h-3m-.2 7.5l-2.8-1.7m2 12.5l-.7 2.5m1.2 7l-2.7-2.3m3.2 10.3l-2-1.3M66-29.6h-3m-37.7-1.5l2.5 1.7M30-53.6h3M17.8-39.4l2.5 1.8M15-34.1h3m.3 7.5l2.7-1.8m29.3-12.7l2.4-1.6m-2.1-5.9l2.4 1.8m4.7-5.8l-.2 3M48.4-8.5l3 .1m-2-6l2.3 1.8m4.8-5.8l1.1 3.1m-6.3-15.3l-2.5 1.7m2.2 5.8l-3.2-1M60-7.6l-2.7-1.8m10.2-23.7l-2.7-1.8m.5 12.8l-2 1.5M22.6-44.5l3.1.1m-2.1-6l2.4 1.8m34.8 3l2.7.5M18-18.4l.5 3.3m1.5-5.3l3.5-.7m12.3-40.3l4 .8m-3.3 20l.5 3.5m30.5-14L65-52.4m-52-8.2l3.3 2.7M7.8-44.6l-2.5 1.7m13.5-7.2l-2 1.5m27.5-20.7l1.9-2.7m21.4 33l1.8-2.7m-32.6-6.1l.7-2.8M23.3-15.3l.7-2.8m10.8-13.3l-2 1.5m-27-20.2h-3m2 15.7l-2 1.5M71-73.3l1.1-2.9m-5.9 3.1l-.7-3.3m-14.6 4.1l.2-3m-15.9 1.4l-1.4-2M19-73.7l1.3-2M7.9-72.4l-1.7-2.3m2.1 52.6l-3.8-.8m66.9 6.1l-1.9-2.8M27-38.1l.7-2.8m20.1 3.8l-2 1.5m12.7-36.5l2-3m-2 75l2-3m-56.2-64l-3.3.7m2 11L.5-53.6m5.3 3.5h-3m2 15.7l-2 1.5m1.5 21.5L0-12.1m71-61.2l1.1-2.9m-5.9 3.1l-.7-3.3m-14.6 4.1l.2-3m-15.9 1.4l-1.4-2M19-73.7l1.3-2M7.9-72.4l-1.7-2.3m52.3 2.6l2-3" stroke="#222221" stroke-width=".3"/></g></pattern><pattern id="b" xlink:href="#a" patternTransform="translate(67661.414 47495.691) scale(10.6667)"/><path fill="url(#b)" d="M0 0h2150v2150H0z"/></svg>