<svg xmlns="http://www.w3.org/2000/svg" viewBox="0 0 2150 2150"><defs><pattern id="a" data-name="USGS 22 Gravel Beach" width="72" height="72" patternTransform="translate(-1097.33 -1225.28) scale(10.67)" patternUnits="userSpaceOnUse"><path fill="none" d="M0 0h72v72H0z"/><path d="M21 3.1a.39.39 0 01-.25-.1.36.36 0 010-.5.36.36 0 01.6.25.39.39 0 01-.1.25.39.39 0 01-.25.1zm-1 5.25a.39.39 0 01-.25-.1.4.4 0 01-.1-.25.33.33 0 01.11-.25.36.36 0 01.49 0 .35.35 0 01.1.25.39.39 0 01-.1.25.37.37 0 01-.25.1zm.25 2.25a.39.39 0 01-.25-.1.36.36 0 010-.5.37.37 0 01.5 0 .36.36 0 010 .5.39.39 0 01-.25.1zm-5 0a.39.39 0 01-.25-.1.4.4 0 01-.1-.25.35.35 0 01.6-.25.36.36 0 010 .5.39.39 0 01-.25.1zm7.5 9.5a.39.39 0 01-.25-.1.36.36 0 010-.5.36.36 0 01.6.25.39.39 0 01-.1.25.39.39 0 01-.25.1zm-7.5 3A.39.39 0 0115 23a.4.4 0 01-.1-.25.33.33 0 01.1-.25.36.36 0 01.49 0 .35.35 0 01.1.25.39.39 0 01-.1.25.39.39 0 01-.24.1zm-1.25 1a.39.39 0 01-.25-.1.36.36 0 010-.5.36.36 0 01.6.25.39.39 0 01-.1.25.37.37 0 01-.25.1zm10 3a.39.39 0 01-.25-.1.4.4 0 01-.1-.25.33.33 0 01.11-.25.36.36 0 01.49 0 .39.39 0 01.1.25.35.35 0 01-.1.24.35.35 0 01-.25.11zm6.75-1.25a.39.39 0 01-.25-.1.36.36 0 010-.5.36.36 0 01.6.25.39.39 0 01-.1.25.39.39 0 01-.25.1zm.5-2.5a.39.39 0 01-.25-.1.4.4 0 01-.1-.25.33.33 0 01.11-.25.35.35 0 01.59.25.39.39 0 01-.1.25.37.37 0 01-.25.1zm-2-5a.39.39 0 01-.25-.1.36.36 0 010-.5.36.36 0 01.6.25.39.39 0 01-.1.25.39.39 0 01-.25.1zm4.75 1.5a.39.39 0 01-.25-.1.36.36 0 010-.5.36.36 0 01.6.25.39.39 0 01-.1.25.39.39 0 01-.25.1zm-2.5-5a.39.39 0 01-.25-.1.36.36 0 010-.5.36.36 0 01.6.25.39.39 0 01-.1.25.39.39 0 01-.25.1zm.25-3a.39.39 0 01-.25-.1.36.36 0 010-.5.37.37 0 01.5 0 .36.36 0 010 .5.39.39 0 01-.25.1zm.5-4.75A.39.39 0 0132 7a.36.36 0 010-.5.36.36 0 01.6.25.39.39 0 01-.1.25.39.39 0 01-.25.1zm-.25-4a.39.39 0 01-.25-.1.4.4 0 01-.1-.25.33.33 0 01.11-.25.35.35 0 01.59.25.39.39 0 01-.1.25.39.39 0 01-.25.1zm2-1.75a.36.36 0 01-.25-.11.33.33 0 01-.1-.24.33.33 0 01.11-.25.35.35 0 01.59.25.34.34 0 01-.11.25.34.34 0 01-.24.1zm7.5 5.75a.39.39 0 01-.25-.1.35.35 0 01-.1-.25.4.4 0 01.1-.25.35.35 0 01.49 0 .36.36 0 01.11.25.39.39 0 01-.1.25.39.39 0 01-.25.1zm4-.25a.39.39 0 01-.25-.1.36.36 0 010-.5.36.36 0 01.6.25.39.39 0 01-.1.25.39.39 0 01-.25.1zm-3 6.75a.39.39 0 01-.25-.1.4.4 0 01-.1-.25.33.33 0 01.11-.25.35.35 0 01.59.25.39.39 0 01-.1.25.39.39 0 01-.25.1zm4.5.75a.39.39 0 01-.25-.1.4.4 0 01-.1-.25.33.33 0 01.11-.25.35.35 0 01.49 0 .39.39 0 01.1.25.33.33 0 01-.1.24.35.35 0 01-.25.11zm0 2a.39.39 0 01-.25-.1.4.4 0 01-.1-.25.33.33 0 01.11-.25.35.35 0 01.49 0 .39.39 0 01.1.25.37.37 0 01-.1.24.35.35 0 01-.25.11zm-8 4.5a.39.39 0 01-.25-.1.36.36 0 010-.5.35.35 0 01.49 0 .34.34 0 01.11.25.39.39 0 01-.1.25.39.39 0 01-.25.1zm11.25-7.25a.39.39 0 01-.25-.1.36.36 0 010-.5.37.37 0 01.5 0 .36.36 0 010 .5.39.39 0 01-.25.1zm2-1.5A.36.36 0 0152 12a.35.35 0 01-.1-.24.33.33 0 01.1-.26.36.36 0 01.49 0 .35.35 0 01.1.25.39.39 0 01-.1.25.39.39 0 01-.24.1zm2.5-1a.36.36 0 01-.25-.1.35.35 0 01-.1-.24.33.33 0 01.11-.25.35.35 0 01.59.25.39.39 0 01-.1.24.39.39 0 01-.25.1zM56.5.85a.39.39 0 01-.25-.1.4.4 0 01-.1-.25.4.4 0 01.1-.25.36.36 0 01.5 0 .35.35 0 01.1.24.39.39 0 01-.1.25.39.39 0 01-.25.11zM68 3.1a.39.39 0 01-.25-.1.4.4 0 01-.1-.25.33.33 0 01.11-.25.36.36 0 01.49 0 .35.35 0 01.1.25.39.39 0 01-.1.25.37.37 0 01-.25.1zm0 7.25a.36.36 0 01-.25-.11.35.35 0 01-.1-.24.4.4 0 01.1-.25.37.37 0 01.5 0 .39.39 0 01.1.25.34.34 0 01-.11.25.34.34 0 01-.24.1zm-3.75 2a.39.39 0 01-.25-.1.36.36 0 010-.5.36.36 0 01.6.25.39.39 0 01-.1.25.39.39 0 01-.25.1zm1 3.5a.39.39 0 01-.25-.1.4.4 0 01-.1-.25.35.35 0 01.6-.25.36.36 0 010 .5.39.39 0 01-.25.1zm-1.25 4a.36.36 0 01-.25-.11.35.35 0 01-.1-.24.4.4 0 01.1-.25.37.37 0 01.5 0 .39.39 0 01.1.25.34.34 0 01-.11.25.34.34 0 01-.24.1zm2.25 0a.39.39 0 01-.25-.1.4.4 0 01-.1-.25.33.33 0 01.11-.25.36.36 0 01.49 0 .35.35 0 01.1.25.39.39 0 01-.1.25.39.39 0 01-.25.1zm1.75 1.5a.39.39 0 01-.25-.1.36.36 0 010-.5.37.37 0 01.5 0 .36.36 0 010 .5.39.39 0 01-.25.1zm-61 31a.39.39 0 01-.25-.1.36.36 0 010-.5.38.38 0 01.5 0 .36.36 0 010 .5.39.39 0 01-.25.1zm.25 2.25a.39.39 0 01-.25-.1.36.36 0 010-.5.37.37 0 01.5 0 .36.36 0 010 .5.39.39 0 01-.25.1zm-5 0a.39.39 0 01-.25-.1.36.36 0 010-.5.38.38 0 01.5 0 .36.36 0 010 .5.39.39 0 01-.25.1zm7.5 9.5a.39.39 0 01-.25-.1.36.36 0 010-.5.36.36 0 01.6.25.39.39 0 01-.1.25.39.39 0 01-.25.1zM1 68.1a.39.39 0 01-.25-.1.36.36 0 010-.5.38.38 0 01.5 0 .36.36 0 010 .5.39.39 0 01-.25.1zm10 3a.39.39 0 01-.25-.1.36.36 0 010-.5.38.38 0 01.5 0 .36.36 0 010 .5.39.39 0 01-.25.1zm7.25-3.75a.39.39 0 01-.25-.1.4.4 0 01-.1-.25.38.38 0 01.1-.25.37.37 0 01.49 0 .36.36 0 01.11.25.39.39 0 01-.1.25.39.39 0 01-.25.1zm-2-5a.39.39 0 01-.25-.1.36.36 0 010-.5.37.37 0 01.5 0 .36.36 0 010 .5.39.39 0 01-.25.1zm3.25-4.5a.39.39 0 01-.25-.1.4.4 0 01-.1-.25.33.33 0 01.11-.25.36.36 0 01.49 0 .35.35 0 01.1.25.39.39 0 01-.1.25.39.39 0 01-.25.1zm-.75-2a.39.39 0 01-.25-.1.4.4 0 01-.1-.25.33.33 0 01.11-.25.36.36 0 01.49 0 .35.35 0 01.1.25.39.39 0 01-.1.25.39.39 0 01-.25.1zm-2.5-1a.39.39 0 01-.25-.1.4.4 0 01-.1-.25.33.33 0 01.11-.25.36.36 0 01.49 0 .35.35 0 01.1.25.39.39 0 01-.1.25.39.39 0 01-.25.1zm3-3.75A.39.39 0 0119 51a.4.4 0 01-.1-.25.33.33 0 01.1-.25.36.36 0 01.49 0 .35.35 0 01.1.25.39.39 0 01-.1.25.39.39 0 01-.24.1zm-.25-4a.39.39 0 01-.25-.1.36.36 0 010-.5.38.38 0 01.5 0 .36.36 0 010 .5.39.39 0 01-.25.1zm-2.75.25a.39.39 0 01-.25-.1.36.36 0 010-.5.37.37 0 01.5 0 .36.36 0 010 .5.39.39 0 01-.25.1zm16.25 3.5a.39.39 0 01-.25-.1.4.4 0 01-.1-.25.33.33 0 01.11-.25.35.35 0 01.59.25.39.39 0 01-.1.25.39.39 0 01-.25.1zm-5.25 3.5a.39.39 0 01-.25-.1.36.36 0 010-.5.37.37 0 01.5 0 .36.36 0 010 .5.39.39 0 01-.25.1zm4.75 1.5a.39.39 0 01-.25-.1.36.36 0 010-.5.37.37 0 01.5 0 .36.36 0 010 .5.39.39 0 01-.25.1zm0 1.75a.34.34 0 01-.24-.1.35.35 0 010-.5.37.37 0 01.5 0 .35.35 0 01.1.25.39.39 0 01-.1.25.39.39 0 01-.26.1zm2 .75a.39.39 0 01-.25-.1.36.36 0 010-.5.37.37 0 01.5 0 .36.36 0 010 .5.39.39 0 01-.25.1zm-8 6.5a.39.39 0 01-.25-.1.36.36 0 010-.5.36.36 0 01.6.25.39.39 0 01-.1.25.39.39 0 01-.25.1zm10-8.5a.39.39 0 01-.25-.1.36.36 0 010-.5.36.36 0 01.6.25.39.39 0 01-.1.25.39.39 0 01-.25.1zm3.25-.25A.34.34 0 0139 56a.36.36 0 01-.11-.25.4.4 0 01.1-.25.37.37 0 01.5 0 .36.36 0 010 .5.39.39 0 01-.24.1zm2.5-5.25a.39.39 0 01-.25-.1.36.36 0 010-.5.37.37 0 01.5 0 .36.36 0 010 .5.39.39 0 01-.25.1zm1.75-6a.36.36 0 01-.25-.11.35.35 0 01-.1-.24.4.4 0 01.1-.25.37.37 0 01.5 0 .36.36 0 010 .5.39.39 0 01-.25.1zM51 50.6a.39.39 0 01-.25-.1.37.37 0 01-.1-.25.4.4 0 01.1-.25.36.36 0 01.5 0 .36.36 0 010 .5.39.39 0 01-.25.1zm1-4a.36.36 0 01-.25-.11.35.35 0 01-.1-.24.33.33 0 01.11-.25.36.36 0 01.49 0 .35.35 0 01.1.25.39.39 0 01-.1.25.39.39 0 01-.25.1zm3 .5a.33.33 0 01-.25-.11.35.35 0 01-.1-.24.38.38 0 01.1-.25.36.36 0 01.49 0 .34.34 0 01.11.25.39.39 0 01-.1.25.39.39 0 01-.25.1zm0 7.25a.33.33 0 01-.25-.11.35.35 0 01-.1-.24.33.33 0 01.11-.25.36.36 0 01.49 0 .35.35 0 01.1.25.39.39 0 01-.1.25.39.39 0 01-.25.1zm-3.75 2a.39.39 0 01-.25-.1.36.36 0 010-.5.37.37 0 01.5 0 .35.35 0 01.1.25.39.39 0 01-.1.25.37.37 0 01-.25.1zm-.25 7.5a.39.39 0 01-.25-.1.4.4 0 01-.1-.25.31.31 0 01.1-.24.34.34 0 01.49 0 .36.36 0 01.11.25.39.39 0 01-.1.25.37.37 0 01-.25.09zm2.25 0a.39.39 0 01-.25-.1.4.4 0 01-.1-.25.33.33 0 01.11-.25.36.36 0 01.49 0 .32.32 0 01.1.24.39.39 0 01-.1.25.39.39 0 01-.25.11zM56 63.1a.39.39 0 01-.25-.1.36.36 0 010-.5.36.36 0 01.6.25.39.39 0 01-.1.25.39.39 0 01-.25.1zm2.25-1.5a.36.36 0 01-.25-.11.35.35 0 01-.1-.24.4.4 0 01.1-.25.37.37 0 01.5 0 .37.37 0 01.1.25.39.39 0 01-.1.25.39.39 0 01-.25.1zM21 27.1a.39.39 0 01-.25-.1.36.36 0 010-.5.36.36 0 01.6.25.39.39 0 01-.1.25.39.39 0 01-.25.1zm1.75-3a.39.39 0 01-.25-.1.36.36 0 010-.5.37.37 0 01.5 0 .36.36 0 010 .5.39.39 0 01-.25.1zm16.25.75a.39.39 0 01-.25-.1.36.36 0 010-.5.37.37 0 01.5 0 .36.36 0 010 .5.39.39 0 01-.25.1zm7.25 4.25A.39.39 0 0146 29a.35.35 0 010-.49.34.34 0 01.49 0 .36.36 0 01.11.25.39.39 0 01-.1.25.39.39 0 01-.25.09zm9-1A.39.39 0 0155 28a.36.36 0 010-.5.37.37 0 01.5 0 .36.36 0 010 .5.39.39 0 01-.25.1zm-4-2.75a.39.39 0 01-.25-.1.36.36 0 010-.5.37.37 0 01.5 0 .35.35 0 01.1.25.39.39 0 01-.1.25.39.39 0 01-.25.1zM52 29.6a.37.37 0 01-.25-.1.36.36 0 010-.5.36.36 0 01.6.25.39.39 0 01-.1.25.39.39 0 01-.25.1zm10.5 6a.39.39 0 01-.25-.1.4.4 0 01-.1-.25.33.33 0 01.11-.25.36.36 0 01.49 0 .32.32 0 01.1.24.39.39 0 01-.1.25.39.39 0 01-.25.11zm-5.75 3.5a.39.39 0 01-.25-.1.36.36 0 010-.5.36.36 0 01.6.25.39.39 0 01-.1.25.39.39 0 01-.25.1zm-8.5-1.75a.34.34 0 01-.24-.1.36.36 0 01-.11-.25.4.4 0 01.1-.25.36.36 0 01.5 0 .33.33 0 01.1.24.39.39 0 01-.1.25.39.39 0 01-.25.11zm-.25 4a.33.33 0 01-.25-.11.35.35 0 01-.1-.24.4.4 0 01.1-.25.38.38 0 01.5 0 .36.36 0 010 .5.39.39 0 01-.25.1zm5.5 3.75a.34.34 0 01-.25-.11.32.32 0 01-.1-.24.34.34 0 01.11-.25.36.36 0 01.49 0 .36.36 0 010 .5.39.39 0 01-.25.1zm8.75 3A.39.39 0 0162 48a.4.4 0 01-.1-.25.33.33 0 01.1-.25.36.36 0 01.49 0 .32.32 0 01.1.24.39.39 0 01-.1.25.39.39 0 01-.24.11zM65 51.85a.39.39 0 01-.25-.1.4.4 0 01-.1-.25.33.33 0 01.11-.25.36.36 0 01.49 0 .35.35 0 01.1.25.39.39 0 01-.1.25.39.39 0 01-.25.1zm4.5-6.75a.39.39 0 01-.25-.1.36.36 0 010-.5.37.37 0 01.5 0 .36.36 0 010 .5.39.39 0 01-.25.1zm-9.5-6a.33.33 0 01-.25-.11.35.35 0 01-.1-.24.34.34 0 01.11-.25.35.35 0 01.49 0 .36.36 0 010 .5.37.37 0 01-.25.1zm-27.5 8a.39.39 0 01-.25-.1.36.36 0 010-.5.36.36 0 01.6.25.39.39 0 01-.1.25.39.39 0 01-.25.1zm-6.25-9.25a.39.39 0 01-.25-.1.36.36 0 010-.5.36.36 0 01.6.25.39.39 0 01-.1.25.39.39 0 01-.25.1zm3.5-2.25a.34.34 0 01-.24-.1.36.36 0 01-.11-.25.33.33 0 01.11-.25.36.36 0 01.49 0 .35.35 0 01.1.25.39.39 0 01-.1.25.39.39 0 01-.25.1zm-19.25-6a.39.39 0 01-.25-.1.36.36 0 010-.5.37.37 0 01.49 0 .33.33 0 01.11.25.39.39 0 01-.1.25.39.39 0 01-.25.1zm-4.5 2a.39.39 0 01-.25-.1.36.36 0 010-.5.36.36 0 01.49 0 .33.33 0 01.11.25.37.37 0 01-.1.25.39.39 0 01-.25.1zm-3.5 3.75a.39.39 0 01-.25-.1.36.36 0 010-.5.37.37 0 01.5 0 .35.35 0 01.1.25.33.33 0 01-.1.24.35.35 0 01-.25.11zM17 42.1a.39.39 0 01-.25-.1.4.4 0 01-.1-.25.33.33 0 01.11-.25.35.35 0 01.59.25.39.39 0 01-.1.25.37.37 0 01-.25.1zm-4.25-6a.39.39 0 01-.25-.1.4.4 0 01-.1-.25.33.33 0 01.11-.25.36.36 0 01.49 0 .35.35 0 01.1.25.39.39 0 01-.1.25.37.37 0 01-.25.1zm13.75-5.75a.39.39 0 01-.25-.1.36.36 0 010-.5.37.37 0 01.5 0 .36.36 0 010 .5.39.39 0 01-.25.1zm12.75.5a.39.39 0 01-.25-.1.36.36 0 010-.5.37.37 0 01.5 0 .36.36 0 010 .5.37.37 0 01-.25.1zm-1 2a.39.39 0 01-.25-.1.36.36 0 010-.5.37.37 0 01.5 0 .36.36 0 010 .5.39.39 0 01-.25.1zM28 42.1a.39.39 0 01-.25-.1.36.36 0 010-.5.37.37 0 01.5 0 .36.36 0 010 .5.39.39 0 01-.25.1zM6.5 20.6a.39.39 0 01-.25-.1.36.36 0 010-.5.37.37 0 01.5 0 .36.36 0 010 .5.39.39 0 01-.25.1zm3.25-1.75a.39.39 0 01-.25-.1.36.36 0 010-.5.36.36 0 01.6.25.39.39 0 01-.1.25.39.39 0 01-.25.1zm2 4.75a.39.39 0 01-.25-.1.4.4 0 01-.1-.25.33.33 0 01.11-.25.36.36 0 01.49 0 .35.35 0 01.1.25.39.39 0 01-.1.25.37.37 0 01-.25.1zM3 25.85a.39.39 0 01-.25-.1.36.36 0 010-.5.38.38 0 01.5 0 .36.36 0 010 .5.39.39 0 01-.25.1zm61.25 3.75a.34.34 0 01-.24-.1.36.36 0 01-.11-.25.4.4 0 01.1-.25.36.36 0 01.6.25.39.39 0 01-.1.25.39.39 0 01-.25.1zm5.25.25a.39.39 0 01-.25-.1.4.4 0 01-.1-.25.34.34 0 01.11-.25.36.36 0 01.49 0 .35.35 0 01.1.25.39.39 0 01-.1.25.37.37 0 01-.25.1zM1.5 9.1a.39.39 0 01-.25-.1.36.36 0 010-.5.38.38 0 01.5 0 .36.36 0 010 .5.39.39 0 01-.25.1zm15-3a.39.39 0 01-.25-.1.4.4 0 01-.1-.25.35.35 0 01.6-.25.36.36 0 010 .5.39.39 0 01-.25.1zm-12.75 0A.39.39 0 013.5 6a.36.36 0 010-.5.36.36 0 01.6.25A.39.39 0 014 6a.39.39 0 01-.25.1zm9 8.25a.39.39 0 01-.25-.1.36.36 0 010-.5.36.36 0 01.6.25.39.39 0 01-.1.25.39.39 0 01-.25.1zm5.75 5a.39.39 0 01-.25-.1.4.4 0 01-.1-.25.38.38 0 01.1-.25.36.36 0 01.6.25.39.39 0 01-.1.25.39.39 0 01-.25.1zm2.75 17.75A.39.39 0 0121 37a.4.4 0 01-.1-.25.38.38 0 01.1-.25.37.37 0 01.49 0 .36.36 0 01.11.25.39.39 0 01-.1.25.39.39 0 01-.25.1zM.75 44.35a.39.39 0 01-.25-.1.4.4 0 01-.1-.25.33.33 0 01.11-.25.36.36 0 01.49 0 .35.35 0 01.1.25.39.39 0 01-.1.25.39.39 0 01-.25.1zM68 66.1a.39.39 0 01-.25-.1.4.4 0 01-.1-.25.33.33 0 01.11-.25.36.36 0 01.49 0 .35.35 0 01.1.25.39.39 0 01-.1.25.39.39 0 01-.25.1zm-8.25 3.75a.39.39 0 01-.25-.1.35.35 0 01-.1-.25.4.4 0 01.1-.25.37.37 0 01.5 0 .35.35 0 01.1.25.37.37 0 01-.1.25.39.39 0 01-.25.1zM40.5 68.1a.39.39 0 01-.25-.1.36.36 0 010-.5.37.37 0 01.5 0 .36.36 0 010 .5.37.37 0 01-.25.1zm-36-8a.39.39 0 01-.25-.1.36.36 0 010-.5.36.36 0 01.6.25.39.39 0 01-.1.25.39.39 0 01-.25.1zm22-.5a.39.39 0 01-.25-.1.36.36 0 010-.5.36.36 0 01.6.25.39.39 0 01-.1.25.39.39 0 01-.25.1zm10.75-11a.39.39 0 01-.25-.1.4.4 0 01-.1-.25.38.38 0 01.1-.25.37.37 0 01.5 0 .36.36 0 010 .5.37.37 0 01-.25.1zm-28.5-8.25a.39.39 0 01-.25-.1.36.36 0 010-.5.36.36 0 01.6.25.39.39 0 01-.1.25.39.39 0 01-.25.1zm43.5-2.25A.36.36 0 0152 38a.35.35 0 01-.1-.24.33.33 0 01.1-.26.36.36 0 01.49 0 .35.35 0 01.1.25.39.39 0 01-.1.25.39.39 0 01-.24.1zm8.5 8a.39.39 0 01-.25-.1.4.4 0 01-.1-.25.33.33 0 01.11-.25.36.36 0 01.49 0 .35.35 0 01.1.25.39.39 0 01-.1.25.39.39 0 01-.25.1zm-9.5 20.25a.39.39 0 01-.25-.1.36.36 0 010-.5.37.37 0 01.5 0 .39.39 0 01.1.25.35.35 0 01-.1.25.39.39 0 01-.25.1zM40 37.85a.39.39 0 01-.25-.1.36.36 0 010-.5.36.36 0 01.6.25.39.39 0 01-.1.25.39.39 0 01-.25.1zM27.5 13.6a.39.39 0 01-.25-.1.36.36 0 010-.5.36.36 0 01.6.25.39.39 0 01-.1.25.39.39 0 01-.25.1zm-7.75 13a.39.39 0 01-.25-.1.4.4 0 01-.1-.25.38.38 0 01.1-.25.37.37 0 01.5 0 .36.36 0 01.11.25.39.39 0 01-.1.25.39.39 0 01-.26.1zm-8-24.75a.39.39 0 01-.25-.1.4.4 0 01-.1-.25.4.4 0 01.1-.25.38.38 0 01.5 0 .39.39 0 01.1.25.39.39 0 01-.1.25.39.39 0 01-.25.1zm43.5 2a.39.39 0 01-.25-.1.4.4 0 01-.1-.25.33.33 0 01.1-.25.36.36 0 01.49 0 .35.35 0 01.1.25.39.39 0 01-.1.25.39.39 0 01-.24.1zm-8 66a.39.39 0 01-.25-.1.38.38 0 01-.1-.25.4.4 0 01.1-.25.36.36 0 01.6.25.39.39 0 01-.1.25.39.39 0 01-.25.1zm-42.5-29.5a.39.39 0 01-.25-.1.4.4 0 01-.1-.25.33.33 0 01.11-.25.36.36 0 01.49 0 .35.35 0 01.1.25.39.39 0 01-.1.25.39.39 0 01-.25.1zm64-27a.39.39 0 01-.25-.1.36.36 0 010-.5.37.37 0 01.5 0 .36.36 0 010 .5.39.39 0 01-.25.1zm-45.5.75A.39.39 0 0123 14a.36.36 0 010-.5.36.36 0 01.6.25.39.39 0 01-.1.25.39.39 0 01-.25.1zm-2.75 3.25a.39.39 0 01-.25-.1.36.36 0 010-.5.37.37 0 01.5 0 .36.36 0 010 .5.39.39 0 01-.25.1zm-5.75 0a.39.39 0 01-.25-.1.4.4 0 01-.1-.25.33.33 0 01.11-.25.36.36 0 01.49 0 .35.35 0 01.1.25.39.39 0 01-.1.25.39.39 0 01-.25.1zM6 11.85a.39.39 0 01-.25-.1.36.36 0 010-.5.36.36 0 01.49 0 .33.33 0 01.11.25.39.39 0 01-.1.25.39.39 0 01-.25.1zm1-9a.36.36 0 01-.24-.1.36.36 0 01-.11-.25.4.4 0 01.1-.25.36.36 0 01.6.25.39.39 0 01-.1.25.39.39 0 01-.25.1zm3 5.5a.39.39 0 01-.25-.1.36.36 0 010-.5.36.36 0 01.6.25.39.39 0 01-.1.25.39.39 0 01-.25.1zm4.25 0a.39.39 0 01-.25-.1.4.4 0 01-.1-.25.33.33 0 01.1-.25.36.36 0 01.49 0 .35.35 0 01.1.25.39.39 0 01-.1.25.39.39 0 01-.24.1zm11.5-1.25a.39.39 0 01-.25-.1.36.36 0 010-.5.36.36 0 01.6.25.39.39 0 01-.1.25.39.39 0 01-.25.1zM37 7.6a.39.39 0 01-.25-.1.36.36 0 010-.5.37.37 0 01.5 0 .36.36 0 010 .5.39.39 0 01-.25.1zm.5-3.25a.39.39 0 01-.25-.1.4.4 0 01-.1-.25.33.33 0 01.11-.25.35.35 0 01.59.25.39.39 0 01-.1.25.39.39 0 01-.25.1zm5.75-2a.39.39 0 01-.25-.1.4.4 0 01-.1-.25.4.4 0 01.1-.25.37.37 0 01.5 0 .39.39 0 01.1.25.39.39 0 01-.1.25.41.41 0 01-.25.1zm6.25 6a.39.39 0 01-.25-.1.36.36 0 010-.5.37.37 0 01.5 0 .36.36 0 010 .5.39.39 0 01-.25.1zm-3.5 1a.39.39 0 01-.25-.1.36.36 0 010-.5.37.37 0 01.5 0 .36.36 0 010 .5.37.37 0 01-.25.1zM35.75 11.1a.39.39 0 01-.25-.1.4.4 0 01-.1-.25.38.38 0 01.1-.25.36.36 0 01.6.25.39.39 0 01-.1.25.39.39 0 01-.25.1zm3.5 4A.39.39 0 0139 15a.36.36 0 010-.5.36.36 0 01.6.25.39.39 0 01-.1.25.39.39 0 01-.25.1zm-14.5 3a.39.39 0 01-.25-.1.36.36 0 010-.5.36.36 0 01.6.25.39.39 0 01-.1.25.39.39 0 01-.25.1zm-16.5 9.25a.39.39 0 01-.25-.1.36.36 0 010-.5.36.36 0 01.6.25.39.39 0 01-.1.25.39.39 0 01-.25.1zm7.75 4.5a.39.39 0 01-.25-.1.36.36 0 010-.5.38.38 0 01.5 0 .36.36 0 010 .5.39.39 0 01-.25.1zm-5.5 1.75a.39.39 0 01-.25-.1.4.4 0 01-.1-.25.33.33 0 01.11-.25.36.36 0 01.49 0 .35.35 0 01.1.25.37.37 0 01-.1.25.39.39 0 01-.25.1zm-5.25 3.5A.39.39 0 015 37a.36.36 0 010-.5.38.38 0 01.5 0 .37.37 0 01.1.25.39.39 0 01-.1.25.39.39 0 01-.25.1zm-2-16.5a.39.39 0 01-.25-.1.36.36 0 010-.5.38.38 0 01.5 0 .36.36 0 010 .5.39.39 0 01-.25.1zM20.5 30.85a.39.39 0 01-.25-.1.4.4 0 01-.1-.25.33.33 0 01.11-.25.35.35 0 01.59.25.39.39 0 01-.1.25.39.39 0 01-.25.1zm-3 4.75a.39.39 0 01-.25-.1.36.36 0 010-.5.37.37 0 01.5 0 .36.36 0 010 .5.39.39 0 01-.25.1zM16 39.1a.39.39 0 01-.25-.1.4.4 0 01-.1-.25.33.33 0 01.11-.25.36.36 0 01.49 0 .35.35 0 01.1.25.39.39 0 01-.1.25.37.37 0 01-.25.1zm-3.25 2.25a.39.39 0 01-.25-.1.4.4 0 01-.1-.25.33.33 0 01.11-.25.36.36 0 01.49 0 .35.35 0 01.1.25.39.39 0 01-.1.25.39.39 0 01-.25.1zm0 5.25a.39.39 0 01-.25-.1.4.4 0 01-.1-.25.33.33 0 01.11-.25.36.36 0 01.49 0 .35.35 0 01.1.25.39.39 0 01-.1.25.39.39 0 01-.25.1zm-7 2a.39.39 0 01-.25-.1.36.36 0 010-.5.38.38 0 01.5 0 .36.36 0 010 .5.39.39 0 01-.25.1zm5.25 6a.39.39 0 01-.25-.1.36.36 0 010-.5.38.38 0 01.5 0 .36.36 0 010 .5.39.39 0 01-.25.1zm4.5 4a.39.39 0 01-.25-.1.36.36 0 010-.5.37.37 0 01.5 0 .36.36 0 010 .5.39.39 0 01-.25.1zm-9.5 5a.39.39 0 01-.25-.1.36.36 0 010-.5.38.38 0 01.5 0 .35.35 0 01.1.25.39.39 0 01-.1.25.39.39 0 01-.25.1zm-3.75-1.5A.39.39 0 012 62a.36.36 0 010-.5.37.37 0 01.49 0 .34.34 0 01.11.25.39.39 0 01-.1.25.39.39 0 01-.25.1zm6.75 6a.39.39 0 01-.25-.1.36.36 0 010-.5.36.36 0 01.6.25.39.39 0 01-.1.25.37.37 0 01-.25.1zm4.5 1.5a.39.39 0 01-.25-.1.36.36 0 010-.5.38.38 0 01.5 0 .36.36 0 010 .5.39.39 0 01-.25.1zm8-1a.39.39 0 01-.25-.1.4.4 0 01-.1-.25.33.33 0 01.11-.25.35.35 0 01.59.25.39.39 0 01-.1.25.39.39 0 01-.25.1zm1.5-2.75a.39.39 0 01-.25-.1.36.36 0 010-.5.37.37 0 01.5 0 .36.36 0 010 .5.37.37 0 01-.25.1zm-.75-5.75A.39.39 0 0122 60a.36.36 0 010-.5.38.38 0 01.5 0 .36.36 0 010 .5.37.37 0 01-.25.1zm2-2.5a.39.39 0 01-.25-.1.4.4 0 01-.1-.25.35.35 0 01.6-.25.37.37 0 01.1.25.39.39 0 01-.1.25.37.37 0 01-.25.1zm2-9.75a.39.39 0 01-.25-.1.36.36 0 010-.5.37.37 0 01.5 0 .36.36 0 010 .5.39.39 0 01-.25.1zm-.5-4.25a.39.39 0 01-.25-.1.36.36 0 010-.5.37.37 0 01.5 0 .36.36 0 010 .5.39.39 0 01-.25.1zm6.5-12.5A.39.39 0 0132 31a.4.4 0 01-.1-.25.33.33 0 01.1-.25.35.35 0 01.59.25.39.39 0 01-.1.25.39.39 0 01-.24.1zm2-3.25a.39.39 0 01-.25-.1.4.4 0 01-.1-.25.35.35 0 01.1-.25.37.37 0 01.5 0 .36.36 0 010 .5.37.37 0 01-.25.1zm7.5-2a.39.39 0 01-.25-.1.36.36 0 010-.5.37.37 0 01.5 0 .36.36 0 010 .5.39.39 0 01-.25.1zm1.25-5a.36.36 0 01-.25-.11.33.33 0 01-.1-.24.4.4 0 01.1-.25.37.37 0 01.5 0 .39.39 0 01.1.25.34.34 0 01-.11.25.34.34 0 01-.24.1zm-6.5-1.5a.39.39 0 01-.25-.1.37.37 0 01-.1-.25.31.31 0 01.1-.24.35.35 0 01.5 0 .36.36 0 010 .5.39.39 0 01-.25.09zm-8.75 3a.39.39 0 01-.25-.1.36.36 0 010-.5.37.37 0 01.5 0 .36.36 0 010 .5.39.39 0 01-.25.1zM52 22.1a.33.33 0 01-.25-.11.35.35 0 01-.1-.24.4.4 0 01.1-.25.36.36 0 01.6.25.39.39 0 01-.1.25.37.37 0 01-.25.1zm-8.75-4.25a.37.37 0 01-.25-.1.36.36 0 010-.5.38.38 0 01.5 0 .36.36 0 010 .5.39.39 0 01-.25.1zm7.25.25a.37.37 0 01-.25-.1.36.36 0 010-.5.36.36 0 01.6.25.39.39 0 01-.1.25.39.39 0 01-.25.1zm9-.75a.39.39 0 01-.25-.1.4.4 0 01-.1-.25.33.33 0 01.11-.25.36.36 0 01.49 0 .35.35 0 01.1.25.39.39 0 01-.1.25.39.39 0 01-.25.1zm-1.25-3.25A.37.37 0 0158 14a.36.36 0 010-.5.36.36 0 01.6.25.39.39 0 01-.1.25.39.39 0 01-.25.1zm3.25-3a.39.39 0 01-.25-.1.4.4 0 01-.1-.25.33.33 0 01.11-.25.36.36 0 01.49 0 .32.32 0 01.1.24.39.39 0 01-.1.25.39.39 0 01-.25.11zm-2.75-3.5a.39.39 0 01-.25-.1.35.35 0 01-.1-.25.31.31 0 01.1-.25.35.35 0 01.6.24.39.39 0 01-.1.25.39.39 0 01-.25.11zM60 4.85a.34.34 0 01-.25-.11.35.35 0 01-.1-.24.33.33 0 01.11-.25.36.36 0 01.49 0 .35.35 0 01.1.25.39.39 0 01-.1.25.39.39 0 01-.25.1zm7.5 1.25a.39.39 0 01-.25-.1.36.36 0 01-.1-.25.35.35 0 01.6-.25.36.36 0 010 .5.39.39 0 01-.25.1zm3.25 2.5a.39.39 0 01-.25-.1.36.36 0 01-.1-.25.38.38 0 01.1-.25.37.37 0 01.5 0 .36.36 0 01.11.25.39.39 0 01-.1.25.39.39 0 01-.26.1zm-5 1.25a.39.39 0 01-.25-.1.4.4 0 01-.1-.25.35.35 0 01.6-.25.36.36 0 010 .5.39.39 0 01-.25.1zm-5.5 14a.39.39 0 01-.25-.1.36.36 0 010-.5.37.37 0 01.5 0 .36.36 0 010 .5.39.39 0 01-.25.1zm-4.75 0a.39.39 0 01-.25-.1.36.36 0 010-.5.38.38 0 01.5 0 .36.36 0 010 .5.39.39 0 01-.25.1zm0-5a.34.34 0 01-.25-.11.35.35 0 01-.1-.24.33.33 0 01.11-.25.36.36 0 01.49 0 .35.35 0 01.1.25.39.39 0 01-.1.25.39.39 0 01-.25.1zm9.5 7a.39.39 0 01-.25-.1.4.4 0 01-.1-.25.33.33 0 01.11-.25.36.36 0 01.49 0 .35.35 0 01.1.25.39.39 0 01-.1.25.39.39 0 01-.25.1zm-7.25 5a.33.33 0 01-.25-.11.35.35 0 01-.1-.24.33.33 0 01.11-.25.36.36 0 01.49 0 .35.35 0 01.1.25.39.39 0 01-.1.25.39.39 0 01-.25.1zm-5 2a.36.36 0 01-.25-.11.35.35 0 01-.1-.24.33.33 0 01.11-.25.36.36 0 01.49 0 .35.35 0 01.1.25.39.39 0 01-.1.25.39.39 0 01-.25.1zm-5.25 1a.36.36 0 01-.25-.11.35.35 0 01-.1-.24.33.33 0 01.11-.25.36.36 0 01.49 0 .35.35 0 01.1.25.39.39 0 01-.1.25.39.39 0 01-.25.1zm-3.25 5.5a.36.36 0 01-.25-.11.35.35 0 01-.1-.24.4.4 0 01.1-.25.37.37 0 01.5 0 .37.37 0 01.1.25.33.33 0 01-.11.25.34.34 0 01-.24.1zM34 41.6a.39.39 0 01-.25-.1.36.36 0 010-.5.37.37 0 01.5 0 .36.36 0 010 .5.39.39 0 01-.25.1zm6.75 6.5a.39.39 0 01-.25-.1.36.36 0 010-.5.35.35 0 01.49 0 .34.34 0 01.11.25.39.39 0 01-.1.25.39.39 0 01-.25.1zm5 4.25a.39.39 0 01-.25-.1.4.4 0 01-.1-.25.33.33 0 01.11-.25.35.35 0 01.59.25.39.39 0 01-.1.25.39.39 0 01-.25.1zm.75 4.5a.39.39 0 01-.25-.1.36.36 0 010-.5.35.35 0 01.49 0 .36.36 0 01.11.25.39.39 0 01-.1.25.39.39 0 01-.25.1zM42 59.6a.34.34 0 01-.24-.1.36.36 0 01-.11-.25.4.4 0 01.1-.25.37.37 0 01.5 0 .36.36 0 010 .5.39.39 0 01-.25.1zm-2 3.25a.39.39 0 01-.25-.1.36.36 0 010-.5.37.37 0 01.5 0 .36.36 0 010 .5.37.37 0 01-.25.1zm-4 0a.39.39 0 01-.25-.1.4.4 0 01-.1-.25.33.33 0 01.11-.25.35.35 0 01.59.25.39.39 0 01-.1.25.39.39 0 01-.25.1zm.5-10a.39.39 0 01-.25-.1.35.35 0 01-.1-.25.4.4 0 01.1-.25.36.36 0 01.5 0 .32.32 0 01.1.24.39.39 0 01-.1.25.39.39 0 01-.25.11zM30 63.6a.34.34 0 01-.24-.1.36.36 0 01-.11-.25.33.33 0 01.11-.25.36.36 0 01.49 0 .35.35 0 01.1.25.39.39 0 01-.1.25.39.39 0 01-.25.1zm1.5 5a.39.39 0 01-.25-.1.36.36 0 010-.5.37.37 0 01.5 0 .36.36 0 010 .5.39.39 0 01-.25.1zm5.5 2.5a.39.39 0 01-.25-.1.38.38 0 01-.1-.25.33.33 0 01.11-.25.36.36 0 01.49 0 .35.35 0 01.1.25.37.37 0 01-.1.25.39.39 0 01-.25.1zm26-14a.39.39 0 01-.25-.1.4.4 0 01-.1-.25.33.33 0 01.11-.25.36.36 0 01.49 0 .35.35 0 01.1.25.39.39 0 01-.1.25.39.39 0 01-.25.1zm-3-6.25a.33.33 0 01-.25-.11.35.35 0 01-.1-.24.35.35 0 01.59-.25.36.36 0 01.11.25.39.39 0 01-.1.25.37.37 0 01-.25.1zm-5.5-.25a.39.39 0 01-.25-.1.38.38 0 01-.1-.25.35.35 0 01.7 0 .35.35 0 01-.1.24.34.34 0 01-.25.11zm.25-8.75a.36.36 0 01-.25-.11.33.33 0 01-.1-.24.4.4 0 01.1-.25.37.37 0 01.5 0 .39.39 0 01.1.25.34.34 0 01-.11.25.34.34 0 01-.24.1zm7.75.5a.39.39 0 01-.25-.1.36.36 0 010-.5.37.37 0 01.5 0 .36.36 0 010 .5.39.39 0 01-.25.1zM67 47.6a.34.34 0 01-.24-.1.36.36 0 01-.11-.25.4.4 0 01.1-.25.36.36 0 01.49 0 .32.32 0 01.11.25.39.39 0 01-.1.25.39.39 0 01-.25.1zm2.5 6.75a.34.34 0 01-.24-.1.36.36 0 01-.11-.25.4.4 0 01.1-.25.36.36 0 01.6.25.39.39 0 01-.1.25.39.39 0 01-.25.1zm-6 7.5a.34.34 0 01-.24-.1.36.36 0 01-.11-.25.4.4 0 01.1-.25.36.36 0 01.49 0 .32.32 0 01.11.25.39.39 0 01-.1.25.39.39 0 01-.25.1zm6.75-.75A.39.39 0 0170 61a.4.4 0 01-.1-.25.33.33 0 01.1-.25.36.36 0 01.49 0 .35.35 0 01.1.25.39.39 0 01-.1.25.39.39 0 01-.24.1zm-5.5 4.5a.39.39 0 01-.25-.1.36.36 0 010-.5.36.36 0 01.5 0 .35.35 0 01.1.24.39.39 0 01-.1.25.39.39 0 01-.25.11zm1 2.75a.39.39 0 01-.25-.1.36.36 0 010-.5.37.37 0 01.5 0 .36.36 0 010 .5.39.39 0 01-.25.1zm-3.25 2a.39.39 0 01-.25-.1.4.4 0 01-.1-.25.34.34 0 01.11-.25.36.36 0 01.49 0 .32.32 0 01.1.24.39.39 0 01-.1.25.39.39 0 01-.25.11zm-9.75-.5a.35.35 0 01-.25-.1.36.36 0 010-.5.36.36 0 01.6.25.39.39 0 01-.1.25.37.37 0 01-.25.1zm-8-3.25a.34.34 0 01-.25-.11.35.35 0 01-.1-.24.33.33 0 01.11-.25.36.36 0 01.49 0 .35.35 0 01.1.25.39.39 0 01-.1.25.39.39 0 01-.25.1zM28.5 71.35a.39.39 0 01-.25-.1.36.36 0 01-.1-.25.33.33 0 01.11-.25.35.35 0 01.59.25.33.33 0 01-.11.25.34.34 0 01-.24.1zM3 29.6a.39.39 0 01-.25-.1.36.36 0 010-.5.38.38 0 01.5 0 .36.36 0 010 .5.39.39 0 01-.25.1zM13.25 5.1A.36.36 0 0113 5a.32.32 0 01-.1-.24.38.38 0 01.1-.26.36.36 0 01.6.25.33.33 0 01-.11.25.34.34 0 01-.24.1zm57 29.5a.39.39 0 01-.25-.1.4.4 0 01-.1-.25.33.33 0 01.1-.25.36.36 0 01.49 0 .35.35 0 01.1.25.39.39 0 01-.1.25.39.39 0 01-.24.1zm1 6.75a.39.39 0 01-.25-.1.36.36 0 010-.5.37.37 0 01.5 0 .36.36 0 010 .5.39.39 0 01-.25.1zM1 51.85a.39.39 0 01-.25-.1.4.4 0 01-.1-.25.33.33 0 01.11-.25.36.36 0 01.49 0 .35.35 0 01.1.25.39.39 0 01-.1.25.39.39 0 01-.25.1zM72 23.6a.39.39 0 01-.25-.1.36.36 0 010-.5.38.38 0 01.5 0 .36.36 0 010 .5.39.39 0 01-.25.1zm-3 3a.39.39 0 01-.25-.1.36.36 0 010-.5.37.37 0 01.5 0 .39.39 0 01.1.25.35.35 0 01-.1.25.39.39 0 01-.25.1zm-.5 33.75a.39.39 0 01-.25-.1.4.4 0 01-.1-.25.35.35 0 01.6-.25.36.36 0 010 .5.39.39 0 01-.25.1zm3 8a.39.39 0 01-.25-.1.36.36 0 010-.5.37.37 0 01.5 0 .39.39 0 01.1.25.35.35 0 01-.1.25.39.39 0 01-.25.1zm-71-10.5a.39.39 0 01-.25-.1.36.36 0 010-.5.38.38 0 01.5 0 .36.36 0 010 .5.39.39 0 01-.25.1zm2.25 13.5a.39.39 0 01-.25-.1.36.36 0 010-.5.36.36 0 01.6.25.39.39 0 01-.1.25.39.39 0 01-.25.1zm67.5-47.25A.39.39 0 0170 24a.4.4 0 01-.1-.25.33.33 0 01.1-.25.36.36 0 01.49 0 .35.35 0 01.1.25.39.39 0 01-.1.25.39.39 0 01-.24.1zm-69-7.25a.39.39 0 01-.25-.1.36.36 0 010-.5.38.38 0 01.5 0 .36.36 0 010 .5.39.39 0 01-.25.1zM18 13.15a.65.65 0 01-.65-.65.66.66 0 01.19-.46.68.68 0 01.92 0 .65.65 0 01-.46 1.11zm11.25-2a.66.66 0 01-.46-.19.68.68 0 01-.19-.46.66.66 0 01.19-.46.67.67 0 01.92 0 .66.66 0 01.19.46.65.65 0 01-.65.65zm0-7.5A.65.65 0 0128.6 3a.64.64 0 01.19-.46.68.68 0 01.92 0 .65.65 0 010 .92.68.68 0 01-.46.19zm11 7a.65.65 0 01-.65-.65.66.66 0 01.19-.46.68.68 0 01.92 0 .63.63 0 01.19.46.68.68 0 01-.19.46.66.66 0 01-.46.19zm4.75 1.5a.61.61 0 01-.46-.2.63.63 0 01-.19-.45.66.66 0 01.19-.46.68.68 0 01.92 0 .63.63 0 01.19.46.61.61 0 01-.2.46.6.6 0 01-.45.19zm2.25 11a.65.65 0 01-.46-1.15.68.68 0 01.92 0 .65.65 0 01-.46 1.11zm7.5-16a.64.64 0 01-.46-.15.65.65 0 010-.92.68.68 0 01.92 0 .64.64 0 01.19.46.66.66 0 01-.19.46.64.64 0 01-.46.15zM64 6.9a.65.65 0 01-.46-1.11.68.68 0 01.92 0A.65.65 0 0164 6.9zm1-4a.66.66 0 01-.46-.19.68.68 0 01-.19-.46.66.66 0 01.19-.46.68.68 0 01.92 0 .68.68 0 01.19.46.62.62 0 01-.18.45.67.67 0 01-.47.2zm4.5 15.5a.65.65 0 01-.5-1.11.67.67 0 01.92 0 .65.65 0 01-.46 1.11zM8 47.4a.64.64 0 01-.46-.19.68.68 0 01-.19-.46.66.66 0 01.19-.46.68.68 0 01.92 0 .66.66 0 01.19.46.68.68 0 01-.19.46.64.64 0 01-.46.19zm-3 9.75a.64.64 0 01-.46-.15.65.65 0 010-.92.67.67 0 01.92 0 .65.65 0 010 .92.64.64 0 01-.46.15zM2.25 67.4a.66.66 0 01-.46-.19.68.68 0 01-.19-.46.66.66 0 01.19-.46.68.68 0 01.92 0 .66.66 0 01.19.46.68.68 0 01-.19.46.66.66 0 01-.46.19zm15.5 2.75a.66.66 0 01-.46-.19.68.68 0 01-.19-.46.66.66 0 01.19-.46.68.68 0 01.92 0 .66.66 0 01.19.46.68.68 0 01-.19.46.66.66 0 01-.46.19zm1.5-7.5a.65.65 0 01-.65-.65.64.64 0 01.19-.46.67.67 0 01.92 0 .66.66 0 01.19.46.68.68 0 01-.19.46.66.66 0 01-.46.19zm1.75-17a.65.65 0 01-.65-.65.64.64 0 01.19-.46.67.67 0 01.92 0 .66.66 0 01.19.46.68.68 0 01-.19.46.64.64 0 01-.46.19zm7.5 5.75a.65.65 0 01-.5-1.11.67.67 0 01.92 0 .66.66 0 01.19.46.68.68 0 01-.19.46.64.64 0 01-.42.19zm5.5 9.25a.65.65 0 01-.65-.65.64.64 0 01.19-.46.68.68 0 01.92 0 .63.63 0 01.19.46.64.64 0 01-.19.46.66.66 0 01-.46.19zm.25 6.5a.64.64 0 01-.46-.19.65.65 0 010-.92.67.67 0 01.92 0 .65.65 0 010 .92.66.66 0 01-.46.19zm7.5-11.75a.65.65 0 01-.46-1.11.68.68 0 01.92 0 .65.65 0 01-.46 1.11zm10.5 4.75a.65.65 0 01-.46-1.15.68.68 0 01.92 0 .65.65 0 01-.46 1.11zm2.75 5.5a.66.66 0 01-.46-.19.68.68 0 01-.19-.46.64.64 0 01.19-.46.68.68 0 01.92 0 .64.64 0 01.19.46.68.68 0 01-.19.46.66.66 0 01-.46.19zM25.25 24.9a.66.66 0 01-.46-.19.68.68 0 01-.19-.46.66.66 0 01.19-.46.68.68 0 01.92 0 .66.66 0 01.19.46.68.68 0 01-.19.46.66.66 0 01-.46.19zm10-1.25a.64.64 0 01-.46-.19.65.65 0 010-.92.68.68 0 01.92 0 .65.65 0 01-.46 1.11zM45 29.9a.65.65 0 01-.46-1.11.68.68 0 01.92 0 .63.63 0 01.19.46.67.67 0 01-.65.65zm7 13.5a.65.65 0 01-.46-1.11.67.67 0 01.92 0 .64.64 0 01.19.46.65.65 0 01-.65.65zm15 8.75a.65.65 0 01-.65-.65.61.61 0 01.2-.46.67.67 0 01.91 0 .65.65 0 01-.46 1.11zm-19.75-4a.65.65 0 01-.46-1.15.68.68 0 01.92 0 .65.65 0 01-.46 1.11zM37 44.9a.66.66 0 01-.46-.19.68.68 0 01-.19-.46.66.66 0 01.19-.46.68.68 0 01.92 0 .66.66 0 01.19.46.68.68 0 01-.19.46.66.66 0 01-.46.19zm-20-16a.65.65 0 01-.46-1.11.68.68 0 01.92 0 .65.65 0 010 .92.64.64 0 01-.46.19zm-5.75 8.25a.65.65 0 01-.65-.65.64.64 0 01.19-.46.67.67 0 01.92 0 .65.65 0 01-.46 1.11zm56.25-6A.66.66 0 0167 31a.68.68 0 01-.19-.46A.66.66 0 0167 30a.68.68 0 011 0 .64.64 0 01.19.46.65.65 0 01-.65.65zm-60.25-15a.67.67 0 01-.65-.65.66.66 0 01.19-.5.67.67 0 01.92 0 .65.65 0 010 .92.64.64 0 01-.46.23zM8.5 5.65a.68.68 0 01-.5-.19.66.66 0 01-.15-.46.64.64 0 01.15-.46.67.67 0 01.92 0 .64.64 0 01.23.46.65.65 0 01-.65.65zm-5-2.75a.66.66 0 01-.5-.19.68.68 0 01-.19-.46.66.66 0 01.19-.46.68.68 0 01.92 0 .66.66 0 01.19.46.68.68 0 01-.11.46.66.66 0 01-.5.19zm63 34.75a.65.65 0 01-.5-1.11.68.68 0 01.92 0 .64.64 0 01.19.46.66.66 0 01-.19.46.64.64 0 01-.42.19zM44 63.4a.66.66 0 01-.46-.19.68.68 0 01-.19-.46.66.66 0 01.19-.46.67.67 0 01.92 0 .66.66 0 01.19.46.68.68 0 01-.19.46.66.66 0 01-.46.19zm-18.25 7a.66.66 0 01-.46-.19.68.68 0 01-.19-.46.66.66 0 01.19-.46.67.67 0 01.92 0 .66.66 0 01.19.46.68.68 0 01-.19.46.66.66 0 01-.46.19zM22 42.15a.66.66 0 01-.46-.19.65.65 0 010-.92.68.68 0 01.92 0 .65.65 0 01-.46 1.11zm2-12.75a.66.66 0 01-.46-.19.68.68 0 01-.19-.46.66.66 0 01.19-.46.67.67 0 01.92 0 .64.64 0 01.19.46.65.65 0 01-.65.65zm17.5 5.5a.65.65 0 01-.5-1.11.68.68 0 01.92 0 .66.66 0 01.19.46.68.68 0 01-.19.46.66.66 0 01-.42.19zm26 9.25A.66.66 0 0167 44a.68.68 0 01-.19-.46A.66.66 0 0167 43a.68.68 0 011 0 .64.64 0 01.19.46.65.65 0 01-.65.65zM53.25 15.4a.65.65 0 01-.46-1.11.68.68 0 01.92 0 .66.66 0 01.19.46.68.68 0 01-.19.46.66.66 0 01-.46.19zM34 16.4a.66.66 0 01-.46-.19.68.68 0 01-.19-.46.64.64 0 01.19-.46.68.68 0 01.92 0 .64.64 0 01.19.46.65.65 0 01-.65.65zm-21.25 3.25a.65.65 0 01-.46-1.11.67.67 0 01.92 0 .65.65 0 01-.46 1.11zM49.5 4.9a.65.65 0 01-.5-1.11.68.68 0 01.92 0 .65.65 0 01-.42 1.11zM59 21.15a.65.65 0 01-.46-1.15.68.68 0 01.92 0 .64.64 0 01.19.46.65.65 0 01-.65.65zm8.5 36.5a.66.66 0 01-.46-.19.68.68 0 01-.19-.46.66.66 0 01.19-.46.68.68 0 01.92 0 .64.64 0 01.19.46.65.65 0 01-.65.65zM5.25 70.15a.64.64 0 01-.46-.15.65.65 0 010-.92.67.67 0 01.92 0 .65.65 0 010 .92.64.64 0 01-.46.15zm-2.5-56.5a.61.61 0 01-.46-.2.62.62 0 01-.19-.45.66.66 0 01.19-.46.67.67 0 01.92 0 .65.65 0 010 .92.64.64 0 01-.46.19zm13.75-10a.65.65 0 01-.5-1.11.68.68 0 01.92 0 .65.65 0 01-.46 1.11zm24 1.25a.65.65 0 01-.5-1.11.68.68 0 01.92 0 .64.64 0 01.19.46.65.65 0 01-.65.65zM2.75 32.4a.64.64 0 01-.46-.19.65.65 0 010-.92.68.68 0 01.92 0 .65.65 0 01-.46 1.11zm4.75-7a.64.64 0 01-.5-.19.65.65 0 010-.92.68.68 0 01.92 0 .64.64 0 01.19.46.66.66 0 01-.19.46.64.64 0 01-.42.19zM4 47.15a.66.66 0 01-.46-.15.68.68 0 01-.19-.46.66.66 0 01.19-.54.67.67 0 01.92 0 .66.66 0 01.19.46.68.68 0 01-.19.46.64.64 0 01-.46.23zm7 3.75a.66.66 0 01-.46-.19.68.68 0 01-.19-.46.64.64 0 01.19-.46.68.68 0 01.92 0 .66.66 0 01.19.46.68.68 0 01-.19.46.66.66 0 01-.46.19zm-1 9.25a.64.64 0 01-.46-.15.65.65 0 010-.92.68.68 0 01.92 0 .65.65 0 010 .92.64.64 0 01-.46.15zm3.5 6A.66.66 0 0113 66a.68.68 0 01-.19-.46A.64.64 0 0113 65a.67.67 0 011 0 .66.66 0 01.19.46.68.68 0 01-.19.54.66.66 0 01-.5.15zm8.5-12.5a.66.66 0 01-.46-.19.64.64 0 01-.19-.46.6.6 0 01.2-.46.65.65 0 011.1.46.68.68 0 01-.19.46.66.66 0 01-.46.19zm9.25-15.75a.66.66 0 01-.46-.19.68.68 0 01-.19-.46.66.66 0 01.19-.46.68.68 0 01.92 0 .66.66 0 01.19.46.68.68 0 01-.19.46.66.66 0 01-.46.19zM26 34.4a.65.65 0 01-.46-1.11.67.67 0 01.92 0A.65.65 0 0126 34.4zm11.25-5.5a.66.66 0 01-.46-.19.68.68 0 01-.19-.46.66.66 0 01.19-.46.68.68 0 01.92 0 .66.66 0 01.19.46.68.68 0 01-.19.46.66.66 0 01-.46.19zm24.5-12a.66.66 0 01-.46-.19.68.68 0 01-.19-.46.66.66 0 01.19-.46.68.68 0 01.92 0 .64.64 0 01.19.46.65.65 0 01-.65.65zm-.5 10.5a.64.64 0 01-.46-.19.68.68 0 01-.19-.46.66.66 0 01.19-.46.68.68 0 01.92 0 .65.65 0 010 .92.64.64 0 01-.46.19zm-2.5 30a.66.66 0 01-.46-.19.68.68 0 01-.19-.46.66.66 0 01.19-.46.68.68 0 01.92 0 .66.66 0 01.19.46.68.68 0 01-.19.46.66.66 0 01-.46.19zm.5-12.75a.64.64 0 01-.46-.19.65.65 0 010-.92.68.68 0 01.92 0 .65.65 0 010 .92.64.64 0 01-.46.19zm-3.5-8.75a.66.66 0 01-.46-.19.68.68 0 01-.19-.46.66.66 0 01.19-.46.68.68 0 01.92 0 .66.66 0 01.19.46.68.68 0 01-.19.46.66.66 0 01-.46.19zm13.5 35a.68.68 0 01-.46-.19.65.65 0 010-.92.69.69 0 01.92 0 .65.65 0 01-.46 1.11zm-8.5-4.75a.65.65 0 01-.46-1.15.67.67 0 01.92 0 .64.64 0 01.19.46.65.65 0 01-.65.65zm-16.25 5.5a.65.65 0 01-.5-1.11.68.68 0 01.92 0 .65.65 0 01-.46 1.11zM24.5 1.4a.65.65 0 01-.65-.65.64.64 0 01.15-.46.67.67 0 01.92 0 .66.66 0 01.19.46.68.68 0 01-.19.46.64.64 0 01-.42.19zM0 23.6a.39.39 0 01-.25-.1.36.36 0 010-.5.38.38 0 01.5 0 .39.39 0 01.1.25.39.39 0 01-.1.25.39.39 0 01-.25.1z" fill="#222221"/></pattern></defs><g data-name="Lager 2"><path fill="url(#a)" d="M0 0h2150v2150H0z" data-name="Layer 1"/></g></svg>