<?xml version="1.0" encoding="utf-8"?>
<!-- Generator: Adobe Illustrator 21.0.0, SVG Export Plug-In . SVG Version: 6.00 Build 0)  -->
<svg version="1.1" id="Layer_1" xmlns="http://www.w3.org/2000/svg" xmlns:xlink="http://www.w3.org/1999/xlink" x="0px" y="0px"
	 viewBox="0 0 2150 2150" enable-background="new 0 0 2150 2150" xml:space="preserve">
<pattern  width="72" height="72" patternUnits="userSpaceOnUse" id="Random_V" viewBox="5.4 -76.8 72 72" overflow="visible">
	<g>
		<rect x="5.4" y="-76.8" fill="none" width="72" height="72"/>
		<g>
			<polyline fill="none" stroke="#222221" stroke-width="0.3" points="54.1,-48.9 47.4,-51.7 49.4,-44.6 			"/>
			<polyline fill="none" stroke="#222221" stroke-width="0.3" points="38.2,-58.2 45.3,-61.8 38.6,-63.8 			"/>
			<polyline fill="none" stroke="#222221" stroke-width="0.3" points="55.5,-50.5 61.7,-54.1 55.4,-57.9 			"/>
			<polyline fill="none" stroke="#222221" stroke-width="0.3" points="35.4,-48.3 35.1,-56 29.8,-51.5 			"/>
			<polyline fill="none" stroke="#222221" stroke-width="0.3" points="65.6,-32.5 72.1,-29.3 70.5,-36.5 			"/>
			<polyline fill="none" stroke="#222221" stroke-width="0.3" points="63.6,-17 63.6,-24.2 57.8,-19.6 			"/>
			<polyline fill="none" stroke="#222221" stroke-width="0.3" points="58.3,-32 58.2,-24.8 64.1,-29.3 			"/>
			<polyline fill="none" stroke="#222221" stroke-width="0.3" points="51.9,-39.1 59.1,-39.5 54.2,-45 			"/>
			<polyline fill="none" stroke="#222221" stroke-width="0.3" points="48.8,-33.1 54.6,-28.8 54.4,-36.2 			"/>
			<polyline fill="none" stroke="#222221" stroke-width="0.3" points="37.6,-24.9 34.2,-29.4 32.1,-24.2 			"/>
			<polyline fill="none" stroke="#222221" stroke-width="0.3" points="38.7,-35.5 45.4,-32.7 42.6,-39.5 			"/>
			<polyline fill="none" stroke="#222221" stroke-width="0.3" points="21.7,-23.2 19.1,-30.4 14.8,-24.3 			"/>
			<polyline fill="none" stroke="#222221" stroke-width="0.3" points="39.9,-49.1 39.4,-42.9 45.7,-46.5 			"/>
			<polyline fill="none" stroke="#222221" stroke-width="0.3" points="13.8,-57.3 20.1,-53.8 18.9,-61.1 			"/>
			<polyline fill="none" stroke="#222221" stroke-width="0.3" points="31.8,-36.2 26.2,-40.8 26.1,-33.3 			"/>
			<polyline fill="none" stroke="#222221" stroke-width="0.3" points="29.9,-56 24.1,-62.1 23.4,-53.9 			"/>
			<polyline fill="none" stroke="#222221" stroke-width="0.3" points="30.6,-21.5 33,-14.8 37.7,-22.6 			"/>
			<polyline fill="none" stroke="#222221" stroke-width="0.3" points="48.3,-62.7 48.6,-54.5 53.7,-59.9 			"/>
			<polyline fill="none" stroke="#222221" stroke-width="0.3" points="23.4,-39.1 16.9,-40.5 19.9,-33.7 			"/>
			<polyline fill="none" stroke="#222221" stroke-width="0.3" points="68.6,-27.1 66.4,-20.3 73.3,-22.8 			"/>
			<polyline fill="none" stroke="#222221" stroke-width="0.3" points="63.6,-40.1 60.3,-33.9 66.9,-34.6 			"/>
			<polyline fill="none" stroke="#222221" stroke-width="0.3" points="59,-67.8 66.2,-67.7 61.7,-73.6 			"/>
			<polyline fill="none" stroke="#222221" stroke-width="0.3" points="70.2,-72.8 70.2,-65.5 76,-70.1 			"/>
			<polyline fill="none" stroke="#222221" stroke-width="0.3" points="32,-39.6 36,-45.6 28.6,-44.9 			"/>
			<polyline fill="none" stroke="#222221" stroke-width="0.3" points="45.4,-56.3 38.1,-56.4 42.6,-50.5 			"/>
			<polyline fill="none" stroke="#222221" stroke-width="0.3" points="36.1,-7.3 39.2,-15.1 31.6,-11.9 			"/>
			<polyline fill="none" stroke="#222221" stroke-width="0.3" points="71.8,-61.7 65.4,-65 66.9,-57.7 			"/>
			<polyline fill="none" stroke="#222221" stroke-width="0.3" points="40.4,-26.8 46.8,-24.1 44.1,-31 			"/>
			<polyline fill="none" stroke="#222221" stroke-width="0.3" points="48.1,-26.4 55.1,-24.5 49.1,-20.1 			"/>
			<polyline fill="none" stroke="#222221" stroke-width="0.3" points="27,-53.6 23.4,-47.3 30.5,-47.5 			"/>
			<polyline fill="none" stroke="#222221" stroke-width="0.3" points="63.4,-14.4 57,-11 63.7,-8 			"/>
			<polyline fill="none" stroke="#222221" stroke-width="0.3" points="53.4,-19.9 52.7,-12.7 59,-16.7 			"/>
			<polyline fill="none" stroke="#222221" stroke-width="0.3" points="47.5,-71.9 45.7,-64.2 52.5,-67.6 			"/>
			<polyline fill="none" stroke="#222221" stroke-width="0.3" points="65.6,-14.9 72.3,-12.1 70.3,-19.2 			"/>
			<polyline fill="none" stroke="#222221" stroke-width="0.3" points="17.1,-51.8 10.3,-54.5 13.4,-47.5 			"/>
			<polyline fill="none" stroke="#222221" stroke-width="0.3" points="26.6,-15 27.3,-24.1 20.8,-19.6 			"/>
			<polyline fill="none" stroke="#222221" stroke-width="0.3" points="18.1,-19.9 11.7,-23.3 13.1,-16 			"/>
			<polyline fill="none" stroke="#222221" stroke-width="0.3" points="29.1,-73.6 27.4,-67.4 34.5,-69.5 			"/>
			<polyline fill="none" stroke="#222221" stroke-width="0.3" points="11.4,-66.5 11.3,-59.2 17.1,-63.7 			"/>
			<polyline fill="none" stroke="#222221" stroke-width="0.3" points="17,-17.2 19.9,-10.5 23.4,-17 			"/>
			<polyline fill="none" stroke="#222221" stroke-width="0.3" points="23.3,-33.5 24.2,-26.3 30.1,-31.3 			"/>
			<polyline fill="none" stroke="#222221" stroke-width="0.3" points="44.4,-10.6 50.9,-7.3 49.6,-15.5 			"/>
			<polyline fill="none" stroke="#222221" stroke-width="0.3" points="73.1,-43.5 66.7,-47.1 67.4,-40.2 			"/>
			<polyline fill="none" stroke="#222221" stroke-width="0.3" points="64.7,-55.2 68.9,-49.3 71,-56.4 			"/>
			<polyline fill="none" stroke="#222221" stroke-width="0.3" points="57.9,-48 60.6,-43 63.7,-49.7 			"/>
			<polyline fill="none" stroke="#222221" stroke-width="0.3" points="13,-75 7,-70.9 14.1,-68.8 			"/>
			<polyline fill="none" stroke="#222221" stroke-width="0.3" points="54,-64.5 57.8,-70.7 52.4,-70.8 			"/>
			<polyline fill="none" stroke="#222221" stroke-width="0.3" points="12.3,-13.6 9.3,-7 16.5,-8.8 			"/>
			<polyline fill="none" stroke="#222221" stroke-width="0.3" points="31.1,-7.1 24.9,-10.9 25.9,-3.5 			"/>
			<polyline fill="none" stroke="#222221" stroke-width="0.3" points="46,-20.5 40.1,-19.5 45.3,-14.1 			"/>
			<polyline fill="none" stroke="#222221" stroke-width="0.3" points="52.3,-41.5 45.1,-42 49.3,-35.9 			"/>
			<polyline fill="none" stroke="#222221" stroke-width="0.3" points="49.3,-3 43.5,-7.4 43.6,0 			"/>
			<polyline fill="none" stroke="#222221" stroke-width="0.3" points="60.6,-65.9 56.6,-59.9 64,-60.6 			"/>
			<polyline fill="none" stroke="#222221" stroke-width="0.3" points="17.4,-70.6 21,-64.3 23.7,-71.2 			"/>
			<polyline fill="none" stroke="#222221" stroke-width="0.3" points="11,-27.6 16.9,-31.7 9.8,-33.9 			"/>
			<polyline fill="none" stroke="#222221" stroke-width="0.3" points="19.9,-41.4 21.5,-49.9 14.2,-44.4 			"/>
			<polyline fill="none" stroke="#222221" stroke-width="0.3" points="12.7,-41.2 7.6,-37.1 15,-36.3 			"/>
			<polyline fill="none" stroke="#222221" stroke-width="0.3" points="63,-5.9 68.6,-1.4 69.2,-10.3 			"/>
			<polyline fill="none" stroke="#222221" stroke-width="0.3" points="33.1,-7.1 36.4,-0.6 39.5,-7.3 			"/>
			<polyline fill="none" stroke="#222221" stroke-width="0.3" points="58.8,-0.2 57.8,-7.4 52.7,-2.1 			"/>
			<polyline fill="none" stroke="#222221" stroke-width="0.3" points="21.1,-1 20.5,-8.2 15.1,-3.2 			"/>
			<polyline fill="none" stroke="#222221" stroke-width="0.3" points="43.8,-67.5 39.3,-73.2 37.4,-66 			"/>
			<polyline fill="none" stroke="#222221" stroke-width="0.3" points="78.3,-43.1 77,-35.9 72.1,-41.5 			"/>
			<polyline fill="none" stroke="#222221" stroke-width="0.3" points="72.6,-52 79,-55.5 72.1,-58.4 			"/>
			<polyline fill="none" stroke="#222221" stroke-width="0.3" points="80.1,-51.5 75.2,-46.2 82.5,-45.6 			"/>
			<polyline fill="none" stroke="#222221" stroke-width="0.3" points="79.9,-3.3 74.8,-8.4 73.9,-1.1 			"/>
			<polyline fill="none" stroke="#222221" stroke-width="0.3" points="77.4,-59 80.7,-65.5 73.4,-64 			"/>
			<polyline fill="none" stroke="#222221" stroke-width="0.3" points="77.9,-11.6 82.1,-17.5 74.7,-17.1 			"/>
			<polyline fill="none" stroke="#222221" stroke-width="0.3" points="81.2,-26.1 75.6,-21.5 82.9,-19.9 			"/>
			<polyline fill="none" stroke="#222221" stroke-width="0.3" points="77.7,-26.4 75.2,-33.2 82.2,-30.9 			"/>
			<polyline fill="none" stroke="#222221" stroke-width="0.3" points="36.2,-60.2 32.8,-66.6 29.8,-59.8 			"/>
			<polyline fill="none" stroke="#222221" stroke-width="0.3" points="35.9,-38.2 32.4,-32.9 37.5,-32.3 			"/>
		</g>
		<g>
			<polyline fill="none" stroke="#222221" stroke-width="0.3" points="6.3,-43.1 5,-35.9 0.1,-41.5 			"/>
			<polyline fill="none" stroke="#222221" stroke-width="0.3" points="0.6,-52 7,-55.5 0.1,-58.4 			"/>
			<polyline fill="none" stroke="#222221" stroke-width="0.3" points="8.1,-51.5 3.2,-46.2 10.5,-45.6 			"/>
			<polyline fill="none" stroke="#222221" stroke-width="0.3" points="7.9,-3.3 2.8,-8.4 1.9,-1.1 			"/>
			<polyline fill="none" stroke="#222221" stroke-width="0.3" points="5.4,-59 8.7,-65.5 1.4,-64 			"/>
			<polyline fill="none" stroke="#222221" stroke-width="0.3" points="5.9,-11.6 10.1,-17.5 2.7,-17.1 			"/>
			<polyline fill="none" stroke="#222221" stroke-width="0.3" points="9.2,-26.1 3.6,-21.5 10.9,-19.9 			"/>
			<polyline fill="none" stroke="#222221" stroke-width="0.3" points="5.7,-26.4 3.2,-33.2 10.2,-30.9 			"/>
		</g>
		<g>
			<polyline fill="none" stroke="#222221" stroke-width="0.3" points="31.1,-79.1 24.9,-82.9 25.9,-75.5 			"/>
			<polyline fill="none" stroke="#222221" stroke-width="0.3" points="49.3,-75 43.5,-79.4 43.6,-72 			"/>
			<polyline fill="none" stroke="#222221" stroke-width="0.3" points="63,-77.9 68.6,-73.4 69.2,-82.3 			"/>
			<polyline fill="none" stroke="#222221" stroke-width="0.3" points="33.1,-79.1 36.4,-72.6 39.5,-79.3 			"/>
			<polyline fill="none" stroke="#222221" stroke-width="0.3" points="58.8,-72.2 57.8,-79.4 52.7,-74.1 			"/>
			<polyline fill="none" stroke="#222221" stroke-width="0.3" points="21.1,-73 20.5,-80.2 15.1,-75.2 			"/>
			<polyline fill="none" stroke="#222221" stroke-width="0.3" points="79.9,-75.3 74.8,-80.4 73.9,-73.1 			"/>
		</g>
		<g>
			<polyline fill="none" stroke="#222221" stroke-width="0.3" points="7.9,-75.3 2.8,-80.4 1.9,-73.1 			"/>
		</g>
	</g>
</pattern>
<pattern  id="SVGID_1_" xlink:href="#Random_V" patternTransform="matrix(10.6667 0 0 10.6667 67638.8281 47521.3203)">
</pattern>
<rect fill="url(#SVGID_1_)" width="2150" height="2150"/>
</svg>
