<?xml version="1.0" encoding="utf-8"?>
<!-- Generator: Adobe Illustrator 21.0.0, SVG Export Plug-In . SVG Version: 6.00 Build 0)  -->
<svg version="1.1" id="_x31_" xmlns="http://www.w3.org/2000/svg" xmlns:xlink="http://www.w3.org/1999/xlink" x="0px" y="0px"
	 viewBox="0 0 425.2 425.2" enable-background="new 0 0 425.2 425.2" xml:space="preserve">
<path fill="none" stroke="#000000" stroke-width="0.7087" stroke-miterlimit="10" d="M0.3,411.8c0,0.5-0.1,0.9-0.3,1.2v-2.4
	C0.2,410.9,0.3,411.3,0.3,411.8z M2.3,60c0-1.5-1.1-2.3-2.3-2.4v4.8C1.2,62.3,2.3,61.5,2.3,60z M2.5,52.5c0-1.6-1.3-2.4-2.5-2.4v4.8
	C1.3,54.9,2.5,54.1,2.5,52.5z M2.7,44.5c0-1.7-1.4-2.5-2.7-2.4V47C1.3,47,2.7,46.2,2.7,44.5z M180.6,365.2c0,3.2,5,3.2,5,0
	S180.6,362,180.6,365.2z M177,357.7c0,3.2,5,3.2,5,0S177,354.5,177,357.7z M168.9,356.7c0,3.2,5,3.2,5,0S168.9,353.4,168.9,356.7z
	 M171,349.1c0,3.2,5,3.2,5,0C176,345.9,171,345.9,171,349.1z M167.2,351.5c0-3.2-5-3.2-5,0C162.2,354.7,167.2,354.7,167.2,351.5z
	 M170,342.6c0-3.2-5-3.2-5,0C165,345.8,170,345.8,170,342.6z M160.9,337.7c0-3.2-5-3.2-5,0C155.9,340.9,160.9,340.9,160.9,337.7z
	 M163.3,344.7c0-3.2-5-3.2-5,0C158.3,347.9,163.3,347.9,163.3,344.7z M152.5,349.9c0,3.2,5,3.2,5,0
	C157.5,346.7,152.5,346.7,152.5,349.9z M155.5,342.9c0-3.2-5-3.2-5,0C150.5,346.1,155.5,346.1,155.5,342.9z M148.2,343.1
	c0-3.2-5-3.2-5,0C143.2,346.4,148.2,346.4,148.2,343.1z M145,350.4c0,3.2,5,3.2,5,0S145,347.2,145,350.4z M142.2,350.9
	c0-3.2-5-3.2-5,0C137.2,354.2,142.2,354.2,142.2,350.9z M137.7,358c0,3.2,5,3.2,5,0S137.7,354.7,137.7,358z M135.4,356.1
	c0-3.2-5-3.2-5,0C130.4,359.4,135.4,359.4,135.4,356.1z M133.6,364.7c0,3.2,5,3.2,5,0S133.6,361.5,133.6,364.7z M135.4,371.5
	c0-3.2-5-3.2-5,0C130.4,374.7,135.4,374.7,135.4,371.5z M127.1,363.2c0,3.2,5,3.2,5,0C132.1,359.9,127.1,359.9,127.1,363.2z
	 M125,358.2c0-3.2-5-3.2-5,0S125,361.4,125,358.2z M122.9,368.9c0,3.2,5,3.2,5,0S122.9,365.6,122.9,368.9z M126.5,377.7
	c0,3.2,5,3.2,5,0C131.5,374.5,126.5,374.5,126.5,377.7z M125.3,382.1c0-3.2-5-3.2-5,0C120.3,385.4,125.3,385.4,125.3,382.1z
	 M116.2,358.2c0-3.2-5-3.2-5,0S116.2,361.4,116.2,358.2z M116.1,364.5c0,3.2,5,3.2,5,0C121.1,361.2,116.1,361.2,116.1,364.5z
	 M117.2,374.1c0,3.2,5,3.2,5,0C122.2,370.8,117.2,370.8,117.2,374.1z M110.2,368.6c0,3.2,5,3.2,5,0
	C115.2,365.4,110.2,365.4,110.2,368.6z M106.1,357.4c0-3.2-5-3.2-5,0S106.1,360.7,106.1,357.4z M111,362.4c0-3.2-5-3.2-5,0
	C106,365.6,111,365.6,111,362.4z M101.9,363.7c0-3.2-5-3.2-5,0C96.9,366.9,101.9,366.9,101.9,363.7z M107.6,369.1c0-3.2-5-3.2-5,0
	S107.6,372.4,107.6,369.1z M94.6,371.2c0,3.2,5,3.2,5,0C99.6,368,94.6,368,94.6,371.2z M92,374.3c0-3.2-5-3.2-5,0
	C87,377.6,92,377.6,92,374.3z M87,381.6c0,3.2,5,3.2,5,0C92,378.4,87,378.4,87,381.6z M85,375.4c0-3.2-5-3.2-5,0S85,378.6,85,375.4z
	 M88.9,388.6c0-3.2-5-3.2-5,0C83.9,391.9,88.9,391.9,88.9,388.6z M80,382.4c0,3.2,5,3.2,5,0C85,379.2,80,379.2,80,382.4z
	 M73.3,371.7c0,3.2,5,3.2,5,0S73.3,368.5,73.3,371.7z M72.7,379.3c0,3.2,5,3.2,5,0C77.7,376,72.7,376,72.7,379.3z M85,411
	c0-3.2-5-3.2-5,0C80,414.2,85,414.2,85,411z M80.8,416.2c0-3.2-5-3.2-5,0S80.8,419.4,80.8,416.2z M75.6,405.5c0,3.2,5,3.2,5,0
	S75.6,402.3,75.6,405.5z M80.8,400.3c0,3.2,5,3.2,5,0C85.8,397.1,80.8,397.1,80.8,400.3z M83.7,393c0-3.2-5-3.2-5,0
	C78.7,396.3,83.7,396.3,83.7,393z M77.2,396.9c0-3.2-5-3.2-5,0S77.2,400.2,77.2,396.9z M78.5,388.1c0-3.2-5-3.2-5,0
	C73.5,391.3,78.5,391.3,78.5,388.1z M70.7,372.5c0-3.2-5-3.2-5,0C65.7,375.7,70.7,375.7,70.7,372.5z M71.2,383.2c0-3.2-5-3.2-5,0
	C66.2,386.4,71.2,386.4,71.2,383.2z M70.7,392.5c0-3.2-5-3.2-5,0C65.7,395.8,70.7,395.8,70.7,392.5z M58.7,379.3c0,3.2,5,3.2,5,0
	C63.7,376,58.7,376,58.7,379.3z M62.9,387.1c0-3.2-5-3.2-5,0S62.9,390.3,62.9,387.1z M62.9,395.9c0-3.2-5-3.2-5,0
	C57.9,399.1,62.9,399.1,62.9,395.9z M55.6,382.6c0-3.2-5-3.2-5,0C50.6,385.9,55.6,385.9,55.6,382.6z M56.2,391.7c0-3.2-5-3.2-5,0
	C51.2,395,56.2,395,56.2,391.7z M51.7,401.6c0,3.2,5,3.2,5,0C56.7,398.4,51.7,398.4,51.7,401.6z M42.8,378.2c0,3.2,5,3.2,5,0
	S42.8,375,42.8,378.2z M44.1,386.8c0,3.2,5,3.2,5,0S44.1,383.6,44.1,386.8z M49.1,395.6c0-3.2-5-3.2-5,0
	C44.1,398.9,49.1,398.9,49.1,395.6z M51.2,406.8c0-3.2-5-3.2-5,0C46.2,410,51.2,410,51.2,406.8z M38.9,404.5c0,3.2,5,3.2,5,0
	C43.9,401.3,38.9,401.3,38.9,404.5z M39.8,395.6c0-3.2-5-3.2-5,0C34.8,398.9,39.8,398.9,39.8,395.6z M42.1,387.6c0-3.2-5-3.2-5,0
	S42.1,390.8,42.1,387.6z M36.6,371.7c0,3.2,5,3.2,5,0S36.6,368.5,36.6,371.7z M36.1,365.2c0-3.2-5-3.2-5,0S36.1,368.5,36.1,365.2z
	 M28.1,364.7c0-3.2-5-3.2-5,0S28.1,367.9,28.1,364.7z M21.1,369.9c0-3.2-5-3.2-5,0C16.1,373.1,21.1,373.1,21.1,369.9z M27,371.2
	c0,3.2,5,3.2,5,0C32,368,27,368,27,371.2z M35,379c0,3.2,5,3.2,5,0S35,375.8,35,379z M31.7,378.2c0-3.2-5-3.2-5,0
	S31.7,381.5,31.7,378.2z M34.6,385c0-3.2-5-3.2-5,0C29.6,388.2,34.6,388.2,34.6,385z M27.8,391.7c0,3.2,5,3.2,5,0
	C32.8,388.5,27.8,388.5,27.8,391.7z M20.7,389.9c0,3.2,5,3.2,5,0C25.7,386.7,20.7,386.7,20.7,389.9z M14.5,393.8c0,3.2,5,3.2,5,0
	S14.5,390.6,14.5,393.8z M16.6,376.1c0-3.2-5-3.2-5,0S16.6,379.4,16.6,376.1z M12,381.9c0-3.2-5-3.2-5,0C7,385.1,12,385.1,12,381.9z
	 M6,386.8c0-3.2-5-3.2-5,0S6,390,6,386.8z M15.6,400.1c0-3.2-5-3.2-5,0C10.6,403.3,15.6,403.3,15.6,400.1z M12.2,406.8
	c0-3.2-5-3.2-5,0C7.2,410,12.2,410,12.2,406.8z M20.7,382.4c0,3.2,5,3.2,5,0C25.7,379.2,20.7,379.2,20.7,382.4z M20.5,374.1
	c0,3.2,5,3.2,5,0C25.5,370.8,20.5,370.8,20.5,374.1z M13.5,383.9c0,3.2,5,3.2,5,0C18.5,380.7,13.5,380.7,13.5,383.9z M13.3,390.2
	c0-3.2-5-3.2-5,0S13.3,393.4,13.3,390.2z M8.6,397.2c0-3.2-5-3.2-5,0C3.6,400.4,8.6,400.4,8.6,397.2z M0,425.2h1.2
	c-0.3-0.3-0.7-0.6-1.2-0.7V425.2z M5.7,419c0-3.2-5-3.2-5,0S5.7,422.3,5.7,419z M6.8,411.2c0-3.2-5-3.2-5,0
	C1.8,414.5,6.8,414.5,6.8,411.2z M4.7,404c0-2.7-3.6-3.1-4.7-1.2v2.5C1.1,407.1,4.7,406.7,4.7,404z M2.6,392.8
	c0-1.7-1.3-2.5-2.6-2.4v4.8C1.3,395.2,2.6,394.4,2.6,392.8z M186.9,372.8c0-3.2-5-3.2-5,0C181.9,376,186.9,376,186.9,372.8z
	 M193.9,375.1c0-3.2-5-3.2-5,0C188.9,378.3,193.9,378.3,193.9,375.1z M183.5,380c0,3.2,5,3.2,5,0C188.5,376.8,183.5,376.8,183.5,380
	z M194.4,380.8c0,3.2,5,3.2,5,0C199.4,377.6,194.4,377.6,194.4,380.8z M188,386.8c0-3.2-5-3.2-5,0S188,390,188,386.8z M207.4,386.8
	c0-3.2-5-3.2-5,0S207.4,390,207.4,386.8z M183,394.9c0,3.2,5,3.2,5,0C188,391.6,183,391.6,183,394.9z M191.3,387.8c0,3.2,5,3.2,5,0
	C196.3,384.6,191.3,384.6,191.3,387.8z M197.3,392.3c0,3.2,5,3.2,5,0C202.3,389,197.3,389,197.3,392.3z M209.5,398.2
	c0-3.2-5-3.2-5,0S209.5,401.5,209.5,398.2z M182.7,403.4c0,3.2,5,3.2,5,0C187.7,400.2,182.7,400.2,182.7,403.4z M195.2,397.2
	c0-3.2-5-3.2-5,0C190.2,400.4,195.2,400.4,195.2,397.2z M202.5,401.4c0-3.2-5-3.2-5,0C197.5,404.6,202.5,404.6,202.5,401.4z
	 M191.1,411c0-3.2-5-3.2-5,0C186.1,414.2,191.1,414.2,191.1,411z M196,404.5c0-3.2-5-3.2-5,0C191,407.7,196,407.7,196,404.5z
	 M199.1,414.1c0-3.2-5-3.2-5,0C194.1,417.3,199.1,417.3,199.1,414.1z M210.6,418.5c0-3.2-5-3.2-5,0
	C205.6,421.7,210.6,421.7,210.6,418.5z M206.1,412c0-3.2-5-3.2-5,0C201.1,415.2,206.1,415.2,206.1,412z M209.5,405.5
	c0-3.2-5-3.2-5,0S209.5,408.7,209.5,405.5z M212.9,411.8c0-3.2-5-3.2-5,0C207.9,415,212.9,415,212.9,411.8z M156,317.9
	c0-3.2-5-3.2-5,0C151,321.1,156,321.1,156,317.9z M143.1,317.9c0,3.2,5,3.2,5,0C148.1,314.7,143.1,314.7,143.1,317.9z M137.6,322.2
	c0,3.2,5,3.2,5,0C142.6,319,137.6,319,137.6,322.2z M133,327.3c0,3.2,5,3.2,5,0C138,324,133,324,133,327.3z M131.7,331.7
	c0-3.2-5-3.2-5,0S131.7,334.9,131.7,331.7z M125.4,335.8c0-3.2-5-3.2-5,0C120.4,339,125.4,339,125.4,335.8z M120.1,330.5
	c0-3.2-5-3.2-5,0C115.1,333.7,120.1,333.7,120.1,330.5z M116,336c0-3.2-5-3.2-5,0C111,339.2,116,339.2,116,336z M109.3,333.1
	c0-3.2-5-3.2-5,0C104.3,336.4,109.3,336.4,109.3,333.1z M104.7,338.2c0-3.2-5-3.2-5,0C99.7,341.4,104.7,341.4,104.7,338.2z
	 M97.4,338.6c0-3.2-5-3.2-5,0C92.4,341.9,97.4,341.9,97.4,338.6z M87.3,343.7c0,3.2,5,3.2,5,0C92.3,340.5,87.3,340.5,87.3,343.7z
	 M85.4,343.9c0-3.2-5-3.2-5,0S85.4,347.1,85.4,343.9z M79.9,338c0-3.2-5-3.2-5,0C74.9,341.2,79.9,341.2,79.9,338z M73,340.7
	c0-3.2-5-3.2-5,0C68,343.9,73,343.9,73,340.7z M74.4,333.1c0-3.2-5-3.2-5,0C69.4,336.4,74.4,336.4,74.4,333.1z M62.9,328.9
	c0,3.2,5,3.2,5,0S62.9,325.7,62.9,328.9z M66.5,335.6c0-3.2-5-3.2-5,0C61.5,338.8,66.5,338.8,66.5,335.6z M62.7,341.3
	c0-3.2-5-3.2-5,0S62.7,344.5,62.7,341.3z M55,339.8c0-3.2-5-3.2-5,0C50,343.1,55,343.1,55,339.8z M54.8,333.3c0,3.2,5,3.2,5,0
	C59.8,330.1,54.8,330.1,54.8,333.3z M56.4,326.2c0,3.2,5,3.2,5,0S56.4,323,56.4,326.2z M53.5,324.6c0-3.2-5-3.2-5,0
	C48.5,327.8,53.5,327.8,53.5,324.6z M53.3,331.9c0-3.2-5-3.2-5,0C48.3,335.2,53.3,335.2,53.3,331.9z M47.2,336.4c0-3.2-5-3.2-5,0
	C42.2,339.6,47.2,339.6,47.2,336.4z M41.4,322.6c0,3.2,5,3.2,5,0S41.4,319.4,41.4,322.6z M41,329.3c0,3.2,5,3.2,5,0
	C46,326.1,41,326.1,41,329.3z M33.7,328.9c0,3.2,5,3.2,5,0S33.7,325.7,33.7,328.9z M36.1,334.8c0,3.2,5,3.2,5,0
	C41.1,331.5,36.1,331.5,36.1,334.8z M28.6,333.3c0,3.2,5,3.2,5,0C33.6,330.1,28.6,330.1,28.6,333.3z M22.9,337.8c0,3.2,5,3.2,5,0
	C27.9,334.5,22.9,334.5,22.9,337.8z M185.8,333.8c0-3.2-5-3.2-5,0C180.8,337,185.8,337,185.8,333.8z M190.9,338.3c0-3.2-5-3.2-5,0
	C185.9,341.5,190.9,341.5,190.9,338.3z M197.7,340.2c0-3.2-5-3.2-5,0C192.7,343.5,197.7,343.5,197.7,340.2z M201.8,346
	c0-3.2-5-3.2-5,0C196.8,349.3,201.8,349.3,201.8,346z M208.6,349.5c0-3.2-5-3.2-5,0C203.6,352.8,208.6,352.8,208.6,349.5z
	 M159.5,423.6c0,0.6,0.2,1.2,0.5,1.5h3.9c0.3-0.4,0.5-0.9,0.5-1.5C164.5,420.4,159.5,420.4,159.5,423.6z M166.2,415.2
	c0-3.2-5-3.2-5,0C161.2,418.4,166.2,418.4,166.2,415.2z M153.7,416.5c0,3.2,5,3.2,5,0C158.7,413.3,153.7,413.3,153.7,416.5z
	 M165.9,407.1c0-3.2-5-3.2-5,0C160.9,410.3,165.9,410.3,165.9,407.1z M165,399.1c0-3.2-5-3.2-5,0C160,402.3,165,402.3,165,399.1z
	 M154.6,409.6c0,3.2,5,3.2,5,0C159.6,406.3,154.6,406.3,154.6,409.6z M153.4,402.1c0,3.2,5,3.2,5,0
	C158.4,398.9,153.4,398.9,153.4,402.1z M162.5,392.6c0-3.2-5-3.2-5,0C157.5,395.9,162.5,395.9,162.5,392.6z M151.2,389.2
	c0,3.2,5,3.2,5,0C156.2,385.9,151.2,385.9,151.2,389.2z M148.5,390.2c0-3.2-5-3.2-5,0C143.5,393.4,148.5,393.4,148.5,390.2z
	 M149.6,396c0,3.2,5,3.2,5,0C154.6,392.7,149.6,392.7,149.6,396z M145.8,397c0-3.2-5-3.2-5,0C140.8,400.2,145.8,400.2,145.8,397z
	 M144.5,404.4c0-3.2-5-3.2-5,0C139.5,407.6,144.5,407.6,144.5,404.4z M146.4,402.9c0,3.2,5,3.2,5,0
	C151.4,399.7,146.4,399.7,146.4,402.9z M147.3,409.9c0,3.2,5,3.2,5,0C152.3,406.7,147.3,406.7,147.3,409.9z M138,411.5
	c0,3.2,5,3.2,5,0C143,408.3,138,408.3,138,411.5z M139.5,418c0-3.2-5-3.2-5,0C134.5,421.2,139.5,421.2,139.5,418z M133.7,422.8
	c0-3.2-5-3.2-5,0c0,1.4,0.9,2.2,2,2.4h1C132.8,425,133.7,424.2,133.7,422.8z M148.8,416.2c0-3.2-5-3.2-5,0
	C143.8,419.4,148.8,419.4,148.8,416.2z M145.1,423.2c0-3.2-5-3.2-5,0c0,1,0.5,1.7,1.1,2h2.8C144.7,424.8,145.1,424.1,145.1,423.2z
	 M126.6,422c0-3.2-5-3.2-5,0C121.6,425.2,126.6,425.2,126.6,422z M119.6,419.3c0-3.2-5-3.2-5,0C114.6,422.6,119.6,422.6,119.6,419.3
	z M114.3,412.7c0-3.2-5-3.2-5,0C109.3,415.9,114.3,415.9,114.3,412.7z M103.3,418.2c0,3.2,5,3.2,5,0
	C108.3,415,103.3,415,103.3,418.2z M109.5,425.1C109.5,425.2,109.5,425.2,109.5,425.1l5,0.1c0,0,0,0,0-0.1
	C114.5,421.9,109.5,421.9,109.5,425.1z M101.6,425.2h4.1C104.8,423.9,102.6,423.9,101.6,425.2z M82.9,301.9c0-3.2-5-3.2-5,0
	S82.9,305.1,82.9,301.9z M89.9,302.8c0-3.2-5-3.2-5,0C84.9,306,89.9,306,89.9,302.8z M86.3,308.4c0-3.2-5-3.2-5,0
	C81.3,311.7,86.3,311.7,86.3,308.4z M93.2,308.4c0-3.2-5-3.2-5,0C88.2,311.7,93.2,311.7,93.2,308.4z M96.2,314.3c0-3.2-5-3.2-5,0
	C91.2,317.6,96.2,317.6,96.2,314.3z M100.4,308.9c0-3.2-5-3.2-5,0S100.4,312.2,100.4,308.9z M103.6,315.6c0-3.2-5-3.2-5,0
	C98.6,318.9,103.6,318.9,103.6,315.6z M108.5,311.8c0-3.2-5-3.2-5,0C103.5,315,108.5,315,108.5,311.8z M115.5,312.8c0-3.2-5-3.2-5,0
	C110.5,316,115.5,316,115.5,312.8z M117,310.1c0,3.2,5,3.2,5,0S117,306.9,117,310.1z M128.2,305.5c0-3.2-5-3.2-5,0
	C123.2,308.7,128.2,308.7,128.2,305.5z M175.5,329.9c0,2.6,4,2.6,4,0C179.5,327.4,175.5,327.4,175.5,329.9z M161.7,320
	c0-2.6-4-2.6-4,0C157.7,322.6,161.7,322.6,161.7,320z M166.2,322.3c0-1.9-3-1.9-3,0C163.2,324.2,166.2,324.2,166.2,322.3z
	 M171.5,327.2c0,1.9,3,1.9,3,0C174.5,325.3,171.5,325.3,171.5,327.2z M167.6,324.6c0,1.3,2,1.3,2,0
	C169.6,323.4,167.6,323.4,167.6,324.6z M79.3,152.6c0-3.2-5-3.2-5,0C74.3,155.9,79.3,155.9,79.3,152.6z M70.7,145.1c0,3.2,5,3.2,5,0
	C75.7,141.9,70.7,141.9,70.7,145.1z M62.6,144.1c0,3.2,5,3.2,5,0C67.6,140.8,62.6,140.8,62.6,144.1z M69.7,136.5c0-3.2-5-3.2-5,0
	C64.7,139.7,69.7,139.7,69.7,136.5z M55.9,138.9c0,3.2,5,3.2,5,0C60.9,135.6,55.9,135.6,55.9,138.9z M58.7,130c0,3.2,5,3.2,5,0
	C63.7,126.8,58.7,126.8,58.7,130z M54.6,125.1c0-3.2-5-3.2-5,0C49.6,128.3,54.6,128.3,54.6,125.1z M57,132.1c0-3.2-5-3.2-5,0
	C52,135.3,57,135.3,57,132.1z M46.2,137.3c0,3.2,5,3.2,5,0C51.2,134.1,46.2,134.1,46.2,137.3z M44.2,130.3c0,3.2,5,3.2,5,0
	C49.2,127.1,44.2,127.1,44.2,130.3z M41.9,130.5c0-3.2-5-3.2-5,0C36.9,133.8,41.9,133.8,41.9,130.5z M38.7,137.8c0,3.2,5,3.2,5,0
	C43.7,134.6,38.7,134.6,38.7,137.8z M35.9,138.3c0-3.2-5-3.2-5,0C30.9,141.6,35.9,141.6,35.9,138.3z M31.4,145.4c0,3.2,5,3.2,5,0
	C36.4,142.1,31.4,142.1,31.4,145.4z M29.1,143.5c0-3.2-5-3.2-5,0C24.1,146.8,29.1,146.8,29.1,143.5z M32.3,152.1c0-3.2-5-3.2-5,0
	C27.3,155.3,32.3,155.3,32.3,152.1z M29.1,158.9c0-3.2-5-3.2-5,0C24.1,162.1,29.1,162.1,29.1,158.9z M20.8,150.6c0,3.2,5,3.2,5,0
	C25.8,147.3,20.8,147.3,20.8,150.6z M13.7,145.6c0,3.2,5,3.2,5,0C18.7,142.4,13.7,142.4,13.7,145.6z M21.6,156.3c0-3.2-5-3.2-5,0
	C16.6,159.5,21.6,159.5,21.6,156.3z M25.2,165.1c0-3.2-5-3.2-5,0C20.2,168.3,25.2,168.3,25.2,165.1z M19,169.5c0-3.2-5-3.2-5,0
	C14,172.8,19,172.8,19,169.5z M9.9,145.6c0-3.2-5-3.2-5,0C4.9,148.8,9.9,148.8,9.9,145.6z M9.8,151.9c0,3.2,5,3.2,5,0
	C14.8,148.6,9.8,148.6,9.8,151.9z M15.9,161.5c0-3.2-5-3.2-5,0C10.9,164.7,15.9,164.7,15.9,161.5z M8.9,156c0-3.2-5-3.2-5,0
	C3.9,159.2,8.9,159.2,8.9,156z M4.7,149.8c0-2.8-3.6-3.1-4.7-1.2v2.4C1.1,152.9,4.7,152.5,4.7,149.8z M1.3,156.5
	c0-1.1-0.6-1.8-1.3-2.2v4.3C0.8,158.3,1.3,157.6,1.3,156.5z M75.6,160.2c0,3.2,5,3.2,5,0C80.6,156.9,75.6,156.9,75.6,160.2z
	 M87.6,162.5c0-3.2-5-3.2-5,0C82.6,165.7,87.6,165.7,87.6,162.5z M77.2,167.4c0,3.2,5,3.2,5,0C82.2,164.2,77.2,164.2,77.2,167.4z
	 M93.1,168.2c0-3.2-5-3.2-5,0C88.1,171.5,93.1,171.5,93.1,168.2z M81.7,174.2c0-3.2-5-3.2-5,0C76.7,177.4,81.7,177.4,81.7,174.2z
	 M96.1,174.2c0,3.2,5,3.2,5,0C101.1,171,96.1,171,96.1,174.2z M76.7,182.3c0,3.2,5,3.2,5,0C81.7,179,76.7,179,76.7,182.3z M85,175.2
	c0,3.2,5,3.2,5,0C90,172,85,172,85,175.2z M90.9,179.7c0,3.2,5,3.2,5,0C95.9,176.4,90.9,176.4,90.9,179.7z M98.2,185.6
	c0,3.2,5,3.2,5,0C103.2,182.4,98.2,182.4,98.2,185.6z M76.4,190.8c0,3.2,5,3.2,5,0C81.4,187.6,76.4,187.6,76.4,190.8z M83.9,184.6
	c0,3.2,5,3.2,5,0C88.9,181.4,83.9,181.4,83.9,184.6z M96.2,188.8c0-3.2-5-3.2-5,0C91.2,192,96.2,192,96.2,188.8z M79.8,198.4
	c0,3.2,5,3.2,5,0C84.8,195.2,79.8,195.2,79.8,198.4z M89.7,191.9c0-3.2-5-3.2-5,0C84.7,195.1,89.7,195.1,89.7,191.9z M87.8,201.5
	c0,3.2,5,3.2,5,0C92.8,198.3,87.8,198.3,87.8,201.5z M104.3,205.9c0-3.2-5-3.2-5,0C99.3,209.1,104.3,209.1,104.3,205.9z M94.8,199.4
	c0,3.2,5,3.2,5,0C99.8,196.2,94.8,196.2,94.8,199.4z M103.2,192.9c0-3.2-5-3.2-5,0C98.2,196.1,103.2,196.1,103.2,192.9z
	 M101.6,199.2c0,3.2,5,3.2,5,0C106.6,195.9,101.6,195.9,101.6,199.2z M44.7,105.3c0,3.2,5,3.2,5,0C49.7,102.1,44.7,102.1,44.7,105.3
	z M41.8,105.3c0-3.2-5-3.2-5,0C36.8,108.5,41.8,108.5,41.8,105.3z M36.3,109.6c0-3.2-5-3.2-5,0C31.3,112.8,36.3,112.8,36.3,109.6z
	 M31.7,114.7c0-3.2-5-3.2-5,0C26.7,117.9,31.7,117.9,31.7,114.7z M25.4,119.1c0-3.2-5-3.2-5,0C20.4,122.4,25.4,122.4,25.4,119.1z
	 M14.1,123.2c0,3.2,5,3.2,5,0C19.1,120,14.1,120,14.1,123.2z M13.8,117.9c0-3.2-5-3.2-5,0C8.8,121.1,13.8,121.1,13.8,117.9z
	 M9.7,123.4c0-3.2-5-3.2-5,0C4.7,126.6,9.7,126.6,9.7,123.4z M3,120.5c0-1.9-1.6-2.6-3-2.4v4.7C1.4,123.2,3,122.4,3,120.5z
	 M79.5,121.2c0-3.2-5-3.2-5,0C74.5,124.4,79.5,124.4,79.5,121.2z M79.6,125.7c0,3.2,5,3.2,5,0C84.6,122.4,79.6,122.4,79.6,125.7z
	 M91.4,127.6c0-3.2-5-3.2-5,0C86.4,130.9,91.4,130.9,91.4,127.6z M90.5,133.5c0,3.2,5,3.2,5,0C95.5,130.2,90.5,130.2,90.5,133.5z
	 M102.3,136.9c0-3.2-5-3.2-5,0C97.3,140.2,102.3,140.2,102.3,136.9z M38.5,322.1c0-3.2-5-3.2-5,0C33.5,325.4,38.5,325.4,38.5,322.1z
	 M31.2,325.5c0-3.2-5-3.2-5,0C26.2,328.7,31.2,328.7,31.2,325.5z M26.1,330.8c0-3.2-5-3.2-5,0C21.1,334,26.1,334,26.1,330.8z
	 M15.6,341.4c0,3.2,5,3.2,5,0C20.6,338.2,15.6,338.2,15.6,341.4z M20.6,334.7c0-3.2-5-3.2-5,0S20.6,338,20.6,334.7z M13.6,339.4
	c0-3.2-5-3.2-5,0C8.6,342.6,13.6,342.6,13.6,339.4z M11.6,346c0-3.2-5-3.2-5,0C6.6,349.2,11.6,349.2,11.6,346z M4.5,349.7
	c0-2.6-3.3-3.1-4.5-1.5v3C1.3,352.8,4.5,352.3,4.5,349.7z M4.5,342.2c0-2.6-3.3-3.1-4.5-1.5v3C1.3,345.3,4.5,344.8,4.5,342.2z
	 M77.8,295.3c0,3.2,5,3.2,5,0C82.8,292.1,77.8,292.1,77.8,295.3z M76,299.3c0-3.2-5-3.2-5,0C71,302.5,76,302.5,76,299.3z
	 M77.3,290.3c0-3.2-5-3.2-5,0C72.3,293.5,77.3,293.5,77.3,290.3z M69.8,295.3c0-3.2-5-3.2-5,0C64.8,298.5,69.8,298.5,69.8,295.3z
	 M70.3,286.7c0-3.2-5-3.2-5,0C65.3,289.9,70.3,289.9,70.3,286.7z M63.9,291.5c0-3.2-5-3.2-5,0C58.9,294.7,63.9,294.7,63.9,291.5z
	 M53.9,285.3c0,3.2,5,3.2,5,0C58.9,282.1,53.9,282.1,53.9,285.3z M55.1,291c0-3.2-5-3.2-5,0C50.1,294.2,55.1,294.2,55.1,291z
	 M50.1,284.2c0-3.2-5-3.2-5,0C45.1,287.4,50.1,287.4,50.1,284.2z M39.8,288.7c0,3.2,5,3.2,5,0C44.8,285.4,39.8,285.4,39.8,288.7z
	 M44.3,281.2c0-3.2-5-3.2-5,0C39.3,284.4,44.3,284.4,44.3,281.2z M38.2,289.8c0-3.2-5-3.2-5,0S38.2,293,38.2,289.8z M32.8,282.5
	c0,3.2,5,3.2,5,0C37.8,279.3,32.8,279.3,32.8,282.5z M38.8,273.7c0-3.2-5-3.2-5,0C33.8,277,38.8,277,38.8,273.7z M35.7,266.1
	c0-3.2-5-3.2-5,0S35.7,269.3,35.7,266.1z M31.7,259.8c0-3.2-5-3.2-5,0C26.7,263,31.7,263,31.7,259.8z M24.9,258.5c0-3.2-5-3.2-5,0
	C19.9,261.7,24.9,261.7,24.9,258.5z M19.6,264.3c0-3.2-5-3.2-5,0C14.6,267.5,19.6,267.5,19.6,264.3z M27.6,265.3c0-3.2-5-3.2-5,0
	C22.6,268.5,27.6,268.5,27.6,265.3z M27.2,271.4c0,3.2,5,3.2,5,0C32.2,268.2,27.2,268.2,27.2,271.4z M27.2,278.4c0,3.2,5,3.2,5,0
	S27.2,275.1,27.2,278.4z M26.5,287c0,3.2,5,3.2,5,0C31.5,283.8,26.5,283.8,26.5,287z M21.9,293c0,3.2,5,3.2,5,0S21.9,289.7,21.9,293
	z M16.1,271.1c0-3.2-5-3.2-5,0C11.1,274.3,16.1,274.3,16.1,271.1z M24.2,271.7c0-3.2-5-3.2-5,0C19.2,275,24.2,275,24.2,271.7z
	 M21.2,282.5c0,3.2,5,3.2,5,0C26.2,279.3,21.2,279.3,21.2,282.5z M13,278.4c0-3.2-5-3.2-5,0S13,281.6,13,278.4z M20.4,277.5
	c0-3.2-5-3.2-5,0C15.4,280.8,20.4,280.8,20.4,277.5z M9.3,285c0-3.2-5-3.2-5,0C4.3,288.2,9.3,288.2,9.3,285z M17.8,284
	c0-3.2-5-3.2-5,0C12.8,287.2,17.8,287.2,17.8,284z M18.1,288c0,3.2,5,3.2,5,0C23.1,284.8,18.1,284.8,18.1,288z M14.6,289.5
	c0-3.2-5-3.2-5,0S14.6,292.7,14.6,289.5z M15.1,294.8c0,3.2,5,3.2,5,0C20.1,291.6,15.1,291.6,15.1,294.8z M12.1,300.9
	c0,3.2,5,3.2,5,0C17.1,297.7,12.1,297.7,12.1,300.9z M12.5,295.1c0-3.2-5-3.2-5,0C7.5,298.3,12.5,298.3,12.5,295.1z M6.2,291.3
	c0-3.2-5-3.2-5,0C1.2,294.5,6.2,294.5,6.2,291.3z M4.5,298.8c0-2.6-3.3-3.1-4.5-1.5v3C1.3,301.9,4.5,301.4,4.5,298.8z M10.8,302.9
	c0-3.2-5-3.2-5,0C5.8,306.1,10.8,306.1,10.8,302.9z M8,309.5c0-3.2-5-3.2-5,0S8,312.8,8,309.5z M0,313.8v3.1
	c0.3-0.4,0.5-0.9,0.5-1.6C0.5,314.7,0.3,314.2,0,313.8z M2.4,307.2c0-1.6-1.2-2.3-2.4-2.4v4.8C1.2,309.6,2.4,308.8,2.4,307.2z
	 M90.2,257.5c0,3.2,5,3.2,5,0C95.2,254.3,90.2,254.3,90.2,257.5z M89.7,264.9c0,3.2,5,3.2,5,0C94.7,261.7,89.7,261.7,89.7,264.9z
	 M102,260.5c0-3.2-5-3.2-5,0C97,263.7,102,263.7,102,260.5z M101.2,268.4c0-3.2-5-3.2-5,0C96.2,271.6,101.2,271.6,101.2,268.4z
	 M103.6,272.6c0,3.2,5,3.2,5,0S103.6,269.3,103.6,272.6z M103.8,265.1c0,3.2,5,3.2,5,0C108.8,261.9,103.8,261.9,103.8,265.1z
	 M104,257.1c0,3.2,5,3.2,5,0C109,253.9,104,253.9,104,257.1z M88.4,253.7c0-3.2-5-3.2-5,0C83.4,256.9,88.4,256.9,88.4,253.7z
	 M87.1,247c0,3.2,5,3.2,5,0C92.1,243.8,87.1,243.8,87.1,247z M86.7,239.2c0,3.2,5,3.2,5,0C91.7,236,86.7,236,86.7,239.2z
	 M84.8,247.9c0-3.2-5-3.2-5,0C79.8,251.1,84.8,251.1,84.8,247.9z M90.9,230.1c0-3.2-5-3.2-5,0S90.9,233.3,90.9,230.1z M80.8,234.9
	c0,3.2,5,3.2,5,0C85.8,231.7,80.8,231.7,80.8,234.9z M83.6,241.6c0-3.2-5-3.2-5,0C78.6,244.8,83.6,244.8,83.6,241.6z M73.3,234.1
	c0,3.2,5,3.2,5,0S73.3,230.9,73.3,234.1z M72.3,247c0,3.2,5,3.2,5,0C77.3,243.8,72.3,243.8,72.3,247z M76,239.9c0-3.2-5-3.2-5,0
	C71,243.1,76,243.1,76,239.9z M61.1,252c0-3.2-5-3.2-5,0C56.1,255.2,61.1,255.2,61.1,252z M68.5,247.4c0-3.2-5-3.2-5,0
	C63.5,250.6,68.5,250.6,68.5,247.4z M57.7,245.2c0-3.2-5-3.2-5,0C52.7,248.4,57.7,248.4,57.7,245.2z M56.4,235.9c0-3.2-5-3.2-5,0
	C51.4,239.1,56.4,239.1,56.4,235.9z M64.5,242.6c0-3.2-5-3.2-5,0C59.5,245.8,64.5,245.8,64.5,242.6z M65,236.3c0,3.2,5,3.2,5,0
	C70,233,65,233,65,236.3z M63.2,232.9c0-3.2-5-3.2-5,0C58.2,236.2,63.2,236.2,63.2,232.9z M54.2,226.6c0,3.2,5,3.2,5,0
	C59.2,223.4,54.2,223.4,54.2,226.6z M58.7,219.3c0-3.2-5-3.2-5,0C53.7,222.6,58.7,222.6,58.7,219.3z M58.2,211.1c0-3.2-5-3.2-5,0
	C53.2,214.3,58.2,214.3,58.2,211.1z M54.9,202.6c0,3.2,5,3.2,5,0C59.9,199.4,54.9,199.4,54.9,202.6z M52.4,203.9c0-3.2-5-3.2-5,0
	C47.4,207.1,52.4,207.1,52.4,203.9z M59.6,194.5c0-3.2-5-3.2-5,0C54.6,197.7,59.6,197.7,59.6,194.5z M53.7,186.5c0,3.2,5,3.2,5,0
	C58.7,183.3,53.7,183.3,53.7,186.5z M48.3,197c0,3.2,5,3.2,5,0C53.3,193.7,48.3,193.7,48.3,197z M52.1,189.5c0-3.2-5-3.2-5,0
	C47.1,192.7,52.1,192.7,52.1,189.5z M56.3,180c0-3.2-5-3.2-5,0C51.3,183.3,56.3,183.3,56.3,180z M49.9,176.6c0-3.2-5-3.2-5,0
	C44.9,179.8,49.9,179.8,49.9,176.6z M42.2,177.6c0-3.2-5-3.2-5,0S42.2,180.8,42.2,177.6z M48.3,183.4c0-3.2-5-3.2-5,0
	C43.3,186.6,48.3,186.6,48.3,183.4z M39.5,184.4c0-3.2-5-3.2-5,0C34.5,187.6,39.5,187.6,39.5,184.4z M38.2,191.8c0-3.2-5-3.2-5,0
	C33.2,195,38.2,195,38.2,191.8z M45.1,190.3c0-3.2-5-3.2-5,0C40.1,193.5,45.1,193.5,45.1,190.3z M46,197.3c0-3.2-5-3.2-5,0
	C41,200.5,46,200.5,46,197.3z M36.7,198.9c0-3.2-5-3.2-5,0C31.7,202.2,36.7,202.2,36.7,198.9z M28.2,205.4c0,3.2,5,3.2,5,0
	C33.2,202.2,28.2,202.2,28.2,205.4z M27.4,210.2c0-3.2-5-3.2-5,0C22.4,213.4,27.4,213.4,27.4,210.2z M42.5,203.6c0-3.2-5-3.2-5,0
	C37.5,206.8,42.5,206.8,42.5,203.6z M38.8,210.6c0-3.2-5-3.2-5,0C33.8,213.8,38.8,213.8,38.8,210.6z M29.9,217c0,3.2,5,3.2,5,0
	C34.9,213.8,29.9,213.8,29.9,217z M30.9,224.1c0-3.2-5-3.2-5,0C25.9,227.4,30.9,227.4,30.9,224.1z M26.7,217.7c0-3.2-5-3.2-5,0
	C21.7,220.9,26.7,220.9,26.7,217.7z M20.3,209.4c0-3.2-5-3.2-5,0C15.3,212.6,20.3,212.6,20.3,209.4z M15.6,221.5c0,3.2,5,3.2,5,0
	C20.6,218.3,15.6,218.3,15.6,221.5z M16.5,215.2c0-3.2-5-3.2-5,0S16.5,218.4,16.5,215.2z M13.3,206.7c0-3.2-5-3.2-5,0
	S13.3,210,13.3,206.7z M8,200.1c0-3.2-5-3.2-5,0C3,203.3,8,203.3,8,200.1z M2,205.6c0-1.4-1-2.2-2-2.4v4.8C1.1,207.8,2,207,2,205.6z
	 M12.5,222.2c0-3.2-5-3.2-5,0S12.5,225.4,12.5,222.2z M8.2,212.5c0-3.2-5-3.2-5,0C3.2,215.8,8.2,215.8,8.2,212.5z M5,220.7
	c0-3.2-5-3.2-5,0C0,223.9,5,223.9,5,220.7z M4.8,229c0-2.9-4-3.2-4.8-0.9v1.7C0.8,232.1,4.8,231.9,4.8,229z M1,237.9
	c0-0.9-0.4-1.6-1-2v4C0.6,239.5,1,238.9,1,237.9z M2.2,99.2c0-1.5-1.1-2.3-2.2-2.4v4.8C1.2,101.5,2.2,100.7,2.2,99.2z M9.2,100.2
	c0-3.2-5-3.2-5,0C4.2,103.4,9.2,103.4,9.2,100.2z M15.7,97.5c0-3.2-5-3.2-5,0C10.7,100.7,15.7,100.7,15.7,97.5z M21.9,92.9
	c0-3.2-5-3.2-5,0C16.9,96.1,21.9,96.1,21.9,92.9z M73.2,117.4c0-2.6-4-2.6-4,0C69.2,119.9,73.2,119.9,73.2,117.4z M55.4,107.4
	c0-2.6-4-2.6-4,0C51.4,110,55.4,110,55.4,107.4z M59.9,109.7c0-1.9-3-1.9-3,0C56.9,111.6,59.9,111.6,59.9,109.7z M65.2,114.7
	c0,1.9,3,1.9,3,0C68.2,112.7,65.2,112.7,65.2,114.7z M63.3,112c0-1.3-2-1.3-2,0C61.3,113.3,63.3,113.3,63.3,112z M1.8,1.6
	c0-0.7-0.2-1.2-0.6-1.6H0v4C1,3.7,1.8,3,1.8,1.6z M101.5,129.4c0-3.2-5-3.2-5,0C96.5,132.7,101.5,132.7,101.5,129.4z M144.8,109.5
	c0-3.2-5-3.2-5,0C139.8,112.8,144.8,112.8,144.8,109.5z M137.5,112.9c0-3.2-5-3.2-5,0C132.5,116.1,137.5,116.1,137.5,112.9z
	 M127.4,118.2c0,3.2,5,3.2,5,0C132.4,114.9,127.4,114.9,127.4,118.2z M121.9,128.8c0,3.2,5,3.2,5,0
	C126.9,125.6,121.9,125.6,121.9,128.8z M121.9,122.1c0,3.2,5,3.2,5,0C126.9,118.9,121.9,118.9,121.9,122.1z M114.9,126.8
	c0,3.2,5,3.2,5,0C119.9,123.6,114.9,123.6,114.9,126.8z M117.9,133.4c0-3.2-5-3.2-5,0C112.9,136.6,117.9,136.6,117.9,133.4z
	 M105.8,137.1c0,3.2,5,3.2,5,0C110.8,133.8,105.8,133.8,105.8,137.1z M105.8,129.6c0,3.2,5,3.2,5,0
	C110.8,126.4,105.8,126.4,105.8,129.6z M184.1,82.7c0,3.2,5,3.2,5,0C189.1,79.5,184.1,79.5,184.1,82.7z M177.3,86.7c0,3.2,5,3.2,5,0
	C182.3,83.4,177.3,83.4,177.3,86.7z M183.6,77.7c0-3.2-5-3.2-5,0C178.6,80.9,183.6,80.9,183.6,77.7z M176.1,82.7c0-3.2-5-3.2-5,0
	C171.1,85.9,176.1,85.9,176.1,82.7z M176.6,74.1c0-3.2-5-3.2-5,0C171.6,77.3,176.6,77.3,176.6,74.1z M170.2,78.9c0-3.2-5-3.2-5,0
	C165.2,82.1,170.2,82.1,170.2,78.9z M160.2,72.7c0,3.2,5,3.2,5,0C165.2,69.5,160.2,69.5,160.2,72.7z M161.4,78.4c0-3.2-5-3.2-5,0
	C156.4,81.6,161.4,81.6,161.4,78.4z M156.4,71.6c0-3.2-5-3.2-5,0C151.4,74.8,156.4,74.8,156.4,71.6z M146.1,76.1c0,3.2,5,3.2,5,0
	C151.1,72.8,146.1,72.8,146.1,76.1z M150.6,68.6c0-3.2-5-3.2-5,0C145.6,71.8,150.6,71.8,150.6,68.6z M139.5,77.2c0,3.2,5,3.2,5,0
	C144.5,74,139.5,74,139.5,77.2z M139.1,69.9c0,3.2,5,3.2,5,0C144.1,66.7,139.1,66.7,139.1,69.9z M145.1,61.1c0-3.2-5-3.2-5,0
	C140.1,64.4,145.1,64.4,145.1,61.1z M142,53.5c0-3.2-5-3.2-5,0C137,56.7,142,56.7,142,53.5z M138,47.2c0-3.2-5-3.2-5,0
	C133,50.4,138,50.4,138,47.2z M131.2,45.9c0-3.2-5-3.2-5,0C126.2,49.1,131.2,49.1,131.2,45.9z M120.9,51.7c0,3.2,5,3.2,5,0
	C125.9,48.5,120.9,48.5,120.9,51.7z M133.9,52.7c0-3.2-5-3.2-5,0C128.9,55.9,133.9,55.9,133.9,52.7z M133.5,58.8c0,3.2,5,3.2,5,0
	C138.5,55.6,133.5,55.6,133.5,58.8z M138.5,65.8c0-3.2-5-3.2-5,0C133.5,69,138.5,69,138.5,65.8z M132.8,74.4c0,3.2,5,3.2,5,0
	C137.8,71.2,132.8,71.2,132.8,74.4z M133.2,80.4c0-3.2-5-3.2-5,0C128.2,83.6,133.2,83.6,133.2,80.4z M117.4,58.5c0,3.2,5,3.2,5,0
	C122.4,55.3,117.4,55.3,117.4,58.5z M130.5,59.1c0-3.2-5-3.2-5,0C125.5,62.4,130.5,62.4,130.5,59.1z M127.5,69.9c0,3.2,5,3.2,5,0
	C132.5,66.7,127.5,66.7,127.5,69.9z M119.3,65.8c0-3.2-5-3.2-5,0C114.3,69,119.3,69,119.3,65.8z M121.7,64.9c0,3.2,5,3.2,5,0
	C126.7,61.7,121.7,61.7,121.7,64.9z M115.6,72.4c0-3.2-5-3.2-5,0C110.6,75.6,115.6,75.6,115.6,72.4z M124.1,71.4c0-3.2-5-3.2-5,0
	C119.1,74.6,124.1,74.6,124.1,71.4z M124.4,75.4c0,3.2,5,3.2,5,0C129.4,72.2,124.4,72.2,124.4,75.4z M115.9,76.9c0,3.2,5,3.2,5,0
	C120.9,73.7,115.9,73.7,115.9,76.9z M121.4,82.2c0,3.2,5,3.2,5,0C126.4,79,121.4,79,121.4,82.2z M118.4,88.3c0,3.2,5,3.2,5,0
	C123.4,85.1,118.4,85.1,118.4,88.3z M113.8,82.5c0,3.2,5,3.2,5,0C118.8,79.3,113.8,79.3,113.8,82.5z M112.5,78.7c0-3.2-5-3.2-5,0
	C107.5,81.9,112.5,81.9,112.5,78.7z M105.8,86.2c0,3.2,5,3.2,5,0C110.8,82.9,105.8,82.9,105.8,86.2z M117.1,90.3c0-3.2-5-3.2-5,0
	C112.1,93.5,117.1,93.5,117.1,90.3z M109.3,96.9c0,3.2,5,3.2,5,0C114.3,93.7,109.3,93.7,109.3,96.9z M102.7,91.1c0-3.2-5-3.2-5,0
	S102.7,94.4,102.7,91.1z M106.8,102.7c0-3.2-5-3.2-5,0C101.8,106,106.8,106,106.8,102.7z M103.7,94.6c0,3.2,5,3.2,5,0
	C108.7,91.4,103.7,91.4,103.7,94.6z M100,98.6c0-3.2-5-3.2-5,0C95,101.8,100,101.8,100,98.6z M87.9,96.1c0,3.2,5,3.2,5,0
	C92.9,92.9,87.9,92.9,87.9,96.1z M95.1,103.2c0-3.2-5-3.2-5,0C90.1,106.5,95.1,106.5,95.1,103.2z M86.4,100.1c0-3.2-5-3.2-5,0
	C81.4,103.3,86.4,103.3,86.4,100.1z M78.6,98.9c0-3.2-5-3.2-5,0C73.6,102.2,78.6,102.2,78.6,98.9z M70.9,97.8c0-3.2-5-3.2-5,0
	C65.9,101,70.9,101,70.9,97.8z M52.5,88.2c0-3.2-5-3.2-5,0C47.5,91.4,52.5,91.4,52.5,88.2z M45,82c0,3.2,5,3.2,5,0
	C50,78.8,45,78.8,45,82z M37.8,84.2c0,3.2,5,3.2,5,0C42.8,81,37.8,81,37.8,84.2z M45,76.2c0-3.2-5-3.2-5,0C40,79.4,45,79.4,45,76.2z
	 M37.5,74.6c0-3.2-5-3.2-5,0C32.5,77.8,37.5,77.8,37.5,74.6z M36,81.4c0-3.2-5-3.2-5,0C31,84.6,36,84.6,36,81.4z M29.2,82.2
	c0-3.2-5-3.2-5,0C24.2,85.4,29.2,85.4,29.2,82.2z M27.1,88.3c0-3.2-5-3.2-5,0C22.1,91.5,27.1,91.5,27.1,88.3z M196.5,44.9
	c0,3.2,5,3.2,5,0C201.5,41.7,196.5,41.7,196.5,44.9z M196,52.3c0,3.2,5,3.2,5,0C201,49.1,196,49.1,196,52.3z M208.3,47.9
	c0-3.2-5-3.2-5,0C203.3,51.1,208.3,51.1,208.3,47.9z M207.5,55.8c0-3.2-5-3.2-5,0C202.5,59,207.5,59,207.5,55.8z M209.9,60
	c0,3.2,5,3.2,5,0C214.9,56.7,209.9,56.7,209.9,60z M215.1,52.5c0-3.2-5-3.2-5,0C210.1,55.7,215.1,55.7,215.1,52.5z M210.3,44.5
	c0,3.2,5,3.2,5,0C215.3,41.3,210.3,41.3,210.3,44.5z M194.7,41.1c0-3.2-5-3.2-5,0C189.7,44.3,194.7,44.3,194.7,41.1z M198.4,34.4
	c0-3.2-5-3.2-5,0C193.4,37.7,198.4,37.7,198.4,34.4z M198,26.6c0-3.2-5-3.2-5,0C193,29.9,198,29.9,198,26.6z M191.1,35.3
	c0-3.2-5-3.2-5,0C186.1,38.5,191.1,38.5,191.1,35.3z M197.2,17.5c0-3.2-5-3.2-5,0C192.2,20.7,197.2,20.7,197.2,17.5z M187.1,22.3
	c0,3.2,5,3.2,5,0C192.1,19.1,187.1,19.1,187.1,22.3z M184.9,29c0,3.2,5,3.2,5,0S184.9,25.7,184.9,29z M179.6,21.5c0,3.2,5,3.2,5,0
	C184.6,18.3,179.6,18.3,179.6,21.5z M178.6,34.4c0,3.2,5,3.2,5,0C183.6,31.2,178.6,31.2,178.6,34.4z M182.3,27.3c0-3.2-5-3.2-5,0
	C177.3,30.5,182.3,30.5,182.3,27.3z M167.4,39.4c0-3.2-5-3.2-5,0C162.4,42.6,167.4,42.6,167.4,39.4z M174.8,34.8c0-3.2-5-3.2-5,0
	C169.8,38,174.8,38,174.8,34.8z M164,32.6c0-3.2-5-3.2-5,0C159,35.8,164,35.8,164,32.6z M162.7,23.3c0-3.2-5-3.2-5,0
	C157.7,26.5,162.7,26.5,162.7,23.3z M165.8,30c0,3.2,5,3.2,5,0C170.8,26.7,165.8,26.7,165.8,30z M171.3,23.7c0,3.2,5,3.2,5,0
	C176.3,20.4,171.3,20.4,171.3,23.7z M164.5,20.3c0,3.2,5,3.2,5,0C169.5,17.1,164.5,17.1,164.5,20.3z M160.5,14c0,3.2,5,3.2,5,0
	C165.5,10.8,160.5,10.8,160.5,14z M160,6.7c0,3.2,5,3.2,5,0C165,3.5,160,3.5,160,6.7z M164,0h-3.9C161,1.2,163,1.2,164,0z M131.7,0
	h-1C131,0.1,131.4,0.1,131.7,0z M144,0h-2.8C142.1,0.5,143.2,0.5,144,0z M136.2,4.4c0,3.2,5,3.2,5,0C141.2,1.2,136.2,1.2,136.2,4.4z
	 M132.2,11.6c0,3.2,5,3.2,5,0C137.2,8.3,132.2,8.3,132.2,11.6z M133,5.1c0-3.2-5-3.2-5,0C128,8.3,133,8.3,133,5.1z M121.9,8.9
	c0,3.2,5,3.2,5,0C126.9,5.7,121.9,5.7,121.9,8.9z M117.8,2.6c0,3.2,5,3.2,5,0C122.8-0.6,117.8-0.6,117.8,2.6z M113.8,9.6
	c0,3.2,5,3.2,5,0C118.8,6.3,113.8,6.3,113.8,9.6z M114.5,0h-5C109.5,3.1,114.4,3.1,114.5,0z M106.2,1.4c0-0.6-0.2-1.1-0.4-1.4h-4.1
	c-0.3,0.4-0.4,0.9-0.4,1.4C101.2,4.7,106.2,4.7,106.2,1.4z M111.3,8.1c0-3.2-5-3.2-5,0C106.3,11.3,111.3,11.3,111.3,8.1z
	 M106.1,16.4c0,3.2,5,3.2,5,0C111.1,13.1,106.1,13.1,106.1,16.4z M99,10.7c0,3.2,5,3.2,5,0C104,7.5,99,7.5,99,10.7z M98.4,19.2
	c0,3.2,5,3.2,5,0C103.4,16,98.4,16,98.4,19.2z M102.3,25.3c0,3.2,5,3.2,5,0C107.3,22.1,102.3,22.1,102.3,25.3z M100.9,29
	c0-3.2-5-3.2-5,0S100.9,32.2,100.9,29z M105,35.6c0-3.2-5-3.2-5,0C100,38.8,105,38.8,105,35.6z M97.6,37.3c0-3.2-5-3.2-5,0
	C92.6,40.5,97.6,40.5,97.6,37.3z M103.7,42.6c0-3.2-5-3.2-5,0C98.7,45.8,103.7,45.8,103.7,42.6z M97.1,45c0-3.2-5-3.2-5,0
	C92.1,48.3,97.1,48.3,97.1,45z M94.9,52c0,3.2,5,3.2,5,0C99.9,48.8,94.9,48.8,94.9,52z M84.6,44.4c0,3.2,5,3.2,5,0
	C89.6,41.2,84.6,41.2,84.6,44.4z M92.1,51c0-3.2-5-3.2-5,0C87.1,54.2,92.1,54.2,92.1,51z M91.6,58.1c0-3.2-5-3.2-5,0
	C86.6,61.4,91.6,61.4,91.6,58.1z M76.6,46.4c0,3.2,5,3.2,5,0C81.6,43.1,76.6,43.1,76.6,46.4z M80.1,52.8c0,3.2,5,3.2,5,0
	C85.1,49.6,80.1,49.6,80.1,52.8z M84.6,60.5c0-3.2-5-3.2-5,0C79.6,63.7,84.6,63.7,84.6,60.5z M77.2,62.3c0-3.2-5-3.2-5,0
	C72.2,65.5,77.2,65.5,77.2,62.3z M65,60.3c0,3.2,5,3.2,5,0C70,57.1,65,57.1,65,60.3z M60.7,53.5c0,3.2,5,3.2,5,0
	C65.7,50.3,60.7,50.3,60.7,53.5z M72.3,54.5c0,3.2,5,3.2,5,0C77.3,51.3,72.3,51.3,72.3,54.5z M73,47.9c0-3.2-5-3.2-5,0
	C68,51.1,73,51.1,73,47.9z M61.2,46c0,3.2,5,3.2,5,0C66.2,42.8,61.2,42.8,61.2,46z M57.4,38.6c0,3.2,5,3.2,5,0
	C62.4,35.4,57.4,35.4,57.4,38.6z M52.3,33.3c0,3.2,5,3.2,5,0C57.3,30,52.3,30,52.3,33.3z M53.9,26c0,3.2,5,3.2,5,0
	C58.9,22.8,53.9,22.8,53.9,26z M54.3,17.9c0,3.2,5,3.2,5,0C59.3,14.6,54.3,14.6,54.3,17.9z M55.2,10.2c0,3.2,5,3.2,5,0
	C60.2,7,55.2,7,55.2,10.2z M56.2,3.1c0,3.2,5,3.2,5,0C61.2-0.1,56.2-0.1,56.2,3.1z M53.4,13.2c0-3.2-5-3.2-5,0
	C48.4,16.4,53.4,16.4,53.4,13.2z M52.5,21.8c0-3.2-5-3.2-5,0S52.5,25.1,52.5,21.8z M51.3,28.6c0-3.2-5-3.2-5,0
	C46.3,31.9,51.3,31.9,51.3,28.6z M45.7,33.4c0-3.2-5-3.2-5,0C40.7,36.7,45.7,36.7,45.7,33.4z M41.2,17.7c0,3.2,5,3.2,5,0
	C46.2,14.5,41.2,14.5,41.2,17.7z M40.3,25.3c0,3.2,5,3.2,5,0C45.3,22.1,40.3,22.1,40.3,25.3z M33.7,30.6c0,3.2,5,3.2,5,0
	C38.7,27.4,33.7,27.4,33.7,30.6z M34.4,23c0,3.2,5,3.2,5,0C39.4,19.8,34.4,19.8,34.4,23z M32.7,15.4c0,3.2,5,3.2,5,0
	C37.7,12.1,32.7,12.1,32.7,15.4z M27.2,9.9c0,3.2,5,3.2,5,0C32.2,6.7,27.2,6.7,27.2,9.9z M27.7,3.6c0-3.2-5-3.2-5,0
	C22.7,6.8,27.7,6.8,27.7,3.6z M21.8,9.1c0-3.2-5-3.2-5,0C16.8,12.3,21.8,12.3,21.8,9.1z M27.6,26.1c0,3.2,5,3.2,5,0
	C32.6,22.9,27.6,22.9,27.6,26.1z M26.1,18.2c0,3.2,5,3.2,5,0C31.1,15,26.1,15,26.1,18.2z M25.9,14c0-3.2-5-3.2-5,0
	C20.9,17.3,25.9,17.3,25.9,14z M19.5,16.9c0-3.2-5-3.2-5,0C14.5,20.1,19.5,20.1,19.5,16.9z M25.8,22c0-3.2-5-3.2-5,0
	C20.8,25.2,25.8,25.2,25.8,22z M23.8,29.3c0-3.2-5-3.2-5,0C18.8,32.5,23.8,32.5,23.8,29.3z M18.3,24.7c0-3.2-5-3.2-5,0
	C13.3,27.9,18.3,27.9,18.3,24.7z M17,32.1c0-3.2-5-3.2-5,0C12,35.3,17,35.3,17,32.1z M17.3,40.1c0-3.2-5-3.2-5,0
	C12.3,43.3,17.3,43.3,17.3,40.1z M11,36.9c0-3.2-5-3.2-5,0C6,40.1,11,40.1,11,36.9z M8.8,43.1c0-3.2-5-3.2-5,0
	C3.8,46.3,8.8,46.3,8.8,43.1z M10.6,46.5c0,3.2,5,3.2,5,0C15.6,43.3,10.6,43.3,10.6,46.5z M8.7,54.8c0,3.2,5,3.2,5,0
	C13.7,51.6,8.7,51.6,8.7,54.8z M9.7,61.5c0-3.2-5-3.2-5,0C4.7,64.7,9.7,64.7,9.7,61.5z M8.7,49.5c0-3.2-5-3.2-5,0
	C3.7,52.7,8.7,52.7,8.7,49.5z M7.7,56c0-3.2-5-3.2-5,0C2.7,59.2,7.7,59.2,7.7,56z M54,92.8c0,2.6,4,2.6,4,0C58,90.2,54,90.2,54,92.8
	z M63.6,95.8c0-2.6-4-2.6-4,0C59.6,98.3,63.6,98.3,63.6,95.8z M393.2,365.2c0,3.2,5,3.2,5,0S393.2,362,393.2,365.2z M389.6,357.7
	c0,3.2,5,3.2,5,0S389.6,354.5,389.6,357.7z M381.5,356.7c0,3.2,5,3.2,5,0S381.5,353.4,381.5,356.7z M388.6,349.1c0-3.2-5-3.2-5,0
	C383.6,352.3,388.6,352.3,388.6,349.1z M374.8,351.5c0,3.2,5,3.2,5,0C379.8,348.2,374.8,348.2,374.8,351.5z M382.6,342.6
	c0-3.2-5-3.2-5,0C377.6,345.8,382.6,345.8,382.6,342.6z M373.5,337.7c0-3.2-5-3.2-5,0C368.5,340.9,373.5,340.9,373.5,337.7z
	 M375.9,344.7c0-3.2-5-3.2-5,0C370.9,347.9,375.9,347.9,375.9,344.7z M370.1,349.9c0-3.2-5-3.2-5,0
	C365.1,353.1,370.1,353.1,370.1,349.9z M368.1,342.9c0-3.2-5-3.2-5,0C363.1,346.1,368.1,346.1,368.1,342.9z M355.8,343.1
	c0,3.2,5,3.2,5,0C360.8,339.9,355.8,339.9,355.8,343.1z M362.6,350.4c0-3.2-5-3.2-5,0S362.6,353.6,362.6,350.4z M354.8,350.9
	c0-3.2-5-3.2-5,0C349.8,354.2,354.8,354.2,354.8,350.9z M355.3,358c0-3.2-5-3.2-5,0S355.3,361.2,355.3,358z M343,356.1
	c0,3.2,5,3.2,5,0C348,352.9,343,352.9,343,356.1z M346.2,364.7c0,3.2,5,3.2,5,0S346.2,361.5,346.2,364.7z M343,371.5
	c0,3.2,5,3.2,5,0C348,368.2,343,368.2,343,371.5z M339.7,363.2c0,3.2,5,3.2,5,0C344.7,359.9,339.7,359.9,339.7,363.2z M337.6,358.2
	c0-3.2-5-3.2-5,0S337.6,361.4,337.6,358.2z M335.5,368.9c0,3.2,5,3.2,5,0S335.5,365.6,335.5,368.9z M344.1,377.7c0-3.2-5-3.2-5,0
	C339.1,380.9,344.1,380.9,344.1,377.7z M332.9,382.1c0,3.2,5,3.2,5,0C337.9,378.9,332.9,378.9,332.9,382.1z M328.8,358.2
	c0-3.2-5-3.2-5,0S328.8,361.4,328.8,358.2z M333.7,364.5c0-3.2-5-3.2-5,0C328.7,367.7,333.7,367.7,333.7,364.5z M329.8,374.1
	c0,3.2,5,3.2,5,0C334.8,370.8,329.8,370.8,329.8,374.1z M327.8,368.6c0-3.2-5-3.2-5,0C322.8,371.8,327.8,371.8,327.8,368.6z
	 M318.7,357.4c0-3.2-5-3.2-5,0S318.7,360.7,318.7,357.4z M323.6,362.4c0-3.2-5-3.2-5,0C318.6,365.6,323.6,365.6,323.6,362.4z
	 M314.5,363.7c0-3.2-5-3.2-5,0C309.5,366.9,314.5,366.9,314.5,363.7z M320.2,369.1c0-3.2-5-3.2-5,0S320.2,372.4,320.2,369.1z
	 M307.2,371.2c0,3.2,5,3.2,5,0C312.2,368,307.2,368,307.2,371.2z M304.6,374.3c0-3.2-5-3.2-5,0C299.6,377.6,304.6,377.6,304.6,374.3
	z M304.6,381.6c0-3.2-5-3.2-5,0C299.6,384.8,304.6,384.8,304.6,381.6z M297.6,375.4c0-3.2-5-3.2-5,0S297.6,378.6,297.6,375.4z
	 M296.5,388.6c0,3.2,5,3.2,5,0C301.5,385.4,296.5,385.4,296.5,388.6z M297.6,382.4c0-3.2-5-3.2-5,0
	C292.6,385.6,297.6,385.6,297.6,382.4z M285.8,371.7c0,3.2,5,3.2,5,0S285.8,368.5,285.8,371.7z M290.3,379.3c0-3.2-5-3.2-5,0
	C285.3,382.5,290.3,382.5,290.3,379.3z M297.6,411c0-3.2-5-3.2-5,0C292.6,414.2,297.6,414.2,297.6,411z M288.4,416.2
	c0,3.2,5,3.2,5,0S288.4,413,288.4,416.2z M293.2,405.5c0-3.2-5-3.2-5,0S293.2,408.7,293.2,405.5z M293.4,400.3c0,3.2,5,3.2,5,0
	C298.4,397.1,293.4,397.1,293.4,400.3z M291.3,393c0,3.2,5,3.2,5,0C296.3,389.8,291.3,389.8,291.3,393z M289.8,396.9
	c0-3.2-5-3.2-5,0S289.8,400.2,289.8,396.9z M286.1,388.1c0,3.2,5,3.2,5,0C291.1,384.9,286.1,384.9,286.1,388.1z M283.3,372.5
	c0-3.2-5-3.2-5,0C278.3,375.7,283.3,375.7,283.3,372.5z M283.8,383.2c0-3.2-5-3.2-5,0C278.8,386.4,283.8,386.4,283.8,383.2z
	 M278.3,392.5c0,3.2,5,3.2,5,0C283.3,389.3,278.3,389.3,278.3,392.5z M276.3,379.3c0-3.2-5-3.2-5,0
	C271.3,382.5,276.3,382.5,276.3,379.3z M270.5,387.1c0,3.2,5,3.2,5,0S270.5,383.8,270.5,387.1z M270.5,395.9c0,3.2,5,3.2,5,0
	C275.5,392.7,270.5,392.7,270.5,395.9z M268.2,382.6c0-3.2-5-3.2-5,0C263.2,385.9,268.2,385.9,268.2,382.6z M263.8,391.7
	c0,3.2,5,3.2,5,0C268.8,388.5,263.8,388.5,263.8,391.7z M269.3,401.6c0-3.2-5-3.2-5,0C264.3,404.8,269.3,404.8,269.3,401.6z
	 M260.4,378.2c0-3.2-5-3.2-5,0S260.4,381.5,260.4,378.2z M261.7,386.8c0-3.2-5-3.2-5,0S261.7,390,261.7,386.8z M256.7,395.6
	c0,3.2,5,3.2,5,0C261.7,392.4,256.7,392.4,256.7,395.6z M258.8,406.8c0,3.2,5,3.2,5,0C263.8,403.6,258.8,403.6,258.8,406.8z
	 M256.5,404.5c0-3.2-5-3.2-5,0C251.5,407.7,256.5,407.7,256.5,404.5z M247.4,395.6c0,3.2,5,3.2,5,0
	C252.4,392.4,247.4,392.4,247.4,395.6z M249.7,387.6c0,3.2,5,3.2,5,0S249.7,384.4,249.7,387.6z M249.2,371.7c0,3.2,5,3.2,5,0
	S249.2,368.5,249.2,371.7z M248.7,365.2c0-3.2-5-3.2-5,0S248.7,368.5,248.7,365.2z M240.7,364.7c0-3.2-5-3.2-5,0
	S240.7,367.9,240.7,364.7z M228.7,369.9c0,3.2,5,3.2,5,0C233.7,366.7,228.7,366.7,228.7,369.9z M239.6,371.2c0,3.2,5,3.2,5,0
	C244.6,368,239.6,368,239.6,371.2z M252.6,379c0-3.2-5-3.2-5,0S252.6,382.2,252.6,379z M239.3,378.2c0,3.2,5,3.2,5,0
	S239.3,375,239.3,378.2z M247.2,385c0-3.2-5-3.2-5,0C242.2,388.2,247.2,388.2,247.2,385z M240.4,391.7c0,3.2,5,3.2,5,0
	C245.4,388.5,240.4,388.5,240.4,391.7z M233.3,389.9c0,3.2,5,3.2,5,0C238.3,386.7,233.3,386.7,233.3,389.9z M232.1,393.8
	c0-3.2-5-3.2-5,0S232.1,397.1,232.1,393.8z M229.2,376.1c0-3.2-5-3.2-5,0S229.2,379.4,229.2,376.1z M224.6,381.9c0-3.2-5-3.2-5,0
	C219.6,385.1,224.6,385.1,224.6,381.9z M213.6,386.8c0,3.2,5,3.2,5,0S213.6,383.6,213.6,386.8z M228.2,400.1c0-3.2-5-3.2-5,0
	C223.2,403.3,228.2,403.3,228.2,400.1z M224.8,406.8c0-3.2-5-3.2-5,0C219.8,410,224.8,410,224.8,406.8z M233.3,382.4
	c0,3.2,5,3.2,5,0C238.3,379.2,233.3,379.2,233.3,382.4z M233.1,374.1c0,3.2,5,3.2,5,0C238.1,370.8,233.1,370.8,233.1,374.1z
	 M231.1,383.9c0-3.2-5-3.2-5,0C226.1,387.2,231.1,387.2,231.1,383.9z M220.9,390.2c0,3.2,5,3.2,5,0S220.9,387,220.9,390.2z
	 M216.2,397.2c0,3.2,5,3.2,5,0C221.2,394,216.2,394,216.2,397.2z M210,425.2h3.8C212.8,424.2,211,424.2,210,425.2z M218.3,419
	c0-3.2-5-3.2-5,0S218.3,422.3,218.3,419z M219.4,411.2c0-3.2-5-3.2-5,0C214.4,414.5,219.4,414.5,219.4,411.2z M212.3,404
	c0,3.2,5,3.2,5,0C217.3,400.7,212.3,400.7,212.3,404z M215.2,392.8c0-3.2-5-3.2-5,0C210.2,396,215.2,396,215.2,392.8z M394.5,372.8
	c0,3.2,5,3.2,5,0C399.5,369.5,394.5,369.5,394.5,372.8z M401.5,375.1c0,3.2,5,3.2,5,0C406.5,371.9,401.5,371.9,401.5,375.1z
	 M396.1,380c0,3.2,5,3.2,5,0C401.1,376.8,396.1,376.8,396.1,380z M407,380.8c0,3.2,5,3.2,5,0C412,377.6,407,377.6,407,380.8z
	 M395.5,386.8c0,3.2,5,3.2,5,0S395.5,383.6,395.5,386.8z M415,386.8c0,3.2,5,3.2,5,0S415,383.6,415,386.8z M400.5,394.9
	c0-3.2-5-3.2-5,0C395.5,398.1,400.5,398.1,400.5,394.9z M403.9,387.8c0,3.2,5,3.2,5,0C408.9,384.6,403.9,384.6,403.9,387.8z
	 M409.8,392.3c0,3.2,5,3.2,5,0C414.8,389,409.8,389,409.8,392.3z M417.1,398.2c0,3.2,5,3.2,5,0S417.1,395,417.1,398.2z M395.3,403.4
	c0,3.2,5,3.2,5,0C400.3,400.2,395.3,400.2,395.3,403.4z M402.8,397.2c0,3.2,5,3.2,5,0C407.8,394,402.8,394,402.8,397.2z
	 M410.1,401.4c0,3.2,5,3.2,5,0C415.1,398.1,410.1,398.1,410.1,401.4z M398.7,411c0,3.2,5,3.2,5,0C403.7,407.8,398.7,407.8,398.7,411
	z M408.6,404.5c0-3.2-5-3.2-5,0C403.6,407.7,408.6,407.7,408.6,404.5z M406.7,414.1c0,3.2,5,3.2,5,0
	C411.7,410.9,406.7,410.9,406.7,414.1z M418.2,418.5c0,3.2,5,3.2,5,0C423.2,415.3,418.2,415.3,418.2,418.5z M418.7,412
	c0-3.2-5-3.2-5,0C413.7,415.2,418.7,415.2,418.7,412z M417.1,405.5c0,3.2,5,3.2,5,0S417.1,402.3,417.1,405.5z M420.5,411.8
	c0,2.7,3.6,3.1,4.7,1.2v-2.4C424.1,408.6,420.5,409,420.5,411.8z M363.6,317.9c0,3.2,5,3.2,5,0C368.6,314.7,363.6,314.7,363.6,317.9
	z M355.7,317.9c0,3.2,5,3.2,5,0C360.7,314.7,355.7,314.7,355.7,317.9z M355.2,322.2c0-3.2-5-3.2-5,0
	C350.2,325.4,355.2,325.4,355.2,322.2z M350.6,327.3c0-3.2-5-3.2-5,0C345.6,330.5,350.6,330.5,350.6,327.3z M344.3,331.7
	c0-3.2-5-3.2-5,0S344.3,334.9,344.3,331.7z M333,335.8c0,3.2,5,3.2,5,0C338,332.6,333,332.6,333,335.8z M332.7,330.5
	c0-3.2-5-3.2-5,0C327.7,333.7,332.7,333.7,332.7,330.5z M328.6,336c0-3.2-5-3.2-5,0C323.6,339.2,328.6,339.2,328.6,336z
	 M316.9,333.1c0,3.2,5,3.2,5,0C321.9,329.9,316.9,329.9,316.9,333.1z M317.3,338.2c0-3.2-5-3.2-5,0
	C312.3,341.4,317.3,341.4,317.3,338.2z M310,338.6c0-3.2-5-3.2-5,0C305,341.9,310,341.9,310,338.6z M304.9,343.7c0-3.2-5-3.2-5,0
	C299.9,346.9,304.9,346.9,304.9,343.7z M298,343.9c0-3.2-5-3.2-5,0S298,347.1,298,343.9z M287.5,338c0,3.2,5,3.2,5,0
	C292.5,334.8,287.5,334.8,287.5,338z M285.6,340.7c0-3.2-5-3.2-5,0C280.6,343.9,285.6,343.9,285.6,340.7z M287,333.1
	c0-3.2-5-3.2-5,0C282,336.4,287,336.4,287,333.1z M275.5,328.9c0,3.2,5,3.2,5,0S275.5,325.7,275.5,328.9z M279.1,335.6
	c0-3.2-5-3.2-5,0C274.1,338.8,279.1,338.8,279.1,335.6z M275.3,341.3c0-3.2-5-3.2-5,0S275.3,344.5,275.3,341.3z M262.5,339.8
	c0,3.2,5,3.2,5,0C267.5,336.6,262.5,336.6,262.5,339.8z M267.4,333.3c0,3.2,5,3.2,5,0C272.4,330.1,267.4,330.1,267.4,333.3z
	 M269,326.2c0,3.2,5,3.2,5,0S269,323,269,326.2z M266.1,324.6c0-3.2-5-3.2-5,0C261.1,327.8,266.1,327.8,266.1,324.6z M260.9,331.9
	c0,3.2,5,3.2,5,0C265.9,328.7,260.9,328.7,260.9,331.9z M259.8,336.4c0-3.2-5-3.2-5,0C254.8,339.6,259.8,339.6,259.8,336.4z
	 M254,322.6c0,3.2,5,3.2,5,0S254,319.4,254,322.6z M253.6,329.3c0,3.2,5,3.2,5,0C258.6,326.1,253.6,326.1,253.6,329.3z M251.3,328.9
	c0-3.2-5-3.2-5,0S251.3,332.1,251.3,328.9z M248.7,334.8c0,3.2,5,3.2,5,0C253.7,331.5,248.7,331.5,248.7,334.8z M241.2,333.3
	c0,3.2,5,3.2,5,0C246.2,330.1,241.2,330.1,241.2,333.3z M235.5,337.8c0,3.2,5,3.2,5,0C240.5,334.5,235.5,334.5,235.5,337.8z
	 M393.4,333.8c0,3.2,5,3.2,5,0C398.4,330.6,393.4,330.6,393.4,333.8z M398.5,338.3c0,3.2,5,3.2,5,0C403.5,335,398.5,335,398.5,338.3
	z M405.3,340.2c0,3.2,5,3.2,5,0C410.3,337,405.3,337,405.3,340.2z M409.4,346c0,3.2,5,3.2,5,0C414.4,342.8,409.4,342.8,409.4,346z
	 M416.2,349.5c0,3.2,5,3.2,5,0C421.2,346.3,416.2,346.3,416.2,349.5z M372.1,423.6c0,0.6,0.2,1.2,0.5,1.5h3.9
	c0.3-0.4,0.5-0.9,0.5-1.5C377.1,420.4,372.1,420.4,372.1,423.6z M378.8,415.2c0-3.2-5-3.2-5,0C373.8,418.4,378.8,418.4,378.8,415.2z
	 M371.3,416.5c0-3.2-5-3.2-5,0C366.3,419.7,371.3,419.7,371.3,416.5z M378.5,407.1c0-3.2-5-3.2-5,0
	C373.5,410.3,378.5,410.3,378.5,407.1z M377.6,399.1c0-3.2-5-3.2-5,0C372.6,402.3,377.6,402.3,377.6,399.1z M372.2,409.6
	c0-3.2-5-3.2-5,0C367.2,412.8,372.2,412.8,372.2,409.6z M371,402.1c0-3.2-5-3.2-5,0C366,405.3,371,405.3,371,402.1z M370.1,392.6
	c0,3.2,5,3.2,5,0C375.1,389.4,370.1,389.4,370.1,392.6z M363.8,389.2c0,3.2,5,3.2,5,0C368.8,385.9,363.8,385.9,363.8,389.2z
	 M361.1,390.2c0-3.2-5-3.2-5,0C356.1,393.4,361.1,393.4,361.1,390.2z M367.2,396c0-3.2-5-3.2-5,0C362.2,399.2,367.2,399.2,367.2,396
	z M358.4,397c0-3.2-5-3.2-5,0C353.4,400.2,358.4,400.2,358.4,397z M357.1,404.4c0-3.2-5-3.2-5,0
	C352.1,407.6,357.1,407.6,357.1,404.4z M364,402.9c0-3.2-5-3.2-5,0C359,406.1,364,406.1,364,402.9z M364.9,409.9c0-3.2-5-3.2-5,0
	C359.9,413.1,364.9,413.1,364.9,409.9z M350.6,411.5c0,3.2,5,3.2,5,0C355.6,408.3,350.6,408.3,350.6,411.5z M352.1,418
	c0-3.2-5-3.2-5,0C347.1,421.2,352.1,421.2,352.1,418z M346.3,422.8c0-3.2-5-3.2-5,0c0,1.4,0.9,2.2,2,2.4h1
	C345.3,425,346.3,424.2,346.3,422.8z M361.4,416.2c0-3.2-5-3.2-5,0C356.4,419.4,361.4,419.4,361.4,416.2z M357.7,423.2
	c0-3.2-5-3.2-5,0c0,1,0.5,1.7,1.1,2h2.8C357.3,424.8,357.7,424.1,357.7,423.2z M339.2,422c0-3.2-5-3.2-5,0
	C334.2,425.2,339.2,425.2,339.2,422z M332.2,419.3c0-3.2-5-3.2-5,0C327.2,422.6,332.2,422.6,332.2,419.3z M326.9,412.7
	c0-3.2-5-3.2-5,0C321.9,415.9,326.9,415.9,326.9,412.7z M315.9,418.2c0,3.2,5,3.2,5,0C320.9,415,315.9,415,315.9,418.2z
	 M322.1,425.1C322.1,425.2,322.1,425.2,322.1,425.1l5,0.1c0,0,0,0,0-0.1C327.1,421.9,322.1,421.9,322.1,425.1z M314.2,425.2h4.1
	C317.4,423.9,315.2,423.9,314.2,425.2z M290.5,301.9c0,3.2,5,3.2,5,0S290.5,298.6,290.5,301.9z M302.5,302.8c0-3.2-5-3.2-5,0
	C297.5,306,302.5,306,302.5,302.8z M293.9,308.4c0,3.2,5,3.2,5,0C298.9,305.2,293.9,305.2,293.9,308.4z M300.8,308.4
	c0,3.2,5,3.2,5,0C305.8,305.2,300.8,305.2,300.8,308.4z M303.8,314.3c0,3.2,5,3.2,5,0C308.8,311.1,303.8,311.1,303.8,314.3z
	 M308,308.9c0,3.2,5,3.2,5,0S308,305.7,308,308.9z M311.2,315.6c0,3.2,5,3.2,5,0C316.2,312.4,311.2,312.4,311.2,315.6z M321.1,311.8
	c0-3.2-5-3.2-5,0C316.1,315,321.1,315,321.1,311.8z M328.1,312.8c0-3.2-5-3.2-5,0C323.1,316,328.1,316,328.1,312.8z M329.6,310.1
	c0,3.2,5,3.2,5,0S329.6,306.9,329.6,310.1z M335.8,305.5c0,3.2,5,3.2,5,0C340.8,302.2,335.8,302.2,335.8,305.5z M388.1,329.9
	c0,2.6,4,2.6,4,0C392.1,327.4,388.1,327.4,388.1,329.9z M370.3,320c0,2.6,4,2.6,4,0C374.3,317.4,370.3,317.4,370.3,320z
	 M375.8,322.3c0,1.9,3,1.9,3,0C378.8,320.4,375.8,320.4,375.8,322.3z M384.1,327.2c0,1.9,3,1.9,3,0
	C387.1,325.3,384.1,325.3,384.1,327.2z M380.2,324.6c0,1.3,2,1.3,2,0C382.2,323.4,380.2,323.4,380.2,324.6z M291.9,152.6
	c0-3.2-5-3.2-5,0C286.9,155.9,291.9,155.9,291.9,152.6z M288.3,145.1c0-3.2-5-3.2-5,0C283.3,148.3,288.3,148.3,288.3,145.1z
	 M275.2,144.1c0,3.2,5,3.2,5,0C280.2,140.8,275.2,140.8,275.2,144.1z M282.3,136.5c0-3.2-5-3.2-5,0
	C277.3,139.7,282.3,139.7,282.3,136.5z M268.5,138.9c0,3.2,5,3.2,5,0C273.5,135.6,268.5,135.6,268.5,138.9z M276.3,130
	c0-3.2-5-3.2-5,0C271.3,133.2,276.3,133.2,276.3,130z M267.2,125.1c0-3.2-5-3.2-5,0C262.2,128.3,267.2,128.3,267.2,125.1z
	 M269.6,132.1c0-3.2-5-3.2-5,0C264.6,135.3,269.6,135.3,269.6,132.1z M263.8,137.3c0-3.2-5-3.2-5,0
	C258.8,140.5,263.8,140.5,263.8,137.3z M261.8,130.3c0-3.2-5-3.2-5,0C256.8,133.5,261.8,133.5,261.8,130.3z M254.5,130.5
	c0-3.2-5-3.2-5,0C249.5,133.8,254.5,133.8,254.5,130.5z M256.3,137.8c0-3.2-5-3.2-5,0C251.3,141,256.3,141,256.3,137.8z
	 M248.5,138.3c0-3.2-5-3.2-5,0C243.5,141.6,248.5,141.6,248.5,138.3z M249,145.4c0-3.2-5-3.2-5,0C244,148.6,249,148.6,249,145.4z
	 M236.7,143.5c0,3.2,5,3.2,5,0C241.7,140.3,236.7,140.3,236.7,143.5z M239.9,152.1c0,3.2,5,3.2,5,0
	C244.9,148.9,239.9,148.9,239.9,152.1z M236.7,158.9c0,3.2,5,3.2,5,0C241.7,155.6,236.7,155.6,236.7,158.9z M233.4,150.6
	c0,3.2,5,3.2,5,0C238.4,147.3,233.4,147.3,233.4,150.6z M231.3,145.6c0-3.2-5-3.2-5,0C226.3,148.8,231.3,148.8,231.3,145.6z
	 M229.2,156.3c0,3.2,5,3.2,5,0C234.2,153,229.2,153,229.2,156.3z M232.8,165.1c0,3.2,5,3.2,5,0C237.8,161.9,232.8,161.9,232.8,165.1
	z M231.6,169.5c0-3.2-5-3.2-5,0C226.6,172.8,231.6,172.8,231.6,169.5z M222.5,145.6c0-3.2-5-3.2-5,0
	C217.5,148.8,222.5,148.8,222.5,145.6z M222.4,151.9c0,3.2,5,3.2,5,0C227.4,148.6,222.4,148.6,222.4,151.9z M223.5,161.5
	c0,3.2,5,3.2,5,0C228.5,158.2,223.5,158.2,223.5,161.5z M216.5,156c0,3.2,5,3.2,5,0C221.5,152.8,216.5,152.8,216.5,156z
	 M212.4,144.8c0-3.2-5-3.2-5,0C207.4,148.1,212.4,148.1,212.4,144.8z M217.3,149.8c0-3.2-5-3.2-5,0C212.3,153,217.3,153,217.3,149.8
	z M208.2,151.1c0-3.2-5-3.2-5,0C203.2,154.3,208.2,154.3,208.2,151.1z M213.9,156.5c0-3.2-5-3.2-5,0
	C208.9,159.8,213.9,159.8,213.9,156.5z M200.9,158.6c0,3.2,5,3.2,5,0C205.9,155.4,200.9,155.4,200.9,158.6z M198.3,161.7
	c0-3.2-5-3.2-5,0C193.3,165,198.3,165,198.3,161.7z M198.3,169c0-3.2-5-3.2-5,0C193.3,172.2,198.3,172.2,198.3,169z M191.3,162.8
	c0-3.2-5-3.2-5,0C186.3,166,191.3,166,191.3,162.8z M190.2,176c0,3.2,5,3.2,5,0C195.2,172.8,190.2,172.8,190.2,176z M186.3,169.8
	c0,3.2,5,3.2,5,0C191.3,166.6,186.3,166.6,186.3,169.8z M179.5,159.1c0,3.2,5,3.2,5,0C184.5,155.9,179.5,155.9,179.5,159.1z
	 M179,166.7c0,3.2,5,3.2,5,0C184,163.4,179,163.4,179,166.7z M186.3,198.4c0,3.2,5,3.2,5,0C191.3,195.2,186.3,195.2,186.3,198.4z
	 M187.1,203.6c0-3.2-5-3.2-5,0C182.1,206.8,187.1,206.8,187.1,203.6z M186.9,192.9c0-3.2-5-3.2-5,0
	C181.9,196.1,186.9,196.1,186.9,192.9z M192.1,187.7c0-3.2-5-3.2-5,0C187.1,191,192.1,191,192.1,187.7z M190,180.4c0-3.2-5-3.2-5,0
	C185,183.7,190,183.7,190,180.4z M183.5,184.3c0-3.2-5-3.2-5,0C178.5,187.6,183.5,187.6,183.5,184.3z M179.8,175.5c0,3.2,5,3.2,5,0
	C184.8,172.3,179.8,172.3,179.8,175.5z M177,159.9c0-3.2-5-3.2-5,0C172,163.1,177,163.1,177,159.9z M177.5,170.6c0-3.2-5-3.2-5,0
	C172.5,173.8,177.5,173.8,177.5,170.6z M172,179.9c0,3.2,5,3.2,5,0C177,176.7,172,176.7,172,179.9z M165,166.7c0,3.2,5,3.2,5,0
	C170,163.4,165,163.4,165,166.7z M164.2,174.5c0,3.2,5,3.2,5,0C169.2,171.2,164.2,171.2,164.2,174.5z M169.2,183.3c0-3.2-5-3.2-5,0
	S169.2,186.5,169.2,183.3z M161.9,170c0-3.2-5-3.2-5,0S161.9,173.3,161.9,170z M157.5,179.1c0,3.2,5,3.2,5,0
	C162.5,175.9,157.5,175.9,157.5,179.1z M163,189c0-3.2-5-3.2-5,0C158,192.3,163,192.3,163,189z M149.1,165.6c0,3.2,5,3.2,5,0
	C154.1,162.4,149.1,162.4,149.1,165.6z M150.4,174.2c0,3.2,5,3.2,5,0C155.4,171,150.4,171,150.4,174.2z M155.4,183c0-3.2-5-3.2-5,0
	C150.4,186.3,155.4,186.3,155.4,183z M157.5,194.2c0-3.2-5-3.2-5,0C152.5,197.4,157.5,197.4,157.5,194.2z M150.2,191.9
	c0-3.2-5-3.2-5,0C145.2,195.1,150.2,195.1,150.2,191.9z M146.1,183c0-3.2-5-3.2-5,0C141.1,186.3,146.1,186.3,146.1,183z M143.4,175
	c0,3.2,5,3.2,5,0C148.4,171.8,143.4,171.8,143.4,175z M142.9,159.1c0,3.2,5,3.2,5,0C147.9,155.9,142.9,155.9,142.9,159.1z
	 M142.4,152.6c0-3.2-5-3.2-5,0C137.4,155.9,142.4,155.9,142.4,152.6z M134.4,152.1c0-3.2-5-3.2-5,0
	C129.4,155.3,134.4,155.3,134.4,152.1z M122.4,157.3c0,3.2,5,3.2,5,0C127.4,154.1,122.4,154.1,122.4,157.3z M133.3,158.6
	c0,3.2,5,3.2,5,0C138.3,155.4,133.3,155.4,133.3,158.6z M141.3,166.4c0,3.2,5,3.2,5,0C146.3,163.2,141.3,163.2,141.3,166.4z
	 M138,165.6c0-3.2-5-3.2-5,0C133,168.9,138,168.9,138,165.6z M140.9,172.4c0-3.2-5-3.2-5,0C135.9,175.6,140.9,175.6,140.9,172.4z
	 M134.1,179.1c0,3.2,5,3.2,5,0C139.1,175.9,134.1,175.9,134.1,179.1z M127,177.3c0,3.2,5,3.2,5,0C132,174.1,127,174.1,127,177.3z
	 M120.8,181.2c0,3.2,5,3.2,5,0C125.8,178,120.8,178,120.8,181.2z M122.9,163.6c0-3.2-5-3.2-5,0C117.9,166.8,122.9,166.8,122.9,163.6
	z M118.3,169.3c0-3.2-5-3.2-5,0S118.3,172.5,118.3,169.3z M107.3,174.2c0,3.2,5,3.2,5,0C112.3,171,107.3,171,107.3,174.2z
	 M121.9,187.5c0-3.2-5-3.2-5,0C116.9,190.7,121.9,190.7,121.9,187.5z M118.5,194.2c0-3.2-5-3.2-5,0
	C113.5,197.4,118.5,197.4,118.5,194.2z M127,169.8c0,3.2,5,3.2,5,0C132,166.6,127,166.6,127,169.8z M126.8,161.5c0,3.2,5,3.2,5,0
	C131.8,158.2,126.8,158.2,126.8,161.5z M124.8,171.3c0-3.2-5-3.2-5,0C119.8,174.6,124.8,174.6,124.8,171.3z M119.6,177.6
	c0-3.2-5-3.2-5,0C114.6,180.8,119.6,180.8,119.6,177.6z M109.9,184.6c0,3.2,5,3.2,5,0C114.9,181.4,109.9,181.4,109.9,184.6z
	 M108.1,214.2c0-3.2-5-3.2-5,0C103.1,217.5,108.1,217.5,108.1,214.2z M107,206.4c0,3.2,5,3.2,5,0C112,203.2,107,203.2,107,206.4z
	 M108.1,198.6c0,3.2,5,3.2,5,0C113.1,195.4,108.1,195.4,108.1,198.6z M111,191.4c0-3.2-5-3.2-5,0C106,194.6,111,194.6,111,191.4z
	 M103.9,180.2c0,3.2,5,3.2,5,0C108.9,177,103.9,177,103.9,180.2z M288.2,160.2c0,3.2,5,3.2,5,0C293.2,156.9,288.2,156.9,288.2,160.2
	z M295.2,162.5c0,3.2,5,3.2,5,0C300.2,159.3,295.2,159.3,295.2,162.5z M294.8,167.4c0-3.2-5-3.2-5,0
	C289.8,170.7,294.8,170.7,294.8,167.4z M300.7,168.2c0,3.2,5,3.2,5,0C305.7,165,300.7,165,300.7,168.2z M289.3,174.2
	c0,3.2,5,3.2,5,0C294.3,171,289.3,171,289.3,174.2z M313.7,174.2c0-3.2-5-3.2-5,0C308.7,177.4,313.7,177.4,313.7,174.2z
	 M294.3,182.3c0-3.2-5-3.2-5,0C289.3,185.5,294.3,185.5,294.3,182.3z M297.6,175.2c0,3.2,5,3.2,5,0C302.6,172,297.6,172,297.6,175.2
	z M308.5,179.7c0-3.2-5-3.2-5,0C303.5,182.9,308.5,182.9,308.5,179.7z M315.8,185.6c0-3.2-5-3.2-5,0
	C310.8,188.9,315.8,188.9,315.8,185.6z M289,190.8c0,3.2,5,3.2,5,0C294,187.6,289,187.6,289,190.8z M301.5,184.6c0-3.2-5-3.2-5,0
	C296.5,187.8,301.5,187.8,301.5,184.6z M303.8,188.8c0,3.2,5,3.2,5,0C308.8,185.5,303.8,185.5,303.8,188.8z M292.4,198.4
	c0,3.2,5,3.2,5,0C297.4,195.2,292.4,195.2,292.4,198.4z M302.3,191.9c0-3.2-5-3.2-5,0C297.3,195.1,302.3,195.1,302.3,191.9z
	 M305.4,201.5c0-3.2-5-3.2-5,0C300.4,204.7,305.4,204.7,305.4,201.5z M316.9,205.9c0-3.2-5-3.2-5,0
	C311.9,209.1,316.9,209.1,316.9,205.9z M312.4,199.4c0-3.2-5-3.2-5,0C307.4,202.6,312.4,202.6,312.4,199.4z M315.8,192.9
	c0-3.2-5-3.2-5,0C310.8,196.1,315.8,196.1,315.8,192.9z M319.2,199.2c0-3.2-5-3.2-5,0C314.2,202.4,319.2,202.4,319.2,199.2z
	 M257.3,105.3c0,3.2,5,3.2,5,0C262.3,102.1,257.3,102.1,257.3,105.3z M249.4,105.3c0,3.2,5,3.2,5,0
	C254.4,102.1,249.4,102.1,249.4,105.3z M243.9,109.6c0,3.2,5,3.2,5,0C248.9,106.4,243.9,106.4,243.9,109.6z M239.3,114.7
	c0,3.2,5,3.2,5,0C244.3,111.4,239.3,111.4,239.3,114.7z M233,119.1c0,3.2,5,3.2,5,0C238,115.9,233,115.9,233,119.1z M231.7,123.2
	c0-3.2-5-3.2-5,0C226.7,126.4,231.7,126.4,231.7,123.2z M221.4,117.9c0,3.2,5,3.2,5,0C226.4,114.7,221.4,114.7,221.4,117.9z
	 M222.3,123.4c0-3.2-5-3.2-5,0C217.3,126.6,222.3,126.6,222.3,123.4z M210.6,120.5c0,3.2,5,3.2,5,0
	C215.6,117.3,210.6,117.3,210.6,120.5z M211,125.6c0-3.2-5-3.2-5,0C206,128.8,211,128.8,211,125.6z M203.7,126c0-3.2-5-3.2-5,0
	C198.7,129.3,203.7,129.3,203.7,126z M193.6,131.1c0,3.2,5,3.2,5,0C198.6,127.9,193.6,127.9,193.6,131.1z M191.7,131.3
	c0-3.2-5-3.2-5,0C186.7,134.5,191.7,134.5,191.7,131.3z M181.2,125.4c0,3.2,5,3.2,5,0C186.2,122.2,181.2,122.2,181.2,125.4z
	 M179.3,128.1c0-3.2-5-3.2-5,0C174.3,131.3,179.3,131.3,179.3,128.1z M175.7,120.5c0,3.2,5,3.2,5,0
	C180.7,117.3,175.7,117.3,175.7,120.5z M169.2,116.3c0,3.2,5,3.2,5,0C174.2,113.1,169.2,113.1,169.2,116.3z M167.8,123
	c0,3.2,5,3.2,5,0C172.8,119.8,167.8,119.8,167.8,123z M169,128.7c0-3.2-5-3.2-5,0C164,131.9,169,131.9,169,128.7z M161.3,127.2
	c0-3.2-5-3.2-5,0C156.3,130.5,161.3,130.5,161.3,127.2z M161.1,120.8c0,3.2,5,3.2,5,0C166.1,117.5,161.1,117.5,161.1,120.8z
	 M162.7,113.6c0,3.2,5,3.2,5,0C167.7,110.4,162.7,110.4,162.7,113.6z M159.8,112c0-3.2-5-3.2-5,0C154.8,115.2,159.8,115.2,159.8,112
	z M154.6,119.3c0,3.2,5,3.2,5,0C159.6,116.1,154.6,116.1,154.6,119.3z M153.5,123.8c0-3.2-5-3.2-5,0
	C148.5,127,153.5,127,153.5,123.8z M152.7,110c0-3.2-5-3.2-5,0C147.7,113.2,152.7,113.2,152.7,110z M147.3,116.7c0,3.2,5,3.2,5,0
	C152.3,113.5,147.3,113.5,147.3,116.7z M140,116.3c0,3.2,5,3.2,5,0C145,113.1,140,113.1,140,116.3z M142.4,122.2c0,3.2,5,3.2,5,0
	S142.4,118.9,142.4,122.2z M134.9,120.8c0,3.2,5,3.2,5,0C139.9,117.5,134.9,117.5,134.9,120.8z M129.2,125.2c0,3.2,5,3.2,5,0
	C134.2,121.9,129.2,121.9,129.2,125.2z M287.1,121.2c0,3.2,5,3.2,5,0C292.1,118,287.1,118,287.1,121.2z M297.2,125.7
	c0-3.2-5-3.2-5,0C292.2,128.9,297.2,128.9,297.2,125.7z M304,127.6c0-3.2-5-3.2-5,0C299,130.9,304,130.9,304,127.6z M303.1,133.5
	c0,3.2,5,3.2,5,0C308.1,130.2,303.1,130.2,303.1,133.5z M314.9,136.9c0-3.2-5-3.2-5,0C309.9,140.2,314.9,140.2,314.9,136.9z
	 M207.8,342c0-3.2-5-3.2-5,0C202.8,345.3,207.8,345.3,207.8,342z M246.1,322.1c0,3.2,5,3.2,5,0C251.1,318.9,246.1,318.9,246.1,322.1
	z M238.8,325.5c0,3.2,5,3.2,5,0C243.8,322.2,238.8,322.2,238.8,325.5z M233.7,330.8c0,3.2,5,3.2,5,0
	C238.7,327.5,233.7,327.5,233.7,330.8z M233.2,341.4c0-3.2-5-3.2-5,0C228.2,344.6,233.2,344.6,233.2,341.4z M233.2,334.7
	c0-3.2-5-3.2-5,0S233.2,338,233.2,334.7z M221.2,339.4c0,3.2,5,3.2,5,0C226.2,336.2,221.2,336.2,221.2,339.4z M224.2,346
	c0-3.2-5-3.2-5,0C219.2,349.2,224.2,349.2,224.2,346z M217.1,349.7c0-3.2-5-3.2-5,0S217.1,352.9,217.1,349.7z M217.1,342.2
	c0-3.2-5-3.2-5,0C212.1,345.4,217.1,345.4,217.1,342.2z M295.4,295.3c0-3.2-5-3.2-5,0C290.4,298.5,295.4,298.5,295.4,295.3z
	 M283.6,299.3c0,3.2,5,3.2,5,0C288.6,296,283.6,296,283.6,299.3z M289.9,290.3c0-3.2-5-3.2-5,0C284.9,293.5,289.9,293.5,289.9,290.3
	z M277.4,295.3c0,3.2,5,3.2,5,0C282.4,292.1,277.4,292.1,277.4,295.3z M277.9,286.7c0,3.2,5,3.2,5,0
	C282.9,283.4,277.9,283.4,277.9,286.7z M271.5,291.5c0,3.2,5,3.2,5,0C276.5,288.2,271.5,288.2,271.5,291.5z M266.5,285.3
	c0,3.2,5,3.2,5,0C271.5,282.1,266.5,282.1,266.5,285.3z M262.7,291c0,3.2,5,3.2,5,0C267.7,287.7,262.7,287.7,262.7,291z
	 M257.7,284.2c0,3.2,5,3.2,5,0C262.7,280.9,257.7,280.9,257.7,284.2z M252.4,288.7c0,3.2,5,3.2,5,0
	C257.4,285.4,252.4,285.4,252.4,288.7z M251.9,281.2c0,3.2,5,3.2,5,0C256.9,278,251.9,278,251.9,281.2z M250.8,289.8
	c0-3.2-5-3.2-5,0S250.8,293,250.8,289.8z M250.4,282.5c0-3.2-5-3.2-5,0C245.4,285.7,250.4,285.7,250.4,282.5z M251.4,273.7
	c0-3.2-5-3.2-5,0C246.4,277,251.4,277,251.4,273.7z M248.3,266.1c0-3.2-5-3.2-5,0S248.3,269.3,248.3,266.1z M244.3,259.8
	c0-3.2-5-3.2-5,0C239.3,263,244.3,263,244.3,259.8z M232.5,258.5c0,3.2,5,3.2,5,0C237.5,255.2,232.5,255.2,232.5,258.5z
	 M227.2,264.3c0,3.2,5,3.2,5,0C232.2,261.1,227.2,261.1,227.2,264.3z M235.2,265.3c0,3.2,5,3.2,5,0C240.2,262,235.2,262,235.2,265.3
	z M244.8,271.4c0-3.2-5-3.2-5,0C239.8,274.6,244.8,274.6,244.8,271.4z M239.8,278.4c0,3.2,5,3.2,5,0S239.8,275.1,239.8,278.4z
	 M239.1,287c0,3.2,5,3.2,5,0C244.1,283.8,239.1,283.8,239.1,287z M234.5,293c0,3.2,5,3.2,5,0S234.5,289.7,234.5,293z M223.7,271.1
	c0,3.2,5,3.2,5,0C228.7,267.9,223.7,267.9,223.7,271.1z M236.8,271.7c0-3.2-5-3.2-5,0C231.8,275,236.8,275,236.8,271.7z
	 M233.8,282.5c0,3.2,5,3.2,5,0C238.8,279.3,233.8,279.3,233.8,282.5z M220.6,278.4c0,3.2,5,3.2,5,0S220.6,275.1,220.6,278.4z
	 M233,277.5c0-3.2-5-3.2-5,0C228,280.8,233,280.8,233,277.5z M221.9,285c0-3.2-5-3.2-5,0C216.9,288.2,221.9,288.2,221.9,285z
	 M225.4,284c0,3.2,5,3.2,5,0C230.4,280.8,225.4,280.8,225.4,284z M230.7,288c0,3.2,5,3.2,5,0C235.7,284.8,230.7,284.8,230.7,288z
	 M222.2,289.5c0,3.2,5,3.2,5,0S222.2,286.3,222.2,289.5z M232.7,294.8c0-3.2-5-3.2-5,0C227.7,298,232.7,298,232.7,294.8z
	 M224.7,300.9c0,3.2,5,3.2,5,0C229.7,297.7,224.7,297.7,224.7,300.9z M220.1,295.1c0,3.2,5,3.2,5,0
	C225.1,291.9,220.1,291.9,220.1,295.1z M218.8,291.3c0-3.2-5-3.2-5,0C213.8,294.5,218.8,294.5,218.8,291.3z M217.1,298.8
	c0-3.2-5-3.2-5,0S217.1,302,217.1,298.8z M223.4,302.9c0-3.2-5-3.2-5,0C218.4,306.1,223.4,306.1,223.4,302.9z M220.6,309.5
	c0-3.2-5-3.2-5,0S220.6,312.8,220.6,309.5z M209,303.7c0-3.2-5-3.2-5,0C204,307,209,307,209,303.7z M213.1,315.3c0-3.2-5-3.2-5,0
	C208.1,318.6,213.1,318.6,213.1,315.3z M210,307.2c0,3.2,5,3.2,5,0C215,304,210,304,210,307.2z M206.3,311.2c0-3.2-5-3.2-5,0
	C201.3,314.4,206.3,314.4,206.3,311.2z M194.2,308.7c0,3.2,5,3.2,5,0C199.2,305.5,194.2,305.5,194.2,308.7z M201.4,315.8
	c0-3.2-5-3.2-5,0C196.4,319.1,201.4,319.1,201.4,315.8z M192.7,312.7c0-3.2-5-3.2-5,0S192.7,315.9,192.7,312.7z M184.9,311.5
	c0-3.2-5-3.2-5,0C179.9,314.8,184.9,314.8,184.9,311.5z M177.2,310.4c0-3.2-5-3.2-5,0C172.2,313.6,177.2,313.6,177.2,310.4z
	 M153.8,300.8c0,3.2,5,3.2,5,0S153.8,297.5,153.8,300.8z M156.3,294.6c0-3.2-5-3.2-5,0S156.3,297.8,156.3,294.6z M149.1,296.8
	c0-3.2-5-3.2-5,0S149.1,300,149.1,296.8z M151.3,288.8c0-3.2-5-3.2-5,0C146.3,292,151.3,292,151.3,288.8z M143.8,287.2
	c0-3.2-5-3.2-5,0C138.8,290.4,143.8,290.4,143.8,287.2z M137.3,294c0,3.2,5,3.2,5,0C142.3,290.7,137.3,290.7,137.3,294z
	 M130.5,294.8c0,3.2,5,3.2,5,0C135.5,291.6,130.5,291.6,130.5,294.8z M128.4,300.9c0,3.2,5,3.2,5,0
	C133.4,297.7,128.4,297.7,128.4,300.9z M307.8,257.5c0-3.2-5-3.2-5,0C302.8,260.7,307.8,260.7,307.8,257.5z M307.3,264.9
	c0-3.2-5-3.2-5,0C302.3,268.2,307.3,268.2,307.3,264.9z M314.6,260.5c0-3.2-5-3.2-5,0C309.6,263.7,314.6,263.7,314.6,260.5z
	 M308.8,268.4c0,3.2,5,3.2,5,0C313.8,265.2,308.8,265.2,308.8,268.4z M316.2,272.6c0,3.2,5,3.2,5,0S316.2,269.3,316.2,272.6z
	 M321.4,265.1c0-3.2-5-3.2-5,0C316.4,268.3,321.4,268.3,321.4,265.1z M321.6,257.1c0-3.2-5-3.2-5,0
	C316.6,260.4,321.6,260.4,321.6,257.1z M296,253.7c0,3.2,5,3.2,5,0C301,250.4,296,250.4,296,253.7z M304.7,247c0-3.2-5-3.2-5,0
	C299.7,250.3,304.7,250.3,304.7,247z M304.3,239.2c0-3.2-5-3.2-5,0C299.3,242.5,304.3,242.5,304.3,239.2z M297.4,247.9
	c0-3.2-5-3.2-5,0C292.4,251.1,297.4,251.1,297.4,247.9z M298.5,230.1c0,3.2,5,3.2,5,0S298.5,226.9,298.5,230.1z M293.4,234.9
	c0,3.2,5,3.2,5,0C298.4,231.7,293.4,231.7,293.4,234.9z M296.2,241.6c0-3.2-5-3.2-5,0C291.2,244.8,296.2,244.8,296.2,241.6z
	 M285.9,234.1c0,3.2,5,3.2,5,0S285.9,230.9,285.9,234.1z M289.9,247c0-3.2-5-3.2-5,0C284.9,250.3,289.9,250.3,289.9,247z
	 M283.6,239.9c0,3.2,5,3.2,5,0C288.6,236.7,283.6,236.7,283.6,239.9z M268.7,252c0,3.2,5,3.2,5,0C273.7,248.8,268.7,248.8,268.7,252
	z M281.1,247.4c0-3.2-5-3.2-5,0C276.1,250.6,281.1,250.6,281.1,247.4z M270.3,245.2c0-3.2-5-3.2-5,0
	C265.3,248.4,270.3,248.4,270.3,245.2z M264,235.9c0,3.2,5,3.2,5,0C269,232.7,264,232.7,264,235.9z M277.1,242.6c0-3.2-5-3.2-5,0
	C272.1,245.8,277.1,245.8,277.1,242.6z M277.6,236.3c0,3.2,5,3.2,5,0C282.6,233,277.6,233,277.6,236.3z M270.8,232.9
	c0,3.2,5,3.2,5,0C275.8,229.7,270.8,229.7,270.8,232.9z M266.8,226.6c0,3.2,5,3.2,5,0C271.8,223.4,266.8,223.4,266.8,226.6z
	 M271.3,219.3c0-3.2-5-3.2-5,0C266.3,222.6,271.3,222.6,271.3,219.3z M265.8,211.1c0,3.2,5,3.2,5,0
	C270.8,207.8,265.8,207.8,265.8,211.1z M272.5,202.6c0-3.2-5-3.2-5,0C267.5,205.8,272.5,205.8,272.5,202.6z M265,203.9
	c0-3.2-5-3.2-5,0C260,207.1,265,207.1,265,203.9z M272.2,194.5c0-3.2-5-3.2-5,0C267.2,197.7,272.2,197.7,272.2,194.5z M271.3,186.5
	c0-3.2-5-3.2-5,0C266.3,189.7,271.3,189.7,271.3,186.5z M265.9,197c0-3.2-5-3.2-5,0C260.9,200.2,265.9,200.2,265.9,197z
	 M264.7,189.5c0-3.2-5-3.2-5,0C259.7,192.7,264.7,192.7,264.7,189.5z M268.8,180c0-3.2-5-3.2-5,0C263.8,183.3,268.8,183.3,268.8,180
	z M257.5,176.6c0,3.2,5,3.2,5,0C262.5,173.3,257.5,173.3,257.5,176.6z M249.8,177.6c0,3.2,5,3.2,5,0S249.8,174.3,249.8,177.6z
	 M260.9,183.4c0-3.2-5-3.2-5,0C255.9,186.6,260.9,186.6,260.9,183.4z M252.1,184.4c0-3.2-5-3.2-5,0
	C247.1,187.6,252.1,187.6,252.1,184.4z M250.8,191.8c0-3.2-5-3.2-5,0C245.8,195,250.8,195,250.8,191.8z M257.7,190.3
	c0-3.2-5-3.2-5,0C252.7,193.5,257.7,193.5,257.7,190.3z M258.6,197.3c0-3.2-5-3.2-5,0C253.6,200.5,258.6,200.5,258.6,197.3z
	 M244.3,198.9c0,3.2,5,3.2,5,0C249.3,195.7,244.3,195.7,244.3,198.9z M245.8,205.4c0-3.2-5-3.2-5,0
	C240.8,208.6,245.8,208.6,245.8,205.4z M235,210.2c0,3.2,5,3.2,5,0C240,207,235,207,235,210.2z M255.1,203.6c0-3.2-5-3.2-5,0
	C250.1,206.8,255.1,206.8,255.1,203.6z M251.4,210.6c0-3.2-5-3.2-5,0C246.4,213.8,251.4,213.8,251.4,210.6z M242.5,217
	c0,3.2,5,3.2,5,0C247.5,213.8,242.5,213.8,242.5,217z M238.5,224.1c0,3.2,5,3.2,5,0C243.5,220.9,238.5,220.9,238.5,224.1z
	 M239.3,217.7c0-3.2-5-3.2-5,0C234.3,220.9,239.3,220.9,239.3,217.7z M232.9,209.4c0-3.2-5-3.2-5,0
	C227.9,212.6,232.9,212.6,232.9,209.4z M233.2,221.5c0-3.2-5-3.2-5,0C228.2,224.7,233.2,224.7,233.2,221.5z M224.1,215.2
	c0,3.2,5,3.2,5,0S224.1,212,224.1,215.2z M225.9,206.7c0-3.2-5-3.2-5,0S225.9,210,225.9,206.7z M220.6,200.1c0-3.2-5-3.2-5,0
	C215.6,203.3,220.6,203.3,220.6,200.1z M209.6,205.6c0,3.2,5,3.2,5,0C214.6,202.4,209.6,202.4,209.6,205.6z M225.1,222.2
	c0-3.2-5-3.2-5,0S225.1,225.4,225.1,222.2z M215.8,212.5c0,3.2,5,3.2,5,0C220.8,209.3,215.8,209.3,215.8,212.5z M207.5,214
	c0,3.2,5,3.2,5,0S207.5,210.8,207.5,214z M212.6,220.7c0,3.2,5,3.2,5,0C217.6,217.4,212.6,217.4,212.6,220.7z M212.4,229
	c0,3.2,5,3.2,5,0C217.4,225.7,212.4,225.7,212.4,229z M205.3,223.3c0,3.2,5,3.2,5,0S205.3,220.1,205.3,223.3z M204.7,231.8
	c0,3.2,5,3.2,5,0C209.7,228.6,204.7,228.6,204.7,231.8z M208.6,237.9c0,3.2,5,3.2,5,0C213.6,234.7,208.6,234.7,208.6,237.9z
	 M207.2,241.6c0-3.2-5-3.2-5,0C202.2,244.8,207.2,244.8,207.2,241.6z M211.3,248.2c0-3.2-5-3.2-5,0
	C206.3,251.4,211.3,251.4,211.3,248.2z M203.9,249.9c0-3.2-5-3.2-5,0C198.9,253.1,203.9,253.1,203.9,249.9z M210,255.2
	c0-3.2-5-3.2-5,0S210,258.4,210,255.2z M198.4,257.6c0,3.2,5,3.2,5,0C203.4,254.4,198.4,254.4,198.4,257.6z M206.2,264.6
	c0-3.2-5-3.2-5,0C201.2,267.8,206.2,267.8,206.2,264.6z M190.9,257c0,3.2,5,3.2,5,0C195.9,253.8,190.9,253.8,190.9,257z
	 M198.4,263.6c0-3.2-5-3.2-5,0C193.4,266.8,198.4,266.8,198.4,263.6z M197.9,270.7c0-3.2-5-3.2-5,0C192.9,274,197.9,274,197.9,270.7
	z M182.9,259c0,3.2,5,3.2,5,0C187.9,255.7,182.9,255.7,182.9,259z M186.4,265.4c0,3.2,5,3.2,5,0S186.4,262.2,186.4,265.4z
	 M190.9,273.1c0-3.2-5-3.2-5,0C185.9,276.3,190.9,276.3,190.9,273.1z M183.5,274.9c0-3.2-5-3.2-5,0
	C178.5,278.1,183.5,278.1,183.5,274.9z M171.3,272.9c0,3.2,5,3.2,5,0C176.3,269.7,171.3,269.7,171.3,272.9z M167,266.1
	c0,3.2,5,3.2,5,0S167,262.9,167,266.1z M178.6,267.1c0,3.2,5,3.2,5,0C183.6,263.9,178.6,263.9,178.6,267.1z M174.3,260.5
	c0,3.2,5,3.2,5,0C179.3,257.2,174.3,257.2,174.3,260.5z M167.5,258.6c0,3.2,5,3.2,5,0C172.5,255.4,167.5,255.4,167.5,258.6z
	 M163.7,251.2c0,3.2,5,3.2,5,0C168.7,248,163.7,248,163.7,251.2z M158.6,245.9c0,3.2,5,3.2,5,0C163.6,242.6,158.6,242.6,158.6,245.9
	z M165.2,238.6c0-3.2-5-3.2-5,0C160.2,241.8,165.2,241.8,165.2,238.6z M160.5,230.4c0,3.2,5,3.2,5,0
	C165.5,227.2,160.5,227.2,160.5,230.4z M161.5,222.8c0,3.2,5,3.2,5,0C166.5,219.6,161.5,219.6,161.5,222.8z M162.5,215.7
	c0,3.2,5,3.2,5,0C167.5,212.5,162.5,212.5,162.5,215.7z M154.7,225.8c0,3.2,5,3.2,5,0C159.7,222.6,154.7,222.6,154.7,225.8z
	 M158.8,234.4c0-3.2-5-3.2-5,0C153.8,237.7,158.8,237.7,158.8,234.4z M157.6,241.2c0-3.2-5-3.2-5,0
	C152.6,244.5,157.6,244.5,157.6,241.2z M152,246c0-3.2-5-3.2-5,0C147,249.3,152,249.3,152,246z M147.4,230.3c0,3.2,5,3.2,5,0
	C152.4,227.1,147.4,227.1,147.4,230.3z M146.6,237.9c0,3.2,5,3.2,5,0C151.6,234.7,146.6,234.7,146.6,237.9z M145,243.2
	c0-3.2-5-3.2-5,0S145,246.4,145,243.2z M140.7,235.6c0,3.2,5,3.2,5,0S140.7,232.4,140.7,235.6z M139,228c0,3.2,5,3.2,5,0
	C144,224.7,139,224.7,139,228z M138.5,222.5c0-3.2-5-3.2-5,0C133.5,225.7,138.5,225.7,138.5,222.5z M129,216.2c0,3.2,5,3.2,5,0
	C134,213,129,213,129,216.2z M128.1,221.7c0-3.2-5-3.2-5,0C123.1,224.9,128.1,224.9,128.1,221.7z M138.9,238.7c0-3.2-5-3.2-5,0
	C133.9,242,138.9,242,138.9,238.7z M137.4,230.8c0-3.2-5-3.2-5,0C132.4,234,137.4,234,137.4,230.8z M127.2,226.6c0,3.2,5,3.2,5,0
	C132.2,223.4,127.2,223.4,127.2,226.6z M120.8,229.5c0,3.2,5,3.2,5,0C125.8,226.2,120.8,226.2,120.8,229.5z M127.1,234.6
	c0,3.2,5,3.2,5,0C132.1,231.4,127.1,231.4,127.1,234.6z M130.1,241.9c0-3.2-5-3.2-5,0C125.1,245.1,130.1,245.1,130.1,241.9z
	 M119.6,237.2c0,3.2,5,3.2,5,0C124.6,234,119.6,234,119.6,237.2z M123.3,244.7c0-3.2-5-3.2-5,0C118.3,247.9,123.3,247.9,123.3,244.7
	z M123.6,252.7c0-3.2-5-3.2-5,0C118.6,255.9,123.6,255.9,123.6,252.7z M117.3,249.5c0-3.2-5-3.2-5,0
	C112.3,252.7,117.3,252.7,117.3,249.5z M110.1,255.7c0,3.2,5,3.2,5,0C115.1,252.4,110.1,252.4,110.1,255.7z M116.9,259.1
	c0,3.2,5,3.2,5,0C121.9,255.9,116.9,255.9,116.9,259.1z M115,267.4c0,3.2,5,3.2,5,0C120,264.2,115,264.2,115,267.4z M116,274.1
	c0-3.2-5-3.2-5,0C111,277.3,116,277.3,116,274.1z M110,262.1c0,3.2,5,3.2,5,0C115,258.9,110,258.9,110,262.1z M114,268.6
	c0-3.2-5-3.2-5,0S114,271.8,114,268.6z M189.2,89.3c0-3.2-5-3.2-5,0C184.2,92.5,189.2,92.5,189.2,89.3z M196.2,90.2c0-3.2-5-3.2-5,0
	C191.2,93.4,196.2,93.4,196.2,90.2z M187.6,95.8c0,3.2,5,3.2,5,0C192.6,92.6,187.6,92.6,187.6,95.8z M194.5,95.8c0,3.2,5,3.2,5,0
	C199.5,92.6,194.5,92.6,194.5,95.8z M197.5,101.8c0,3.2,5,3.2,5,0C202.5,98.5,197.5,98.5,197.5,101.8z M201.7,96.3c0,3.2,5,3.2,5,0
	C206.7,93.1,201.7,93.1,201.7,96.3z M204.9,103c0,3.2,5,3.2,5,0C209.9,99.8,204.9,99.8,204.9,103z M214.8,99.2c0-3.2-5-3.2-5,0
	C209.8,102.4,214.8,102.4,214.8,99.2z M221.8,100.2c0-3.2-5-3.2-5,0C216.8,103.4,221.8,103.4,221.8,100.2z M228.3,97.5
	c0-3.2-5-3.2-5,0C223.3,100.7,228.3,100.7,228.3,97.5z M234.5,92.9c0-3.2-5-3.2-5,0C229.5,96.1,234.5,96.1,234.5,92.9z M160.3,305.4
	c0,2.6,4,2.6,4,0C164.3,302.8,160.3,302.8,160.3,305.4z M169.9,308.4c0-2.6-4-2.6-4,0C165.9,310.9,169.9,310.9,169.9,308.4z
	 M281.8,117.4c0,2.6,4,2.6,4,0C285.8,114.8,281.8,114.8,281.8,117.4z M264,107.4c0,2.6,4,2.6,4,0C268,104.8,264,104.8,264,107.4z
	 M269.5,109.7c0,1.9,3,1.9,3,0C272.5,107.8,269.5,107.8,269.5,109.7z M277.8,114.7c0,1.9,3,1.9,3,0
	C280.8,112.7,277.8,112.7,277.8,114.7z M275.9,112c0-1.3-2-1.3-2,0C273.9,113.3,275.9,113.3,275.9,112z M214.4,1.6
	c0-0.7-0.2-1.2-0.6-1.6H210c-0.4,0.4-0.6,0.9-0.6,1.6C209.4,4.9,214.4,4.9,214.4,1.6z M314.1,129.4c0-3.2-5-3.2-5,0
	C309.1,132.7,314.1,132.7,314.1,129.4z M352.4,109.5c0,3.2,5,3.2,5,0C357.4,106.3,352.4,106.3,352.4,109.5z M345.1,112.9
	c0,3.2,5,3.2,5,0C350.1,109.6,345.1,109.6,345.1,112.9z M340,118.2c0,3.2,5,3.2,5,0C345,114.9,340,114.9,340,118.2z M339.5,128.8
	c0-3.2-5-3.2-5,0C334.5,132,339.5,132,339.5,128.8z M339.5,122.1c0-3.2-5-3.2-5,0C334.5,125.4,339.5,125.4,339.5,122.1z
	 M332.5,126.8c0-3.2-5-3.2-5,0C327.5,130,332.5,130,332.5,126.8z M325.5,133.4c0,3.2,5,3.2,5,0C330.5,130.2,325.5,130.2,325.5,133.4
	z M318.4,137.1c0,3.2,5,3.2,5,0C323.4,133.8,318.4,133.8,318.4,137.1z M323.4,129.6c0-3.2-5-3.2-5,0
	C318.4,132.8,323.4,132.8,323.4,129.6z M396.7,82.7c0,3.2,5,3.2,5,0C401.7,79.5,396.7,79.5,396.7,82.7z M389.9,86.7c0,3.2,5,3.2,5,0
	C394.9,83.4,389.9,83.4,389.9,86.7z M391.2,77.7c0,3.2,5,3.2,5,0C396.2,74.5,391.2,74.5,391.2,77.7z M383.7,82.7c0,3.2,5,3.2,5,0
	C388.7,79.5,383.7,79.5,383.7,82.7z M384.2,74.1c0,3.2,5,3.2,5,0C389.2,70.8,384.2,70.8,384.2,74.1z M377.8,78.9c0,3.2,5,3.2,5,0
	C382.8,75.6,377.8,75.6,377.8,78.9z M372.8,72.7c0,3.2,5,3.2,5,0C377.8,69.5,372.8,69.5,372.8,72.7z M369,78.4c0,3.2,5,3.2,5,0
	C374,75.1,369,75.1,369,78.4z M364,71.6c0,3.2,5,3.2,5,0C369,68.4,364,68.4,364,71.6z M358.7,76.1c0,3.2,5,3.2,5,0
	C363.7,72.8,358.7,72.8,358.7,76.1z M358.2,68.6c0,3.2,5,3.2,5,0C363.2,65.4,358.2,65.4,358.2,68.6z M357.1,77.2c0-3.2-5-3.2-5,0
	C352.1,80.4,357.1,80.4,357.1,77.2z M356.7,69.9c0-3.2-5-3.2-5,0C351.7,73.1,356.7,73.1,356.7,69.9z M352.7,61.1c0,3.2,5,3.2,5,0
	C357.7,57.9,352.7,57.9,352.7,61.1z M354.6,53.5c0-3.2-5-3.2-5,0C349.6,56.7,354.6,56.7,354.6,53.5z M350.6,47.2c0-3.2-5-3.2-5,0
	C345.6,50.4,350.6,50.4,350.6,47.2z M338.8,45.9c0,3.2,5,3.2,5,0C343.8,42.6,338.8,42.6,338.8,45.9z M333.5,51.7c0,3.2,5,3.2,5,0
	C338.5,48.5,333.5,48.5,333.5,51.7z M346.5,52.7c0-3.2-5-3.2-5,0C341.5,55.9,346.5,55.9,346.5,52.7z M351.1,58.8c0-3.2-5-3.2-5,0
	C346.1,62,351.1,62,351.1,58.8z M346.1,65.8c0,3.2,5,3.2,5,0C351.1,62.5,346.1,62.5,346.1,65.8z M345.4,74.4c0,3.2,5,3.2,5,0
	C350.4,71.2,345.4,71.2,345.4,74.4z M345.8,80.4c0-3.2-5-3.2-5,0C340.8,83.6,345.8,83.6,345.8,80.4z M330,58.5c0,3.2,5,3.2,5,0
	C335,55.3,330,55.3,330,58.5z M343.1,59.1c0-3.2-5-3.2-5,0C338.1,62.4,343.1,62.4,343.1,59.1z M340.1,69.9c0,3.2,5,3.2,5,0
	C345.1,66.7,340.1,66.7,340.1,69.9z M326.9,65.8c0,3.2,5,3.2,5,0C331.9,62.5,326.9,62.5,326.9,65.8z M339.3,64.9c0-3.2-5-3.2-5,0
	C334.3,68.2,339.3,68.2,339.3,64.9z M328.2,72.4c0-3.2-5-3.2-5,0C323.2,75.6,328.2,75.6,328.2,72.4z M331.7,71.4c0,3.2,5,3.2,5,0
	C336.7,68.2,331.7,68.2,331.7,71.4z M337,75.4c0,3.2,5,3.2,5,0C342,72.2,337,72.2,337,75.4z M333.5,76.9c0-3.2-5-3.2-5,0
	C328.5,80.1,333.5,80.1,333.5,76.9z M339,82.2c0-3.2-5-3.2-5,0C334,85.4,339,85.4,339,82.2z M331,88.3c0,3.2,5,3.2,5,0
	C336,85.1,331,85.1,331,88.3z M331.4,82.5c0-3.2-5-3.2-5,0C326.4,85.7,331.4,85.7,331.4,82.5z M325.1,78.7c0-3.2-5-3.2-5,0
	C320.1,81.9,325.1,81.9,325.1,78.7z M318.4,86.2c0,3.2,5,3.2,5,0C323.4,82.9,318.4,82.9,318.4,86.2z M329.7,90.3c0-3.2-5-3.2-5,0
	C324.7,93.5,329.7,93.5,329.7,90.3z M326.9,96.9c0-3.2-5-3.2-5,0C321.9,100.2,326.9,100.2,326.9,96.9z M315.3,91.1c0-3.2-5-3.2-5,0
	S315.3,94.4,315.3,91.1z M314.4,102.7c0,3.2,5,3.2,5,0C319.4,99.5,314.4,99.5,314.4,102.7z M316.3,94.6c0,3.2,5,3.2,5,0
	C321.3,91.4,316.3,91.4,316.3,94.6z M307.6,98.6c0,3.2,5,3.2,5,0C312.6,95.4,307.6,95.4,307.6,98.6z M300.5,96.1c0,3.2,5,3.2,5,0
	C305.5,92.9,300.5,92.9,300.5,96.1z M307.7,103.2c0-3.2-5-3.2-5,0C302.7,106.5,307.7,106.5,307.7,103.2z M299,100.1c0-3.2-5-3.2-5,0
	C294,103.3,299,103.3,299,100.1z M291.2,98.9c0-3.2-5-3.2-5,0C286.2,102.2,291.2,102.2,291.2,98.9z M278.5,97.8c0,3.2,5,3.2,5,0
	C283.5,94.5,278.5,94.5,278.5,97.8z M260,88.2c0,3.2,5,3.2,5,0C265,84.9,260,84.9,260,88.2z M262.6,82c0-3.2-5-3.2-5,0
	C257.6,85.2,262.6,85.2,262.6,82z M255.4,84.2c0-3.2-5-3.2-5,0C250.4,87.4,255.4,87.4,255.4,84.2z M257.6,76.2c0-3.2-5-3.2-5,0
	C252.6,79.4,257.6,79.4,257.6,76.2z M245.1,74.6c0,3.2,5,3.2,5,0C250.1,71.3,245.1,71.3,245.1,74.6z M243.6,81.4c0,3.2,5,3.2,5,0
	C248.6,78.1,243.6,78.1,243.6,81.4z M236.8,82.2c0,3.2,5,3.2,5,0C241.8,79,236.8,79,236.8,82.2z M239.7,88.3c0-3.2-5-3.2-5,0
	C234.7,91.5,239.7,91.5,239.7,88.3z M414.1,44.9c0-3.2-5-3.2-5,0C409.1,48.1,414.1,48.1,414.1,44.9z M413.6,52.3c0-3.2-5-3.2-5,0
	C408.6,55.6,413.6,55.6,413.6,52.3z M415.9,47.9c0,3.2,5,3.2,5,0C420.9,44.6,415.9,44.6,415.9,47.9z M415.1,55.8c0,3.2,5,3.2,5,0
	C420.1,52.6,415.1,52.6,415.1,55.8z M422.5,60c0,1.7,1.4,2.5,2.7,2.4v-4.8C423.9,57.5,422.5,58.3,422.5,60z M422.7,52.5
	c0,1.6,1.2,2.4,2.5,2.4v-4.8C424,50.1,422.7,50.9,422.7,52.5z M422.9,44.5c0,1.5,1.1,2.3,2.3,2.4v-4.8C424,42.2,422.9,43,422.9,44.5
	z M402.3,41.1c0,3.2,5,3.2,5,0C407.3,37.8,402.3,37.8,402.3,41.1z M406,34.4c0,3.2,5,3.2,5,0C411,31.2,406,31.2,406,34.4z
	 M405.6,26.6c0,3.2,5,3.2,5,0C410.6,23.4,405.6,23.4,405.6,26.6z M398.7,35.3c0,3.2,5,3.2,5,0C403.7,32,398.7,32,398.7,35.3z
	 M404.8,17.5c0,3.2,5,3.2,5,0C409.8,14.3,404.8,14.3,404.8,17.5z M399.7,22.3c0,3.2,5,3.2,5,0C404.7,19.1,399.7,19.1,399.7,22.3z
	 M397.5,29c0,3.2,5,3.2,5,0S397.5,25.7,397.5,29z M397.2,21.5c0-3.2-5-3.2-5,0C392.2,24.7,397.2,24.7,397.2,21.5z M391.2,34.4
	c0,3.2,5,3.2,5,0C396.2,31.2,391.2,31.2,391.2,34.4z M394.9,27.3c0-3.2-5-3.2-5,0C389.9,30.5,394.9,30.5,394.9,27.3z M380,39.4
	c0-3.2-5-3.2-5,0C375,42.6,380,42.6,380,39.4z M387.4,34.8c0-3.2-5-3.2-5,0C382.4,38,387.4,38,387.4,34.8z M371.6,32.6
	c0,3.2,5,3.2,5,0C376.6,29.4,371.6,29.4,371.6,32.6z M370.3,23.3c0,3.2,5,3.2,5,0C375.3,20.1,370.3,20.1,370.3,23.3z M378.4,30
	c0,3.2,5,3.2,5,0C383.4,26.7,378.4,26.7,378.4,30z M383.9,23.7c0,3.2,5,3.2,5,0C388.9,20.4,383.9,20.4,383.9,23.7z M377.1,20.3
	c0,3.2,5,3.2,5,0C382.1,17.1,377.1,17.1,377.1,20.3z M373.1,14c0,3.2,5,3.2,5,0C378.1,10.8,373.1,10.8,373.1,14z M372.6,6.7
	c0,3.2,5,3.2,5,0C377.6,3.5,372.6,3.5,372.6,6.7z M376.6,0h-3.9C373.6,1.2,375.6,1.2,376.6,0z M344.3,0h-1
	C343.6,0.1,344,0.1,344.3,0z M356.6,0h-2.8C354.7,0.5,355.8,0.5,356.6,0z M353.8,4.4c0-3.2-5-3.2-5,0C348.8,7.6,353.8,7.6,353.8,4.4
	z M344.8,11.6c0,3.2,5,3.2,5,0C349.8,8.3,344.8,8.3,344.8,11.6z M345.6,5.1c0-3.2-5-3.2-5,0C340.6,8.3,345.6,8.3,345.6,5.1z
	 M339.5,8.9c0-3.2-5-3.2-5,0C334.5,12.1,339.5,12.1,339.5,8.9z M330.4,2.6c0,3.2,5,3.2,5,0C335.4-0.6,330.4-0.6,330.4,2.6z
	 M331.4,9.6c0-3.2-5-3.2-5,0C326.4,12.8,331.4,12.8,331.4,9.6z M327.1,0h-5C322.1,3.1,327,3.1,327.1,0z M318.8,1.4
	c0-0.6-0.2-1.1-0.4-1.4h-4.1c-0.3,0.4-0.4,0.9-0.4,1.4C313.8,4.7,318.8,4.7,318.8,1.4z M323.9,8.1c0-3.2-5-3.2-5,0
	C318.9,11.3,323.9,11.3,323.9,8.1z M318.7,16.4c0,3.2,5,3.2,5,0C323.7,13.1,318.7,13.1,318.7,16.4z M316.6,10.7c0-3.2-5-3.2-5,0
	C311.6,13.9,316.6,13.9,316.6,10.7z M311,19.2c0,3.2,5,3.2,5,0C316,16,311,16,311,19.2z M319.9,25.3c0-3.2-5-3.2-5,0
	C314.9,28.5,319.9,28.5,319.9,25.3z M308.5,29c0,3.2,5,3.2,5,0S308.5,25.7,308.5,29z M317.6,35.6c0-3.2-5-3.2-5,0
	C312.6,38.8,317.6,38.8,317.6,35.6z M310.2,37.3c0-3.2-5-3.2-5,0C305.2,40.5,310.2,40.5,310.2,37.3z M311.3,42.6c0,3.2,5,3.2,5,0
	C316.3,39.3,311.3,39.3,311.3,42.6z M309.7,45c0-3.2-5-3.2-5,0C304.7,48.3,309.7,48.3,309.7,45z M312.5,52c0-3.2-5-3.2-5,0
	C307.5,55.2,312.5,55.2,312.5,52z M297.2,44.4c0,3.2,5,3.2,5,0C302.2,41.2,297.2,41.2,297.2,44.4z M299.7,51c0,3.2,5,3.2,5,0
	C304.7,47.8,299.7,47.8,299.7,51z M299.2,58.1c0,3.2,5,3.2,5,0C304.2,54.9,299.2,54.9,299.2,58.1z M294.2,46.4c0-3.2-5-3.2-5,0
	C289.2,49.6,294.2,49.6,294.2,46.4z M297.7,52.8c0-3.2-5-3.2-5,0C292.7,56.1,297.7,56.1,297.7,52.8z M297.2,60.5c0-3.2-5-3.2-5,0
	C292.2,63.7,297.2,63.7,297.2,60.5z M289.8,62.3c0-3.2-5-3.2-5,0C284.8,65.5,289.8,65.5,289.8,62.3z M277.6,60.3c0,3.2,5,3.2,5,0
	C282.6,57.1,277.6,57.1,277.6,60.3z M273.3,53.5c0,3.2,5,3.2,5,0C278.3,50.3,273.3,50.3,273.3,53.5z M289.9,54.5c0-3.2-5-3.2-5,0
	C284.9,57.7,289.9,57.7,289.9,54.5z M285.6,47.9c0-3.2-5-3.2-5,0C280.6,51.1,285.6,51.1,285.6,47.9z M273.8,46c0,3.2,5,3.2,5,0
	C278.8,42.8,273.8,42.8,273.8,46z M275,38.6c0-3.2-5-3.2-5,0C270,41.8,275,41.8,275,38.6z M264.9,33.3c0,3.2,5,3.2,5,0
	C269.9,30,264.9,30,264.9,33.3z M271.5,26c0-3.2-5-3.2-5,0C266.5,29.2,271.5,29.2,271.5,26z M266.8,17.9c0,3.2,5,3.2,5,0
	C271.8,14.6,266.8,14.6,266.8,17.9z M272.8,10.2c0-3.2-5-3.2-5,0C267.8,13.4,272.8,13.4,272.8,10.2z M268.8,3.1c0,3.2,5,3.2,5,0
	C273.8-0.1,268.8-0.1,268.8,3.1z M261,13.2c0,3.2,5,3.2,5,0C266,10,261,10,261,13.2z M260,21.8c0,3.2,5,3.2,5,0S260,18.6,260,21.8z
	 M263.9,28.6c0-3.2-5-3.2-5,0C258.9,31.9,263.9,31.9,263.9,28.6z M258.3,33.4c0-3.2-5-3.2-5,0C253.3,36.7,258.3,36.7,258.3,33.4z
	 M253.7,17.7c0,3.2,5,3.2,5,0C258.7,14.5,253.7,14.5,253.7,17.7z M257.9,25.3c0-3.2-5-3.2-5,0C252.9,28.5,257.9,28.5,257.9,25.3z
	 M246.3,30.6c0,3.2,5,3.2,5,0C251.3,27.4,246.3,27.4,246.3,30.6z M247,23c0,3.2,5,3.2,5,0C252,19.8,247,19.8,247,23z M245.3,15.4
	c0,3.2,5,3.2,5,0C250.3,12.1,245.3,12.1,245.3,15.4z M244.8,9.9c0-3.2-5-3.2-5,0C239.8,13.1,244.8,13.1,244.8,9.9z M235.3,3.6
	c0,3.2,5,3.2,5,0C240.3,0.4,235.3,0.4,235.3,3.6z M229.4,9.1c0,3.2,5,3.2,5,0C234.4,5.8,229.4,5.8,229.4,9.1z M245.2,26.1
	c0-3.2-5-3.2-5,0C240.2,29.4,245.2,29.4,245.2,26.1z M243.7,18.2c0-3.2-5-3.2-5,0C238.7,21.4,243.7,21.4,243.7,18.2z M233.5,14
	c0,3.2,5,3.2,5,0C238.5,10.8,233.5,10.8,233.5,14z M227.1,16.9c0,3.2,5,3.2,5,0C232.1,13.6,227.1,13.6,227.1,16.9z M238.4,22
	c0-3.2-5-3.2-5,0C233.4,25.2,238.4,25.2,238.4,22z M236.4,29.3c0-3.2-5-3.2-5,0C231.4,32.5,236.4,32.5,236.4,29.3z M230.9,24.7
	c0-3.2-5-3.2-5,0C225.9,27.9,230.9,27.9,230.9,24.7z M229.6,32.1c0-3.2-5-3.2-5,0C224.6,35.3,229.6,35.3,229.6,32.1z M229.9,40.1
	c0-3.2-5-3.2-5,0C224.9,43.3,229.9,43.3,229.9,40.1z M223.6,36.9c0-3.2-5-3.2-5,0C218.6,40.1,223.6,40.1,223.6,36.9z M216.4,43.1
	c0,3.2,5,3.2,5,0C221.4,39.8,216.4,39.8,216.4,43.1z M228.2,46.5c0-3.2-5-3.2-5,0C223.2,49.8,228.2,49.8,228.2,46.5z M226.3,54.8
	c0-3.2-5-3.2-5,0C221.3,58.1,226.3,58.1,226.3,54.8z M222.3,61.5c0-3.2-5-3.2-5,0C217.3,64.7,222.3,64.7,222.3,61.5z M216.3,49.5
	c0,3.2,5,3.2,5,0C221.3,46.3,216.3,46.3,216.3,49.5z M220.3,56c0-3.2-5-3.2-5,0C215.3,59.2,220.3,59.2,220.3,56z M266.6,92.8
	c0,2.6,4,2.6,4,0C270.6,90.2,266.6,90.2,266.6,92.8z M272.2,95.8c0,2.6,4,2.6,4,0C276.2,93.2,272.2,93.2,272.2,95.8z M425.2,424.5
	c-0.9-0.2-1.9,0-2.6,0.7h2.6V424.5z M425.2,405.2v-2.5c-0.2,0.3-0.3,0.7-0.3,1.2C424.9,404.5,425,404.9,425.2,405.2z M422.8,392.8
	c0,1.6,1.2,2.4,2.4,2.4v-4.8C424,390.4,422.8,391.2,422.8,392.8z M420,144.8c0,3.2,5,3.2,5,0C425,141.6,420,141.6,420,144.8z
	 M425.2,151v-2.4c-0.2,0.3-0.3,0.7-0.3,1.2C424.9,150.2,425,150.6,425.2,151z M415.8,151.1c0,3.2,5,3.2,5,0
	C420.8,147.8,415.8,147.8,415.8,151.1z M421.5,156.5c0,2.1,2.2,2.8,3.7,2.2v-4.3C423.7,153.7,421.5,154.4,421.5,156.5z M413.5,158.6
	c0,3.2,5,3.2,5,0C418.5,155.4,413.5,155.4,413.5,158.6z M405.9,161.7c0,3.2,5,3.2,5,0C410.9,158.5,405.9,158.5,405.9,161.7z
	 M405.9,169c0,3.2,5,3.2,5,0C410.9,165.8,405.9,165.8,405.9,169z M398.9,162.8c0,3.2,5,3.2,5,0C403.9,159.5,398.9,159.5,398.9,162.8
	z M402.8,176c0,3.2,5,3.2,5,0C407.8,172.8,402.8,172.8,402.8,176z M398.9,169.8c0,3.2,5,3.2,5,0
	C403.9,166.6,398.9,166.6,398.9,169.8z M397.1,159.1c0-3.2-5-3.2-5,0C392.1,162.4,397.1,162.4,397.1,159.1z M391.6,166.7
	c0,3.2,5,3.2,5,0C396.6,163.4,391.6,163.4,391.6,166.7z M398.9,198.4c0,3.2,5,3.2,5,0C403.9,195.2,398.9,195.2,398.9,198.4z
	 M394.7,203.6c0,3.2,5,3.2,5,0C399.7,200.4,394.7,200.4,394.7,203.6z M394.5,192.9c0,3.2,5,3.2,5,0
	C399.5,189.7,394.5,189.7,394.5,192.9z M399.7,187.7c0,3.2,5,3.2,5,0C404.7,184.5,399.7,184.5,399.7,187.7z M397.6,180.4
	c0,3.2,5,3.2,5,0C402.6,177.2,397.6,177.2,397.6,180.4z M391.1,184.3c0,3.2,5,3.2,5,0C396.1,181.1,391.1,181.1,391.1,184.3z
	 M392.4,175.5c0,3.2,5,3.2,5,0C397.4,172.3,392.4,172.3,392.4,175.5z M389.6,159.9c0-3.2-5-3.2-5,0
	C384.6,163.1,389.6,163.1,389.6,159.9z M385.1,170.6c0,3.2,5,3.2,5,0C390.1,167.3,385.1,167.3,385.1,170.6z M389.6,179.9
	c0-3.2-5-3.2-5,0C384.6,183.2,389.6,183.2,389.6,179.9z M377.6,166.7c0,3.2,5,3.2,5,0C382.6,163.4,377.6,163.4,377.6,166.7z
	 M381.8,174.5c0-3.2-5-3.2-5,0C376.8,177.7,381.8,177.7,381.8,174.5z M381.8,183.3c0-3.2-5-3.2-5,0S381.8,186.5,381.8,183.3z
	 M374.5,170c0-3.2-5-3.2-5,0S374.5,173.3,374.5,170z M370.1,179.1c0,3.2,5,3.2,5,0C375.1,175.9,370.1,175.9,370.1,179.1z M375.6,189
	c0-3.2-5-3.2-5,0C370.6,192.3,375.6,192.3,375.6,189z M361.7,165.6c0,3.2,5,3.2,5,0C366.7,162.4,361.7,162.4,361.7,165.6z
	 M368,174.2c0-3.2-5-3.2-5,0C363,177.4,368,177.4,368,174.2z M363,183c0,3.2,5,3.2,5,0C368,179.8,363,179.8,363,183z M370.1,194.2
	c0-3.2-5-3.2-5,0C365.1,197.4,370.1,197.4,370.1,194.2z M357.8,191.9c0,3.2,5,3.2,5,0C362.8,188.7,357.8,188.7,357.8,191.9z
	 M353.7,183c0,3.2,5,3.2,5,0C358.7,179.8,353.7,179.8,353.7,183z M361,175c0-3.2-5-3.2-5,0C356,178.2,361,178.2,361,175z
	 M355.5,159.1c0,3.2,5,3.2,5,0C360.5,155.9,355.5,155.9,355.5,159.1z M355,152.6c0-3.2-5-3.2-5,0C350,155.9,355,155.9,355,152.6z
	 M342,152.1c0,3.2,5,3.2,5,0C347,148.9,342,148.9,342,152.1z M335,157.3c0,3.2,5,3.2,5,0C340,154.1,335,154.1,335,157.3z
	 M345.9,158.6c0,3.2,5,3.2,5,0C350.9,155.4,345.9,155.4,345.9,158.6z M358.9,166.4c0-3.2-5-3.2-5,0
	C353.9,169.6,358.9,169.6,358.9,166.4z M345.6,165.6c0,3.2,5,3.2,5,0C350.6,162.4,345.6,162.4,345.6,165.6z M348.5,172.4
	c0,3.2,5,3.2,5,0C353.5,169.2,348.5,169.2,348.5,172.4z M346.7,179.1c0,3.2,5,3.2,5,0C351.7,175.9,346.7,175.9,346.7,179.1z
	 M344.6,177.3c0-3.2-5-3.2-5,0C339.6,180.6,344.6,180.6,344.6,177.3z M338.4,181.2c0-3.2-5-3.2-5,0
	C333.4,184.5,338.4,184.5,338.4,181.2z M335.5,163.6c0-3.2-5-3.2-5,0C330.5,166.8,335.5,166.8,335.5,163.6z M325.9,169.3
	c0,3.2,5,3.2,5,0S325.9,166,325.9,169.3z M319.9,174.2c0,3.2,5,3.2,5,0C324.9,171,319.9,171,319.9,174.2z M329.5,187.5
	c0,3.2,5,3.2,5,0C334.5,184.2,329.5,184.2,329.5,187.5z M331.1,194.2c0-3.2-5-3.2-5,0C326.1,197.4,331.1,197.4,331.1,194.2z
	 M339.6,169.8c0,3.2,5,3.2,5,0C344.6,166.6,339.6,166.6,339.6,169.8z M339.4,161.5c0,3.2,5,3.2,5,0
	C344.4,158.2,339.4,158.2,339.4,161.5z M337.4,171.3c0-3.2-5-3.2-5,0C332.4,174.6,337.4,174.6,337.4,171.3z M332.2,177.6
	c0-3.2-5-3.2-5,0C327.2,180.8,332.2,180.8,332.2,177.6z M327.5,184.6c0-3.2-5-3.2-5,0C322.5,187.8,327.5,187.8,327.5,184.6z
	 M320.7,214.2c0-3.2-5-3.2-5,0C315.7,217.5,320.7,217.5,320.7,214.2z M319.6,206.4c0,3.2,5,3.2,5,0
	C324.6,203.2,319.6,203.2,319.6,206.4z M325.7,198.6c0-3.2-5-3.2-5,0C320.7,201.9,325.7,201.9,325.7,198.6z M323.6,191.4
	c0-3.2-5-3.2-5,0C318.6,194.6,323.6,194.6,323.6,191.4z M321.5,180.2c0-3.2-5-3.2-5,0C316.5,183.4,321.5,183.4,321.5,180.2z
	 M423.2,120.5c0,1.4,0.9,2.2,2,2.4v-4.7C424.2,118.4,423.2,119.2,423.2,120.5z M418.6,125.6c0,3.2,5,3.2,5,0
	C423.6,122.4,418.6,122.4,418.6,125.6z M416.3,126c0-3.2-5-3.2-5,0C411.3,129.3,416.3,129.3,416.3,126z M406.2,131.1
	c0,3.2,5,3.2,5,0C411.2,127.9,406.2,127.9,406.2,131.1z M404.3,131.3c0-3.2-5-3.2-5,0C399.3,134.5,404.3,134.5,404.3,131.3z
	 M393.8,125.4c0,3.2,5,3.2,5,0C398.8,122.2,393.8,122.2,393.8,125.4z M391.9,128.1c0-3.2-5-3.2-5,0
	C386.9,131.3,391.9,131.3,391.9,128.1z M388.3,120.5c0,3.2,5,3.2,5,0C393.3,117.3,388.3,117.3,388.3,120.5z M381.8,116.3
	c0,3.2,5,3.2,5,0C386.8,113.1,381.8,113.1,381.8,116.3z M380.4,123c0,3.2,5,3.2,5,0C385.4,119.8,380.4,119.8,380.4,123z
	 M381.6,128.7c0-3.2-5-3.2-5,0C376.6,131.9,381.6,131.9,381.6,128.7z M368.8,127.2c0,3.2,5,3.2,5,0C373.8,124,368.8,124,368.8,127.2
	z M378.7,120.8c0-3.2-5-3.2-5,0C373.7,124,378.7,124,378.7,120.8z M375.3,113.6c0,3.2,5,3.2,5,0
	C380.3,110.4,375.3,110.4,375.3,113.6z M367.4,112c0,3.2,5,3.2,5,0C372.4,108.8,367.4,108.8,367.4,112z M367.2,119.3
	c0,3.2,5,3.2,5,0C372.2,116.1,367.2,116.1,367.2,119.3z M361.1,123.8c0,3.2,5,3.2,5,0C366.1,120.6,361.1,120.6,361.1,123.8z
	 M360.3,110c0,3.2,5,3.2,5,0C365.3,106.8,360.3,106.8,360.3,110z M359.9,116.7c0,3.2,5,3.2,5,0C364.9,113.5,359.9,113.5,359.9,116.7
	z M352.6,116.3c0,3.2,5,3.2,5,0C357.6,113.1,352.6,113.1,352.6,116.3z M360,122.2c0-3.2-5-3.2-5,0S360,125.4,360,122.2z
	 M347.5,120.8c0,3.2,5,3.2,5,0C352.5,117.5,347.5,117.5,347.5,120.8z M346.8,125.2c0-3.2-5-3.2-5,0
	C341.8,128.4,346.8,128.4,346.8,125.2z M415.4,342c0,3.2,5,3.2,5,0C420.4,338.8,415.4,338.8,415.4,342z M425.2,351.2v-3
	c-0.3,0.4-0.5,0.9-0.5,1.5C424.7,350.3,424.9,350.8,425.2,351.2z M425.2,343.7v-3c-0.3,0.4-0.5,0.9-0.5,1.5
	C424.7,342.8,424.9,343.3,425.2,343.7z M425.2,300.3v-3c-0.3,0.4-0.5,0.9-0.5,1.5C424.7,299.4,424.9,299.9,425.2,300.3z
	 M416.6,303.7c0,3.2,5,3.2,5,0C421.6,300.5,416.6,300.5,416.6,303.7z M420.7,315.3c0,2.6,3.2,3.1,4.5,1.6v-3.1
	C423.9,312.3,420.7,312.8,420.7,315.3z M422.6,307.2c0,1.7,1.3,2.5,2.6,2.4v-4.8C423.9,304.8,422.6,305.5,422.6,307.2z M413.9,311.2
	c0,3.2,5,3.2,5,0C418.9,308,413.9,308,413.9,311.2z M411.8,308.7c0-3.2-5-3.2-5,0C406.8,311.9,411.8,311.9,411.8,308.7z M414,315.8
	c0-3.2-5-3.2-5,0C409,319.1,414,319.1,414,315.8z M405.3,312.7c0-3.2-5-3.2-5,0S405.3,315.9,405.3,312.7z M397.5,311.5
	c0-3.2-5-3.2-5,0C392.5,314.8,397.5,314.8,397.5,311.5z M384.8,310.4c0,3.2,5,3.2,5,0C389.8,307.1,384.8,307.1,384.8,310.4z
	 M366.3,300.8c0,3.2,5,3.2,5,0S366.3,297.5,366.3,300.8z M363.9,294.6c0,3.2,5,3.2,5,0S363.9,291.4,363.9,294.6z M361.7,296.8
	c0-3.2-5-3.2-5,0S361.7,300,361.7,296.8z M358.9,288.8c0,3.2,5,3.2,5,0C363.9,285.6,358.9,285.6,358.9,288.8z M351.4,287.2
	c0,3.2,5,3.2,5,0C356.4,283.9,351.4,283.9,351.4,287.2z M349.9,294c0,3.2,5,3.2,5,0C354.9,290.7,349.9,290.7,349.9,294z
	 M343.1,294.8c0,3.2,5,3.2,5,0C348.1,291.6,343.1,291.6,343.1,294.8z M346,300.9c0-3.2-5-3.2-5,0C341,304.1,346,304.1,346,300.9z
	 M422.2,205.6c0,1.8,1.6,2.6,3,2.4v-4.8C423.8,203,422.2,203.8,422.2,205.6z M420.1,214c0,3.2,5,3.2,5,0S420.1,210.8,420.1,214z
	 M425.2,229.8v-1.7c-0.1,0.3-0.2,0.5-0.2,0.9C425,229.3,425.1,229.6,425.2,229.8z M417.9,223.3c0,3.2,5,3.2,5,0
	S417.9,220.1,417.9,223.3z M417.3,231.8c0,3.2,5,3.2,5,0C422.3,228.6,417.3,228.6,417.3,231.8z M421.2,237.9c0,2.3,2.5,2.9,4,2v-4
	C423.7,235,421.2,235.6,421.2,237.9z M414.8,241.6c0,3.2,5,3.2,5,0C419.8,238.3,414.8,238.3,414.8,241.6z M418.9,248.2
	c0,3.2,5,3.2,5,0C423.9,245,418.9,245,418.9,248.2z M411.4,249.9c0,3.2,5,3.2,5,0C416.4,246.6,411.4,246.6,411.4,249.9z
	 M417.6,255.2c0,3.2,5,3.2,5,0S417.6,251.9,417.6,255.2z M411,257.6c0,3.2,5,3.2,5,0C416,254.4,411,254.4,411,257.6z M413.8,264.6
	c0,3.2,5,3.2,5,0C418.8,261.4,413.8,261.4,413.8,264.6z M408.5,257c0-3.2-5-3.2-5,0C403.5,260.2,408.5,260.2,408.5,257z M406,263.6
	c0,3.2,5,3.2,5,0C411,260.4,406,260.4,406,263.6z M405.5,270.7c0,3.2,5,3.2,5,0C410.5,267.5,405.5,267.5,405.5,270.7z M395.5,259
	c0,3.2,5,3.2,5,0C400.5,255.7,395.5,255.7,395.5,259z M399,265.4c0,3.2,5,3.2,5,0S399,262.2,399,265.4z M398.5,273.1
	c0,3.2,5,3.2,5,0C403.5,269.8,398.5,269.8,398.5,273.1z M391.1,274.9c0,3.2,5,3.2,5,0C396.1,271.7,391.1,271.7,391.1,274.9z
	 M388.9,272.9c0-3.2-5-3.2-5,0C383.9,276.1,388.9,276.1,388.9,272.9z M379.6,266.1c0,3.2,5,3.2,5,0S379.6,262.9,379.6,266.1z
	 M396.2,267.1c0-3.2-5-3.2-5,0C391.2,270.3,396.2,270.3,396.2,267.1z M391.9,260.5c0-3.2-5-3.2-5,0
	C386.9,263.7,391.9,263.7,391.9,260.5z M380.1,258.6c0,3.2,5,3.2,5,0C385.1,255.4,380.1,255.4,380.1,258.6z M381.3,251.2
	c0-3.2-5-3.2-5,0C376.3,254.4,381.3,254.4,381.3,251.2z M371.2,245.9c0,3.2,5,3.2,5,0C376.2,242.6,371.2,242.6,371.2,245.9z
	 M377.8,238.6c0-3.2-5-3.2-5,0C372.8,241.8,377.8,241.8,377.8,238.6z M373.1,230.4c0,3.2,5,3.2,5,0
	C378.1,227.2,373.1,227.2,373.1,230.4z M374.1,222.8c0,3.2,5,3.2,5,0C379.1,219.6,374.1,219.6,374.1,222.8z M375.1,215.7
	c0,3.2,5,3.2,5,0C380.1,212.5,375.1,212.5,375.1,215.7z M367.3,225.8c0,3.2,5,3.2,5,0C372.3,222.6,367.3,222.6,367.3,225.8z
	 M366.3,234.4c0,3.2,5,3.2,5,0C371.3,231.2,366.3,231.2,366.3,234.4z M370.2,241.2c0-3.2-5-3.2-5,0
	C365.2,244.5,370.2,244.5,370.2,241.2z M364.6,246c0-3.2-5-3.2-5,0C359.6,249.3,364.6,249.3,364.6,246z M365,230.3c0-3.2-5-3.2-5,0
	C360,233.5,365,233.5,365,230.3z M359.2,237.9c0,3.2,5,3.2,5,0C364.2,234.7,359.2,234.7,359.2,237.9z M357.6,243.2c0-3.2-5-3.2-5,0
	S357.6,246.4,357.6,243.2z M353.3,235.6c0,3.2,5,3.2,5,0S353.3,232.4,353.3,235.6z M351.6,228c0,3.2,5,3.2,5,0
	C356.6,224.7,351.6,224.7,351.6,228z M346.1,222.5c0,3.2,5,3.2,5,0C351.1,219.3,346.1,219.3,346.1,222.5z M346.6,216.2
	c0-3.2-5-3.2-5,0C341.6,219.4,346.6,219.4,346.6,216.2z M335.7,221.7c0,3.2,5,3.2,5,0C340.7,218.4,335.7,218.4,335.7,221.7z
	 M351.5,238.7c0-3.2-5-3.2-5,0C346.5,242,351.5,242,351.5,238.7z M350,230.8c0-3.2-5-3.2-5,0C345,234,350,234,350,230.8z
	 M339.8,226.6c0,3.2,5,3.2,5,0C344.8,223.4,339.8,223.4,339.8,226.6z M338.4,229.5c0-3.2-5-3.2-5,0
	C333.4,232.7,338.4,232.7,338.4,229.5z M339.7,234.6c0,3.2,5,3.2,5,0C344.7,231.4,339.7,231.4,339.7,234.6z M342.7,241.9
	c0-3.2-5-3.2-5,0C337.7,245.1,342.7,245.1,342.7,241.9z M337.2,237.2c0-3.2-5-3.2-5,0C332.2,240.5,337.2,240.5,337.2,237.2z
	 M335.9,244.7c0-3.2-5-3.2-5,0C330.9,247.9,335.9,247.9,335.9,244.7z M336.2,252.7c0-3.2-5-3.2-5,0
	C331.2,255.9,336.2,255.9,336.2,252.7z M324.9,249.5c0,3.2,5,3.2,5,0C329.9,246.3,324.9,246.3,324.9,249.5z M322.7,255.7
	c0,3.2,5,3.2,5,0C327.7,252.4,322.7,252.4,322.7,255.7z M334.5,259.1c0-3.2-5-3.2-5,0C329.5,262.4,334.5,262.4,334.5,259.1z
	 M332.5,267.4c0-3.2-5-3.2-5,0C327.5,270.7,332.5,270.7,332.5,267.4z M328.6,274.1c0-3.2-5-3.2-5,0
	C323.6,277.3,328.6,277.3,328.6,274.1z M322.6,262.1c0,3.2,5,3.2,5,0C327.6,258.9,322.6,258.9,322.6,262.1z M326.6,268.6
	c0-3.2-5-3.2-5,0S326.6,271.8,326.6,268.6z M396.8,89.3c0,3.2,5,3.2,5,0C401.8,86,396.8,86,396.8,89.3z M403.8,90.2c0,3.2,5,3.2,5,0
	C408.8,86.9,403.8,86.9,403.8,90.2z M400.2,95.8c0,3.2,5,3.2,5,0C405.2,92.6,400.2,92.6,400.2,95.8z M407.1,95.8c0,3.2,5,3.2,5,0
	C412.1,92.6,407.1,92.6,407.1,95.8z M415.1,101.8c0-3.2-5-3.2-5,0C410.1,105,415.1,105,415.1,101.8z M414.3,96.3c0,3.2,5,3.2,5,0
	C419.3,93.1,414.3,93.1,414.3,96.3z M417.5,103c0,3.2,5,3.2,5,0C422.5,99.8,417.5,99.8,417.5,103z M422.4,99.2
	c0,1.7,1.4,2.5,2.8,2.4v-4.8C423.9,96.7,422.4,97.4,422.4,99.2z M372.9,305.4c0,2.6,4,2.6,4,0C376.9,302.8,372.9,302.8,372.9,305.4z
	 M378.5,308.4c0,2.6,4,2.6,4,0C382.5,305.8,378.5,305.8,378.5,308.4z M425.2,4V0h-2.6c-0.4,0.4-0.6,0.9-0.6,1.6
	C422,3.6,423.8,4.3,425.2,4z"/>
</svg>
